FrauncesItalic-LightOpMaxGoofyMax.ufo
<glyph name="exclam" format="2">
  <advance width="464"/>
  <unicode hex="0021"/>
  <outline>
    <contour>
      <point x="519" y="1458" type="curve" smooth="yes"/>
      <point x="483" y="1458"/>
      <point x="464" y="1428"/>
      <point x="454" y="1392" type="curve" smooth="yes"/>
      <point x="452" y="1382"/>
      <point x="445" y="1360"/>
      <point x="440" y="1341" type="curve" smooth="yes"/>
      <point x="236" y="504" type="line" smooth="yes"/>
      <point x="227" y="467"/>
      <point x="231" y="454"/>
      <point x="249" y="454" type="curve" smooth="yes"/>
      <point x="268" y="454"/>
      <point x="278" y="468"/>
      <point x="289" y="506" type="curve" smooth="yes"/>
      <point x="534" y="1341" type="line" smooth="yes"/>
      <point x="540" y="1360"/>
      <point x="545" y="1382"/>
      <point x="547" y="1392" type="curve" smooth="yes"/>
      <point x="557" y="1428"/>
      <point x="554" y="1458"/>
    </contour>
    <component base="period" xScale="0.93" yxScale="0.01875644347017863"/>
  </outline>
</glyph>
<glyph name="ampersand" format="2">
  <advance width="1179"/>
  <unicode hex="0026"/>
  <outline>
    <contour>
      <point x="151" y="199" type="line" smooth="yes"/>
      <point x="5" y="67"/>
      <point x="-65" y="-78"/>
      <point x="-65" y="-271" type="curve" smooth="yes"/>
      <point x="-65" y="-369"/>
      <point x="-30" y="-408"/>
      <point x="13" y="-408" type="curve" smooth="yes"/>
      <point x="45" y="-408"/>
      <point x="70" y="-381"/>
      <point x="70" y="-348" type="curve" smooth="yes"/>
      <point x="70" y="-300"/>
      <point x="8" y="-277"/>
      <point x="8" y="-197" type="curve" smooth="yes"/>
      <point x="8" y="-72"/>
      <point x="51" y="45"/>
      <point x="179" y="161" type="curve" smooth="yes"/>
      <point x="1045" y="947" type="line" smooth="yes"/>
      <point x="1212" y="1097"/>
      <point x="1264" y="1201"/>
      <point x="1264" y="1335" type="curve" smooth="yes"/>
      <point x="1264" y="1417"/>
      <point x="1221" y="1466"/>
      <point x="1176" y="1466" type="curve" smooth="yes"/>
      <point x="1149" y="1466"/>
      <point x="1129" y="1436"/>
      <point x="1129" y="1409" type="curve" smooth="yes"/>
      <point x="1129" y="1362"/>
      <point x="1188" y="1333"/>
      <point x="1188" y="1274" type="curve" smooth="yes"/>
      <point x="1188" y="1186"/>
      <point x="1145" y="1102"/>
      <point x="1031" y="999" type="curve" smooth="yes"/>
    </contour>
    <contour>
      <point x="970" y="414" type="curve" smooth="yes"/>
      <point x="970" y="215"/>
      <point x="788" y="32"/>
      <point x="578" y="32" type="curve" smooth="yes"/>
      <point x="356" y="32"/>
      <point x="219" y="186"/>
      <point x="262" y="506" type="curve" smooth="yes"/>
      <point x="301" y="802"/>
      <point x="481" y="1043"/>
      <point x="683" y="1043" type="curve" smooth="yes"/>
      <point x="806" y="1043"/>
      <point x="864" y="967"/>
      <point x="864" y="849" type="curve" smooth="yes"/>
      <point x="865" y="818"/>
      <point x="846" y="781"/>
      <point x="820" y="749" type="curve"/>
      <point x="843" y="759"/>
      <point x="866" y="762"/>
      <point x="902" y="762" type="curve" smooth="yes"/>
      <point x="926" y="762"/>
      <point x="940" y="800"/>
      <point x="940" y="848" type="curve" smooth="yes"/>
      <point x="940" y="984"/>
      <point x="858" y="1086"/>
      <point x="702" y="1086" type="curve" smooth="yes"/>
      <point x="453" y="1086"/>
      <point x="244" y="843"/>
      <point x="190" y="504" type="curve" smooth="yes"/>
      <point x="138" y="179"/>
      <point x="311" y="-19"/>
      <point x="552" y="-19" type="curve" smooth="yes"/>
      <point x="857" y="-19"/>
      <point x="1060" y="266"/>
      <point x="1059" y="527" type="curve" smooth="yes"/>
      <point x="1059" y="586"/>
      <point x="1043" y="620"/>
      <point x="1005" y="620" type="curve" smooth="yes"/>
      <point x="972" y="620"/>
      <point x="952" y="589"/>
      <point x="952" y="545" type="curve" smooth="yes"/>
      <point x="952" y="508"/>
      <point x="970" y="481"/>
    </contour>
  </outline>
</glyph>
<glyph name="parenleft" format="2">
  <advance width="591"/>
  <unicode hex="0028"/>
  <outline>
    <contour>
      <point x="231" y="676" type="curve" smooth="yes"/>
      <point x="120" y="264"/>
      <point x="200" y="-128"/>
      <point x="353" y="-250" type="curve" smooth="yes"/>
      <point x="366" y="-260"/>
      <point x="380" y="-256"/>
      <point x="392" y="-242" type="curve" smooth="yes"/>
      <point x="404" y="-228"/>
      <point x="401" y="-210"/>
      <point x="387" y="-197" type="curve" smooth="yes"/>
      <point x="255" y="-60"/>
      <point x="201" y="282"/>
      <point x="305" y="676" type="curve" smooth="yes"/>
      <point x="398" y="1022"/>
      <point x="602" y="1276"/>
      <point x="821" y="1424" type="curve" smooth="yes"/>
      <point x="842" y="1436"/>
      <point x="856" y="1453"/>
      <point x="851" y="1468" type="curve" smooth="yes"/>
      <point x="847" y="1482"/>
      <point x="833" y="1487"/>
      <point x="814" y="1476" type="curve" smooth="yes"/>
      <point x="576" y="1343"/>
      <point x="327" y="1039"/>
    </contour>
  </outline>
</glyph>
<glyph name="comma" format="2">
  <advance width="446"/>
  <unicode hex="002C"/>
  <outline>
    <contour>
      <point x="185" y="-5" type="curve" smooth="yes"/>
      <point x="205" y="-13"/>
      <point x="212" y="-20"/>
      <point x="212" y="-44" type="curve" smooth="yes"/>
      <point x="211" y="-104"/>
      <point x="175" y="-177"/>
      <point x="76" y="-248" type="curve" smooth="yes"/>
      <point x="58" y="-261"/>
      <point x="61" y="-278"/>
      <point x="71" y="-284" type="curve" smooth="yes"/>
      <point x="80" y="-290"/>
      <point x="95" y="-283"/>
      <point x="108" y="-274" type="curve" smooth="yes"/>
      <point x="226" y="-183"/>
      <point x="269" y="-70"/>
      <point x="271" y="74" type="curve" smooth="yes"/>
      <point x="273" y="153"/>
      <point x="249" y="182"/>
      <point x="213" y="182" type="curve" smooth="yes"/>
      <point x="174" y="182"/>
      <point x="140" y="140"/>
      <point x="140" y="90" type="curve" smooth="yes"/>
      <point x="139" y="39"/>
      <point x="153" y="10"/>
    </contour>
  </outline>
</glyph>
<glyph name="hyphen" format="2">
  <advance width="752"/>
  <unicode hex="002D"/>
  <outline>
    <contour>
      <point x="629" y="516" type="curve" smooth="yes"/>
      <point x="195" y="516" type="line" smooth="yes"/>
      <point x="177" y="516"/>
      <point x="171" y="513"/>
      <point x="163" y="500" type="curve" smooth="yes"/>
      <point x="139" y="458" type="line" smooth="yes"/>
      <point x="132" y="448"/>
      <point x="135" y="439"/>
      <point x="155" y="439" type="curve" smooth="yes"/>
      <point x="589" y="439" type="line" smooth="yes"/>
      <point x="607" y="439"/>
      <point x="614" y="442"/>
      <point x="621" y="454" type="curve" smooth="yes"/>
      <point x="645" y="496" type="line" smooth="yes"/>
      <point x="651" y="506"/>
      <point x="649" y="516"/>
    </contour>
  </outline>
</glyph>
<glyph name="period" format="2">
  <advance width="334"/>
  <unicode hex="002E"/>
  <outline>
    <contour>
      <point x="117" y="-19" type="curve" smooth="yes"/>
      <point x="152" y="-19"/>
      <point x="212" y="68"/>
      <point x="212" y="149" type="curve" smooth="yes"/>
      <point x="212" y="183"/>
      <point x="197" y="200"/>
      <point x="174" y="200" type="curve" smooth="yes"/>
      <point x="132" y="200"/>
      <point x="80" y="112"/>
      <point x="80" y="36" type="curve" smooth="yes"/>
      <point x="80" y="1"/>
      <point x="96" y="-19"/>
    </contour>
  </outline>
</glyph>
<glyph name="slash" format="2">
  <advance width="734"/>
  <unicode hex="002F"/>
  <outline>
    <contour>
      <point x="445" y="607" type="curve" smooth="yes"/>
      <point x="557" y="838"/>
      <point x="814" y="1365"/>
      <point x="921" y="1589" type="curve" smooth="yes"/>
      <point x="932" y="1612"/>
      <point x="930" y="1649"/>
      <point x="922" y="1651" type="curve" smooth="yes"/>
      <point x="902" y="1656"/>
      <point x="881" y="1641"/>
      <point x="868" y="1612" type="curve" smooth="yes"/>
      <point x="740" y="1345"/>
      <point x="501" y="838"/>
      <point x="400" y="624" type="curve" smooth="yes"/>
      <point x="297" y="410"/>
      <point x="49" y="-92"/>
      <point x="-79" y="-358" type="curve" smooth="yes"/>
      <point x="-93" y="-387"/>
      <point x="-89" y="-410"/>
      <point x="-71" y="-415" type="curve" smooth="yes"/>
      <point x="-48" y="-421"/>
      <point x="-29" y="-407"/>
      <point x="-13" y="-378" type="curve" smooth="yes"/>
      <point x="93" y="-153"/>
      <point x="338" y="378"/>
    </contour>
  </outline>
</glyph>
<glyph name="zero" format="2">
  <advance width="1085"/>
  <unicode hex="0030"/>
  <outline>
    <contour>
      <point x="822" y="1417" type="curve" smooth="yes"/>
      <point x="539" y="1417"/>
      <point x="268" y="1140"/>
      <point x="151" y="703" type="curve" smooth="yes"/>
      <point x="23" y="225"/>
      <point x="122" y="-19"/>
      <point x="419" y="-19" type="curve" smooth="yes"/>
      <point x="686" y="-19"/>
      <point x="963" y="234"/>
      <point x="1096" y="730" type="curve" smooth="yes"/>
      <point x="1215" y="1176"/>
      <point x="1108" y="1417"/>
    </contour>
    <contour>
      <point x="1019" y="700" type="curve" smooth="yes"/>
      <point x="894" y="232"/>
      <point x="632" y="48"/>
      <point x="455" y="48" type="curve" smooth="yes"/>
      <point x="186" y="48"/>
      <point x="96" y="246"/>
      <point x="227" y="733" type="curve" smooth="yes"/>
      <point x="328" y="1111"/>
      <point x="556" y="1351"/>
      <point x="785" y="1351" type="curve" smooth="yes"/>
      <point x="1024" y="1351"/>
      <point x="1146" y="1173"/>
    </contour>
  </outline>
</glyph>
<glyph name="one" format="2">
  <advance width="719"/>
  <unicode hex="0031"/>
  <outline>
    <contour>
      <point x="323" y="1278" type="line" smooth="yes"/>
      <point x="299" y="1278"/>
      <point x="288" y="1287"/>
      <point x="293" y="1309" type="curve" smooth="yes"/>
      <point x="298" y="1325"/>
      <point x="314" y="1338"/>
      <point x="338" y="1338" type="curve" smooth="yes"/>
      <point x="511" y="1338" type="line" smooth="yes"/>
      <point x="543" y="1338"/>
      <point x="559" y="1350"/>
      <point x="586" y="1398" type="curve" smooth="yes"/>
      <point x="600" y="1424"/>
      <point x="617" y="1438"/>
      <point x="634" y="1438" type="curve" smooth="yes"/>
      <point x="654" y="1438"/>
      <point x="664" y="1426"/>
      <point x="656" y="1395" type="curve" smooth="yes"/>
      <point x="345" y="140" type="line" smooth="yes"/>
      <point x="332" y="90"/>
      <point x="344" y="59"/>
      <point x="400" y="56" type="curve" smooth="yes"/>
      <point x="541" y="46" type="line" smooth="yes"/>
      <point x="562" y="44"/>
      <point x="572" y="35"/>
      <point x="568" y="21" type="curve" smooth="yes"/>
      <point x="565" y="7"/>
      <point x="552" y="0"/>
      <point x="532" y="0" type="curve" smooth="yes"/>
      <point x="-2" y="0" type="line" smooth="yes"/>
      <point x="-22" y="0"/>
      <point x="-31" y="7"/>
      <point x="-27" y="21" type="curve" smooth="yes"/>
      <point x="-23" y="35"/>
      <point x="-8" y="45"/>
      <point x="13" y="45" type="curve" smooth="yes"/>
      <point x="179" y="55" type="line" smooth="yes"/>
      <point x="227" y="58"/>
      <point x="263" y="90"/>
      <point x="276" y="141" type="curve" smooth="yes"/>
      <point x="538" y="1197" type="line" smooth="yes"/>
      <point x="553" y="1262"/>
      <point x="543" y="1278"/>
      <point x="496" y="1278" type="curve" smooth="yes"/>
    </contour>
  </outline>
</glyph>
<glyph name="two" format="2">
  <advance width="1034"/>
  <unicode hex="0032"/>
  <outline>
    <contour>
      <point x="610" y="613" type="curve" smooth="yes"/>
      <point x="278" y="436"/>
      <point x="108" y="277"/>
      <point x="46" y="40" type="curve" smooth="yes"/>
      <point x="36" y="3"/>
      <point x="59" y="-19"/>
      <point x="90" y="-19" type="curve" smooth="yes"/>
      <point x="126" y="-19"/>
      <point x="158" y="6"/>
      <point x="167" y="43" type="curve" smooth="yes"/>
      <point x="169" y="51"/>
      <point x="172" y="56"/>
      <point x="173" y="65" type="curve" smooth="yes"/>
      <point x="186" y="111"/>
      <point x="235" y="140"/>
      <point x="304" y="140" type="curve" smooth="yes"/>
      <point x="360" y="140"/>
      <point x="392" y="122"/>
      <point x="439" y="83" type="curve" smooth="yes"/>
      <point x="515" y="18"/>
      <point x="589" y="-18"/>
      <point x="673" y="-18" type="curve" smooth="yes"/>
      <point x="780" y="-18"/>
      <point x="845" y="48"/>
      <point x="914" y="208" type="curve" smooth="yes"/>
      <point x="924" y="232"/>
      <point x="921" y="241"/>
      <point x="910" y="244" type="curve" smooth="yes"/>
      <point x="896" y="247"/>
      <point x="884" y="239"/>
      <point x="873" y="218" type="curve" smooth="yes"/>
      <point x="820" y="110"/>
      <point x="759" y="59"/>
      <point x="681" y="59" type="curve" smooth="yes"/>
      <point x="580" y="59"/>
      <point x="504" y="200"/>
      <point x="325" y="200" type="curve" smooth="yes"/>
      <point x="202" y="200"/>
      <point x="110" y="123"/>
      <point x="88" y="39" type="curve"/>
      <point x="112" y="38" type="line"/>
      <point x="165" y="239"/>
      <point x="278" y="371"/>
      <point x="607" y="553" type="curve" smooth="yes"/>
      <point x="949" y="741"/>
      <point x="1043" y="870"/>
      <point x="1092" y="1053" type="curve" smooth="yes"/>
      <point x="1148" y="1262"/>
      <point x="1069" y="1419"/>
      <point x="839" y="1419" type="curve" smooth="yes"/>
      <point x="578" y="1419"/>
      <point x="408" y="1263"/>
      <point x="357" y="1075" type="curve" smooth="yes"/>
      <point x="340" y="1011"/>
      <point x="354" y="979"/>
      <point x="386" y="979" type="curve" smooth="yes"/>
      <point x="414" y="979"/>
      <point x="440" y="999"/>
      <point x="454" y="1050" type="curve" smooth="yes"/>
      <point x="470" y="1111" type="line" smooth="yes"/>
      <point x="510" y="1260"/>
      <point x="625" y="1363"/>
      <point x="806" y="1363" type="curve" smooth="yes"/>
      <point x="987" y="1363"/>
      <point x="1068" y="1243"/>
      <point x="1017" y="1052" type="curve" smooth="yes"/>
      <point x="970" y="877"/>
      <point x="863" y="748"/>
    </contour>
  </outline>
</glyph>
<glyph name="three" format="2">
  <advance width="1052"/>
  <unicode hex="0033"/>
  <outline>
    <contour>
      <point x="539" y="735" type="line"/>
      <point x="1135" y="1318" type="line" smooth="yes"/>
      <point x="1157" y="1339"/>
      <point x="1170" y="1354"/>
      <point x="1177" y="1378" type="curve" smooth="yes"/>
      <point x="1181" y="1393"/>
      <point x="1164" y="1400"/>
      <point x="1147" y="1400" type="curve" smooth="yes"/>
      <point x="526" y="1400" type="line" smooth="yes"/>
      <point x="485" y="1400"/>
      <point x="462" y="1371"/>
      <point x="446" y="1329" type="curve" smooth="yes"/>
      <point x="378" y="1157" type="line" smooth="yes"/>
      <point x="363" y="1119"/>
      <point x="374" y="1101"/>
      <point x="389" y="1100" type="curve" smooth="yes"/>
      <point x="407" y="1099"/>
      <point x="427" y="1117"/>
      <point x="438" y="1140" type="curve" smooth="yes"/>
      <point x="490" y="1240" type="line" smooth="yes"/>
      <point x="520" y="1301"/>
      <point x="558" y="1331"/>
      <point x="593" y="1331" type="curve" smooth="yes"/>
      <point x="1095" y="1331" type="line"/>
      <point x="1098" y="1353" type="line"/>
      <point x="535" y="797" type="line" smooth="yes"/>
      <point x="511" y="773"/>
      <point x="497" y="756"/>
      <point x="492" y="736" type="curve" smooth="yes"/>
      <point x="488" y="720"/>
      <point x="496" y="709"/>
      <point x="513" y="709" type="curve" smooth="yes"/>
      <point x="542" y="709" type="line" smooth="yes"/>
      <point x="797" y="709"/>
      <point x="904" y="597"/>
      <point x="843" y="366" type="curve" smooth="yes"/>
      <point x="788" y="165"/>
      <point x="627" y="48"/>
      <point x="436" y="48" type="curve" smooth="yes"/>
      <point x="261" y="48"/>
      <point x="194" y="120"/>
      <point x="228" y="251" type="curve" smooth="yes"/>
      <point x="242" y="303" type="line" smooth="yes"/>
      <point x="255" y="351"/>
      <point x="244" y="387"/>
      <point x="216" y="387" type="curve" smooth="yes"/>
      <point x="173" y="387"/>
      <point x="138" y="348"/>
      <point x="121" y="285" type="curve" smooth="yes"/>
      <point x="76" y="117"/>
      <point x="170" y="-19"/>
      <point x="400" y="-19" type="curve" smooth="yes"/>
      <point x="655" y="-19"/>
      <point x="848" y="136"/>
      <point x="918" y="394" type="curve" smooth="yes"/>
      <point x="984" y="642"/>
      <point x="852" y="766"/>
      <point x="594" y="766" type="curve" smooth="yes"/>
      <point x="594" y="766"/>
      <point x="559" y="766"/>
      <point x="557" y="767" type="curve"/>
    </contour>
  </outline>
</glyph>
<glyph name="four" format="2">
  <advance width="936"/>
  <unicode hex="0034"/>
  <outline>
    <contour>
      <point x="679" y="799" type="curve" smooth="yes"/>
      <point x="518" y="143" type="line" smooth="yes"/>
      <point x="505" y="92"/>
      <point x="469" y="62"/>
      <point x="420" y="56" type="curve" smooth="yes"/>
      <point x="341" y="46" type="line" smooth="yes"/>
      <point x="319" y="43"/>
      <point x="304" y="36"/>
      <point x="300" y="21" type="curve" smooth="yes"/>
      <point x="296" y="7"/>
      <point x="306" y="0"/>
      <point x="325" y="0" type="curve" smooth="yes"/>
      <point x="708" y="0" type="line" smooth="yes"/>
      <point x="728" y="0"/>
      <point x="740" y="7"/>
      <point x="744" y="21" type="curve" smooth="yes"/>
      <point x="748" y="35"/>
      <point x="737" y="43"/>
      <point x="717" y="46" type="curve" smooth="yes"/>
      <point x="642" y="56" type="line" smooth="yes"/>
      <point x="595" y="62"/>
      <point x="574" y="92"/>
      <point x="587" y="143" type="curve" smooth="yes"/>
      <point x="766" y="860" type="line" smooth="yes"/>
      <point x="769" y="873"/>
      <point x="764" y="881"/>
      <point x="756" y="881" type="curve" smooth="yes"/>
      <point x="745" y="881"/>
      <point x="737" y="877"/>
      <point x="729" y="869" type="curve" smooth="yes"/>
      <point x="712" y="854" type="line" smooth="yes"/>
      <point x="702" y="843"/>
      <point x="687" y="828"/>
    </contour>
    <contour>
      <point x="713" y="1121" type="curve" smooth="yes"/>
      <point x="40" y="448" type="line" smooth="yes"/>
      <point x="16" y="426"/>
      <point x="7" y="414"/>
      <point x="2" y="398" type="curve" smooth="yes"/>
      <point x="-3" y="376"/>
      <point x="8" y="363"/>
      <point x="35" y="363" type="curve" smooth="yes"/>
      <point x="817" y="362" type="line" smooth="yes"/>
      <point x="838" y="362"/>
      <point x="850" y="371"/>
      <point x="854" y="388" type="curve" smooth="yes"/>
      <point x="859" y="408"/>
      <point x="850" y="415"/>
      <point x="832" y="415" type="curve" smooth="yes"/>
      <point x="50" y="415" type="line"/>
      <point x="49" y="394" type="line"/>
      <point x="752" y="1092" type="line" smooth="yes"/>
      <point x="834" y="1172"/>
      <point x="883" y="1231"/>
      <point x="904" y="1317" type="curve" smooth="yes"/>
      <point x="920" y="1379"/>
      <point x="895" y="1417"/>
      <point x="853" y="1417" type="curve" smooth="yes"/>
      <point x="808" y="1417"/>
      <point x="771" y="1383"/>
      <point x="760" y="1341" type="curve" smooth="yes"/>
      <point x="746" y="1286"/>
      <point x="790" y="1265"/>
      <point x="776" y="1209" type="curve" smooth="yes"/>
      <point x="767" y="1171"/>
      <point x="741" y="1147"/>
    </contour>
  </outline>
</glyph>
<glyph name="five" format="2">
  <advance width="927"/>
  <unicode hex="0035"/>
  <outline>
    <contour>
      <point x="80" y="287" type="curve" smooth="yes"/>
      <point x="39" y="125"/>
      <point x="146" y="-19"/>
      <point x="361" y="-19" type="curve" smooth="yes"/>
      <point x="600" y="-19"/>
      <point x="799" y="159"/>
      <point x="866" y="425" type="curve" smooth="yes"/>
      <point x="927" y="666"/>
      <point x="836" y="842"/>
      <point x="615" y="842" type="curve" smooth="yes"/>
      <point x="490" y="842"/>
      <point x="352" y="776"/>
      <point x="248" y="653" type="curve"/>
      <point x="263" y="653" type="line"/>
      <point x="439" y="1367" type="line"/>
      <point x="432" y="1368" type="line"/>
      <point x="505" y="1273"/>
      <point x="603" y="1222"/>
      <point x="749" y="1222" type="curve" smooth="yes"/>
      <point x="882" y="1222"/>
      <point x="1017" y="1298"/>
      <point x="1082" y="1399" type="curve" smooth="yes"/>
      <point x="1102" y="1431"/>
      <point x="1098" y="1442"/>
      <point x="1090" y="1448" type="curve" smooth="yes"/>
      <point x="1079" y="1457"/>
      <point x="1063" y="1451"/>
      <point x="1038" y="1422" type="curve" smooth="yes"/>
      <point x="966" y="1332"/>
      <point x="874" y="1282"/>
      <point x="764" y="1282" type="curve" smooth="yes"/>
      <point x="626" y="1282"/>
      <point x="576" y="1336"/>
      <point x="497" y="1410" type="curve" smooth="yes"/>
      <point x="481" y="1426"/>
      <point x="471" y="1432"/>
      <point x="453" y="1432" type="curve" smooth="yes"/>
      <point x="420" y="1432"/>
      <point x="399" y="1411"/>
      <point x="391" y="1379" type="curve" smooth="yes"/>
      <point x="200" y="611" type="line" smooth="yes"/>
      <point x="193" y="583"/>
      <point x="196" y="564"/>
      <point x="213" y="564" type="curve" smooth="yes"/>
      <point x="235" y="564"/>
      <point x="253" y="582"/>
      <point x="277" y="609" type="curve" smooth="yes"/>
      <point x="384" y="729"/>
      <point x="491" y="784"/>
      <point x="594" y="784" type="curve" smooth="yes"/>
      <point x="766" y="784"/>
      <point x="854" y="662"/>
      <point x="797" y="433" type="curve" smooth="yes"/>
      <point x="732" y="172"/>
      <point x="566" y="40"/>
      <point x="391" y="40" type="curve" smooth="yes"/>
      <point x="212" y="40"/>
      <point x="140" y="121"/>
      <point x="169" y="241" type="curve" smooth="yes"/>
      <point x="186" y="309" type="line" smooth="yes"/>
      <point x="199" y="357"/>
      <point x="190" y="382"/>
      <point x="157" y="382" type="curve" smooth="yes"/>
      <point x="124" y="382"/>
      <point x="94" y="350"/>
    </contour>
  </outline>
</glyph>
<glyph name="six" format="2">
  <advance width="957"/>
  <unicode hex="0036"/>
  <outline>
    <contour>
      <point x="795" y="1418" type="curve" smooth="yes"/>
      <point x="517" y="1418"/>
      <point x="259" y="1201"/>
      <point x="125" y="658" type="curve" smooth="yes"/>
      <point x="17" y="221"/>
      <point x="120" y="-18"/>
      <point x="396" y="-18" type="curve" smooth="yes"/>
      <point x="626" y="-18"/>
      <point x="825" y="145"/>
      <point x="893" y="418" type="curve" smooth="yes"/>
      <point x="955" y="661"/>
      <point x="860" y="837"/>
      <point x="620" y="837" type="curve" smooth="yes"/>
      <point x="399" y="837"/>
      <point x="166" y="635"/>
      <point x="108" y="403" type="curve"/>
      <point x="141" y="385" type="line"/>
      <point x="190" y="585"/>
      <point x="395" y="773"/>
      <point x="587" y="773" type="curve" smooth="yes"/>
      <point x="784" y="773"/>
      <point x="879" y="647"/>
      <point x="821" y="409" type="curve" smooth="yes"/>
      <point x="765" y="182"/>
      <point x="607" y="38"/>
      <point x="420" y="38" type="curve" smooth="yes"/>
      <point x="197" y="38"/>
      <point x="86" y="222"/>
      <point x="201" y="687" type="curve" smooth="yes"/>
      <point x="325" y="1190"/>
      <point x="572" y="1359"/>
      <point x="771" y="1359" type="curve" smooth="yes"/>
      <point x="917" y="1359"/>
      <point x="965" y="1287"/>
      <point x="938" y="1175" type="curve" smooth="yes"/>
      <point x="923" y="1116" type="line" smooth="yes"/>
      <point x="911" y="1070"/>
      <point x="920" y="1047"/>
      <point x="952" y="1047" type="curve" smooth="yes"/>
      <point x="987" y="1047"/>
      <point x="1014" y="1080"/>
      <point x="1030" y="1141" type="curve" smooth="yes"/>
      <point x="1067" y="1290"/>
      <point x="982" y="1418"/>
    </contour>
  </outline>
</glyph>
<glyph name="seven" format="2">
  <advance width="883"/>
  <unicode hex="0037"/>
  <outline>
    <contour>
      <point x="1055" y="1358" type="line"/>
      <point x="689" y="883" type="line" smooth="yes"/>
      <point x="453" y="579"/>
      <point x="307" y="388"/>
      <point x="253" y="173" type="curve" smooth="yes"/>
      <point x="222" y="46"/>
      <point x="239" y="-18"/>
      <point x="289" y="-18" type="curve" smooth="yes"/>
      <point x="327" y="-18"/>
      <point x="354" y="2"/>
      <point x="365" y="46" type="curve" smooth="yes"/>
      <point x="379" y="100"/>
      <point x="324" y="168"/>
      <point x="346" y="256" type="curve" smooth="yes"/>
      <point x="385" y="410"/>
      <point x="520" y="588"/>
      <point x="733" y="863" type="curve" smooth="yes"/>
      <point x="1071" y="1302" type="line" smooth="yes"/>
      <point x="1091" y="1326"/>
      <point x="1100" y="1341"/>
      <point x="1104" y="1362" type="curve" smooth="yes"/>
      <point x="1111" y="1385"/>
      <point x="1103" y="1400"/>
      <point x="1067" y="1400" type="curve" smooth="yes"/>
      <point x="411" y="1400" type="line" smooth="yes"/>
      <point x="370" y="1400"/>
      <point x="350" y="1381"/>
      <point x="335" y="1344" type="curve" smooth="yes"/>
      <point x="266" y="1159" type="line" smooth="yes"/>
      <point x="253" y="1127"/>
      <point x="260" y="1116"/>
      <point x="275" y="1115" type="curve" smooth="yes"/>
      <point x="288" y="1114"/>
      <point x="299" y="1125"/>
      <point x="308" y="1144" type="curve" smooth="yes"/>
      <point x="368" y="1265" type="line" smooth="yes"/>
      <point x="391" y="1312"/>
      <point x="410" y="1333"/>
      <point x="449" y="1333" type="curve" smooth="yes"/>
      <point x="1055" y="1333" type="line"/>
    </contour>
  </outline>
</glyph>
<glyph name="eight" format="2">
  <advance width="1048"/>
  <unicode hex="0038"/>
  <outline>
    <contour>
      <point x="409" y="-19" type="curve" smooth="yes"/>
      <point x="637" y="-19"/>
      <point x="803" y="104"/>
      <point x="859" y="314" type="curve" smooth="yes"/>
      <point x="898" y="459"/>
      <point x="839" y="587"/>
      <point x="604" y="675" type="curve" smooth="yes"/>
      <point x="377" y="761"/>
      <point x="363" y="900"/>
      <point x="400" y="1041" type="curve" smooth="yes"/>
      <point x="448" y="1220"/>
      <point x="610" y="1363"/>
      <point x="781" y="1363" type="curve" smooth="yes"/>
      <point x="955" y="1363"/>
      <point x="1049" y="1241"/>
      <point x="989" y="1016" type="curve" smooth="yes"/>
      <point x="948" y="865"/>
      <point x="815" y="734"/>
      <point x="632" y="645" type="curve"/>
      <point x="654" y="610" type="line"/>
      <point x="853" y="693"/>
      <point x="1014" y="846"/>
      <point x="1068" y="1048" type="curve" smooth="yes"/>
      <point x="1119" y="1239"/>
      <point x="1052" y="1419"/>
      <point x="818" y="1419" type="curve" smooth="yes"/>
      <point x="596" y="1419"/>
      <point x="389" y="1257"/>
      <point x="327" y="1021" type="curve" smooth="yes"/>
      <point x="276" y="829"/>
      <point x="332" y="689"/>
      <point x="565" y="609" type="curve" smooth="yes"/>
      <point x="786" y="533"/>
      <point x="821" y="426"/>
      <point x="784" y="287" type="curve" smooth="yes"/>
      <point x="743" y="132"/>
      <point x="617" y="38"/>
      <point x="443" y="38" type="curve" smooth="yes"/>
      <point x="243" y="38"/>
      <point x="164" y="138"/>
      <point x="213" y="322" type="curve" smooth="yes"/>
      <point x="245" y="445"/>
      <point x="341" y="565"/>
      <point x="538" y="638" type="curve"/>
      <point x="532" y="677" type="line"/>
      <point x="328" y="618"/>
      <point x="183" y="464"/>
      <point x="136" y="289" type="curve" smooth="yes"/>
      <point x="87" y="99"/>
      <point x="166" y="-19"/>
    </contour>
  </outline>
</glyph>
<glyph name="nine" format="2">
  <advance width="1089"/>
  <unicode hex="0039"/>
  <outline>
    <contour>
      <point x="396" y="-18" type="curve" smooth="yes"/>
      <point x="660" y="-18"/>
      <point x="916" y="201"/>
      <point x="1071" y="777" type="curve" smooth="yes"/>
      <point x="1185" y="1200"/>
      <point x="1079" y="1418"/>
      <point x="832" y="1418" type="curve" smooth="yes"/>
      <point x="586" y="1418"/>
      <point x="367" y="1244"/>
      <point x="292" y="962" type="curve" smooth="yes"/>
      <point x="227" y="719"/>
      <point x="327" y="563"/>
      <point x="574" y="563" type="curve" smooth="yes"/>
      <point x="800" y="563"/>
      <point x="1021" y="760"/>
      <point x="1082" y="988" type="curve"/>
      <point x="1049" y="1005" type="line"/>
      <point x="997" y="811"/>
      <point x="803" y="628"/>
      <point x="606" y="628" type="curve" smooth="yes"/>
      <point x="414" y="628"/>
      <point x="306" y="753"/>
      <point x="371" y="992" type="curve" smooth="yes"/>
      <point x="427" y="1205"/>
      <point x="604" y="1354"/>
      <point x="797" y="1354" type="curve" smooth="yes"/>
      <point x="1011" y="1354"/>
      <point x="1117" y="1196"/>
      <point x="995" y="744" type="curve" smooth="yes"/>
      <point x="848" y="197"/>
      <point x="617" y="47"/>
      <point x="431" y="47" type="curve" smooth="yes"/>
      <point x="281" y="47"/>
      <point x="201" y="115"/>
      <point x="228" y="215" type="curve" smooth="yes"/>
      <point x="247" y="284" type="line" smooth="yes"/>
      <point x="258" y="329"/>
      <point x="238" y="355"/>
      <point x="208" y="355" type="curve" smooth="yes"/>
      <point x="171" y="355"/>
      <point x="131" y="316"/>
      <point x="115" y="255" type="curve" smooth="yes"/>
      <point x="73" y="101"/>
      <point x="159" y="-18"/>
    </contour>
  </outline>
</glyph>
<glyph name="question" format="2">
  <advance width="726"/>
  <unicode hex="003F"/>
  <outline>
    <contour>
      <point x="342" y="686" type="line" smooth="yes"/>
      <point x="350" y="723"/>
      <point x="370" y="753"/>
      <point x="396" y="765" type="curve" smooth="yes"/>
      <point x="478" y="802" type="line" smooth="yes"/>
      <point x="659" y="887"/>
      <point x="736" y="1003"/>
      <point x="768" y="1123" type="curve" smooth="yes"/>
      <point x="814" y="1292"/>
      <point x="734" y="1379"/>
      <point x="603" y="1379" type="curve" smooth="yes"/>
      <point x="479" y="1379"/>
      <point x="386" y="1319"/>
      <point x="353" y="1191" type="curve" smooth="yes"/>
      <point x="341" y="1150" type="line" smooth="yes"/>
      <point x="332" y="1117"/>
      <point x="304" y="1098"/>
      <point x="270" y="1098" type="curve" smooth="yes"/>
      <point x="239" y="1098"/>
      <point x="224" y="1126"/>
      <point x="234" y="1163" type="curve" smooth="yes"/>
      <point x="271" y="1302"/>
      <point x="452" y="1438"/>
      <point x="621" y="1438" type="curve" smooth="yes"/>
      <point x="789" y="1438"/>
      <point x="888" y="1320"/>
      <point x="835" y="1124" type="curve" smooth="yes"/>
      <point x="796" y="981"/>
      <point x="700" y="841"/>
      <point x="526" y="768" type="curve" smooth="yes"/>
      <point x="461" y="742" type="line" smooth="yes"/>
      <point x="434" y="731"/>
      <point x="416" y="709"/>
      <point x="405" y="670" type="curve" smooth="yes"/>
      <point x="344" y="478" type="line" smooth="yes"/>
      <point x="338" y="456"/>
      <point x="326" y="444"/>
      <point x="312" y="444" type="curve" smooth="yes"/>
      <point x="298" y="444"/>
      <point x="291" y="456"/>
      <point x="297" y="478" type="curve" smooth="yes"/>
    </contour>
    <component base="period" xScale="0.93" yxScale="0.01875644347017863" xOffset="75" yOffset="-8"/>
  </outline>
</glyph>
<glyph name="A" format="2">
  <advance width="1089"/>
  <unicode hex="0041"/>
  <anchor x="1115" y="1532" name="center"/>
  <outline>
    <contour>
      <point x="157" y="156" type="curve" smooth="yes"/>
      <point x="700" y="1041" type="line" smooth="yes"/>
      <point x="780" y="1169"/>
      <point x="844" y="1258"/>
      <point x="872" y="1288" type="curve"/>
      <point x="858" y="1305" type="line"/>
      <point x="850" y="1013"/>
      <point x="832" y="381"/>
      <point x="821" y="135" type="curve" smooth="yes"/>
      <point x="818" y="91"/>
      <point x="795" y="70"/>
      <point x="756" y="62" type="curve" smooth="yes"/>
      <point x="683" y="43" type="line" smooth="yes"/>
      <point x="671" y="40"/>
      <point x="660" y="31"/>
      <point x="660" y="21" type="curve" smooth="yes"/>
      <point x="660" y="7"/>
      <point x="672" y="0"/>
      <point x="684" y="0" type="curve" smooth="yes"/>
      <point x="981" y="0" type="line" smooth="yes"/>
      <point x="1004" y="0"/>
      <point x="1012" y="9"/>
      <point x="1012" y="23" type="curve" smooth="yes"/>
      <point x="1012" y="35"/>
      <point x="1003" y="44"/>
      <point x="984" y="45" type="curve" smooth="yes"/>
      <point x="924" y="53"/>
      <point x="885" y="73"/>
      <point x="886" y="125" type="curve" smooth="yes"/>
      <point x="890" y="380"/>
      <point x="911" y="998"/>
      <point x="918" y="1282" type="curve" smooth="yes"/>
      <point x="919" y="1331"/>
      <point x="941" y="1357"/>
      <point x="981" y="1360" type="curve" smooth="yes"/>
      <point x="1000" y="1360"/>
      <point x="1013" y="1374"/>
      <point x="1013" y="1389" type="curve" smooth="yes"/>
      <point x="1013" y="1403"/>
      <point x="1003" y="1409"/>
      <point x="984" y="1409" type="curve" smooth="yes"/>
      <point x="903" y="1409"/>
      <point x="808" y="1301"/>
      <point x="667" y="1076" type="curve" smooth="yes"/>
      <point x="87" y="142" type="line" smooth="yes"/>
      <point x="53" y="90"/>
      <point x="13" y="66"/>
      <point x="-28" y="59" type="curve" smooth="yes"/>
      <point x="-56" y="55"/>
      <point x="-73" y="47"/>
      <point x="-74" y="29" type="curve" smooth="yes"/>
      <point x="-73" y="9"/>
      <point x="-59" y="0"/>
      <point x="-28" y="0" type="curve" smooth="yes"/>
      <point x="236" y="0" type="line" smooth="yes"/>
      <point x="259" y="0"/>
      <point x="272" y="9"/>
      <point x="272" y="25" type="curve" smooth="yes"/>
      <point x="272" y="40"/>
      <point x="263" y="52"/>
      <point x="241" y="53" type="curve" smooth="yes"/>
      <point x="168" y="64" type="line" smooth="yes"/>
      <point x="128" y="69"/>
      <point x="124" y="105"/>
    </contour>
    <contour>
      <point x="321" y="501" type="line"/>
      <point x="869" y="501" type="line"/>
      <point x="873" y="546" type="line"/>
      <point x="350" y="546" type="line"/>
    </contour>
  </outline>
</glyph>
<glyph name="B" format="2">
  <advance width="1104"/>
  <unicode hex="0042"/>
  <outline>
    <contour>
      <point x="539" y="1288" type="curve" smooth="yes"/>
      <point x="549" y="1324"/>
      <point x="604" y="1347"/>
      <point x="716" y="1347" type="curve" smooth="yes"/>
      <point x="887" y="1347"/>
      <point x="1006" y="1247"/>
      <point x="1006" y="1054" type="curve" smooth="yes"/>
      <point x="1006" y="834"/>
      <point x="810" y="672"/>
      <point x="579" y="672" type="curve" smooth="yes"/>
      <point x="359" y="672" type="line"/>
      <point x="337" y="625" type="line"/>
      <point x="624" y="625" type="line" smooth="yes"/>
      <point x="808" y="625"/>
      <point x="920" y="543"/>
      <point x="920" y="410" type="curve" smooth="yes"/>
      <point x="920" y="200"/>
      <point x="707" y="46"/>
      <point x="452" y="46" type="curve" smooth="yes"/>
      <point x="278" y="46"/>
      <point x="241" y="73"/>
      <point x="250" y="118" type="curve" smooth="yes"/>
      <point x="276" y="278"/>
      <point x="454" y="982"/>
    </contour>
    <contour>
      <point x="397" y="1400" type="line" smooth="yes"/>
      <point x="348" y="1400"/>
      <point x="331" y="1385"/>
      <point x="331" y="1369" type="curve" smooth="yes"/>
      <point x="331" y="1358"/>
      <point x="345" y="1353"/>
      <point x="367" y="1350" type="curve" smooth="yes"/>
      <point x="427" y="1342" type="line" smooth="yes"/>
      <point x="452" y="1339"/>
      <point x="471" y="1324"/>
      <point x="465" y="1289" type="curve" smooth="yes"/>
      <point x="454" y="1212"/>
      <point x="328" y="669"/>
      <point x="177" y="125" type="curve" smooth="yes"/>
      <point x="168" y="93"/>
      <point x="133" y="65"/>
      <point x="83" y="53" type="curve" smooth="yes"/>
      <point x="38" y="44" type="line" smooth="yes"/>
      <point x="-7" y="36"/>
      <point x="-27" y="27"/>
      <point x="-27" y="19" type="curve" smooth="yes"/>
      <point x="-27" y="7"/>
      <point x="-16" y="0"/>
      <point x="9" y="0" type="curve" smooth="yes"/>
      <point x="438" y="0" type="line" smooth="yes"/>
      <point x="772" y="0"/>
      <point x="990" y="189"/>
      <point x="990" y="404" type="curve" smooth="yes"/>
      <point x="990" y="552"/>
      <point x="875" y="664"/>
      <point x="619" y="664" type="curve"/>
      <point x="619" y="644" type="line"/>
      <point x="873" y="644"/>
      <point x="1077" y="817"/>
      <point x="1077" y="1061" type="curve" smooth="yes"/>
      <point x="1077" y="1284"/>
      <point x="930" y="1400"/>
      <point x="667" y="1400" type="curve" smooth="yes"/>
    </contour>
  </outline>
</glyph>
<glyph name="C" format="2">
  <advance width="1109"/>
  <unicode hex="0043"/>
  <outline>
    <contour>
      <point x="1050" y="369" type="curve" smooth="yes"/>
      <point x="1033" y="379"/>
      <point x="1018" y="367"/>
      <point x="1005" y="344" type="curve" smooth="yes"/>
      <point x="888" y="127"/>
      <point x="734" y="21"/>
      <point x="529" y="21" type="curve" smooth="yes"/>
      <point x="289" y="21"/>
      <point x="141" y="256"/>
      <point x="192" y="614" type="curve" smooth="yes"/>
      <point x="247" y="999"/>
      <point x="512" y="1382"/>
      <point x="859" y="1382" type="curve" smooth="yes"/>
      <point x="1023" y="1382"/>
      <point x="1110" y="1311"/>
      <point x="1147" y="1181" type="curve" smooth="yes"/>
      <point x="1171" y="1100" type="line" smooth="yes"/>
      <point x="1174" y="1091"/>
      <point x="1183" y="1083"/>
      <point x="1196" y="1083" type="curve" smooth="yes"/>
      <point x="1211" y="1083"/>
      <point x="1226" y="1098"/>
      <point x="1221" y="1113" type="curve" smooth="yes"/>
      <point x="1177" y="1393" type="line" smooth="yes"/>
      <point x="1173" y="1416"/>
      <point x="1168" y="1430"/>
      <point x="1149" y="1430" type="curve" smooth="yes"/>
      <point x="1117" y="1430"/>
      <point x="1107" y="1386"/>
      <point x="1083" y="1386" type="curve" smooth="yes"/>
      <point x="1063" y="1386"/>
      <point x="1005" y="1430"/>
      <point x="882" y="1430" type="curve" smooth="yes"/>
      <point x="484" y="1430"/>
      <point x="178" y="1028"/>
      <point x="124" y="623" type="curve" smooth="yes"/>
      <point x="71" y="226"/>
      <point x="229" y="-30"/>
      <point x="520" y="-30" type="curve" smooth="yes"/>
      <point x="761" y="-30"/>
      <point x="943" y="104"/>
      <point x="1046" y="311" type="curve" smooth="yes"/>
      <point x="1058" y="334"/>
      <point x="1063" y="362"/>
    </contour>
  </outline>
</glyph>
<glyph name="D" format="2">
  <advance width="1294"/>
  <unicode hex="0044"/>
  <outline>
    <contour>
      <point x="-7" y="20" type="curve" smooth="yes"/>
      <point x="-8" y="8"/>
      <point x="-1" y="0"/>
      <point x="16" y="0" type="curve" smooth="yes"/>
      <point x="451" y="0" type="line" smooth="yes"/>
      <point x="887" y="0"/>
      <point x="1220" y="239"/>
      <point x="1292" y="701" type="curve" smooth="yes"/>
      <point x="1354" y="1092"/>
      <point x="1104" y="1400"/>
      <point x="788" y="1400" type="curve" smooth="yes"/>
      <point x="398" y="1400" type="line" smooth="yes"/>
      <point x="368" y="1400"/>
      <point x="357" y="1394"/>
      <point x="357" y="1381" type="curve" smooth="yes"/>
      <point x="358" y="1364"/>
      <point x="365" y="1359"/>
      <point x="399" y="1352" type="curve" smooth="yes"/>
      <point x="446" y="1342" type="line" smooth="yes"/>
      <point x="487" y="1333"/>
      <point x="499" y="1307"/>
      <point x="488" y="1253" type="curve" smooth="yes"/>
      <point x="461" y="1134"/>
      <point x="207" y="202"/>
      <point x="186" y="146" type="curve" smooth="yes"/>
      <point x="163" y="87"/>
      <point x="126" y="58"/>
      <point x="94" y="55" type="curve" smooth="yes"/>
      <point x="37" y="47" type="line" smooth="yes"/>
      <point x="3" y="42"/>
      <point x="-7" y="37"/>
    </contour>
    <contour>
      <point x="461" y="56" type="curve" smooth="yes"/>
      <point x="293" y="56" type="line" smooth="yes"/>
      <point x="255" y="56"/>
      <point x="245" y="69"/>
      <point x="248" y="99" type="curve" smooth="yes"/>
      <point x="257" y="171"/>
      <point x="545" y="1210"/>
      <point x="574" y="1308" type="curve" smooth="yes"/>
      <point x="581" y="1331"/>
      <point x="603" y="1354"/>
      <point x="638" y="1354" type="curve" smooth="yes"/>
      <point x="778" y="1354" type="line" smooth="yes"/>
      <point x="1040" y="1354"/>
      <point x="1283" y="1091"/>
      <point x="1227" y="705" type="curve" smooth="yes"/>
      <point x="1172" y="317"/>
      <point x="873" y="56"/>
    </contour>
  </outline>
</glyph>
<glyph name="E" format="2">
  <advance width="1056"/>
  <unicode hex="0045"/>
  <anchor x="852" y="1470" name="center"/>
  <outline>
    <contour>
      <point x="358" y="708" type="line"/>
      <point x="345" y="663" type="line"/>
      <point x="746" y="663" type="line" smooth="yes"/>
      <point x="797" y="663"/>
      <point x="820" y="647"/>
      <point x="844" y="556" type="curve" smooth="yes"/>
      <point x="851" y="532"/>
      <point x="862" y="522"/>
      <point x="877" y="522" type="curve" smooth="yes"/>
      <point x="890" y="522"/>
      <point x="903" y="536"/>
      <point x="897" y="562" type="curve" smooth="yes"/>
      <point x="837" y="844" type="line" smooth="yes"/>
      <point x="836" y="854"/>
      <point x="828" y="865"/>
      <point x="810" y="865" type="curve" smooth="yes"/>
      <point x="797" y="865"/>
      <point x="789" y="856"/>
      <point x="791" y="836" type="curve" smooth="yes"/>
      <point x="806" y="734"/>
      <point x="785" y="708"/>
      <point x="731" y="708" type="curve" smooth="yes"/>
    </contour>
    <contour>
      <point x="668" y="0" type="line" smooth="yes"/>
      <point x="702" y="0"/>
      <point x="716" y="-30"/>
      <point x="739" y="-30" type="curve" smooth="yes"/>
      <point x="839" y="-30"/>
      <point x="949" y="135"/>
      <point x="949" y="273" type="curve" smooth="yes"/>
      <point x="949" y="286"/>
      <point x="942" y="294"/>
      <point x="931" y="294" type="curve" smooth="yes"/>
      <point x="925" y="294"/>
      <point x="914" y="287"/>
      <point x="911" y="277" type="curve" smooth="yes"/>
      <point x="860" y="105"/>
      <point x="774" y="45"/>
      <point x="645" y="45" type="curve" smooth="yes"/>
      <point x="299" y="45" type="line" smooth="yes"/>
      <point x="256" y="45"/>
      <point x="233" y="79"/>
      <point x="248" y="134" type="curve" smooth="yes"/>
      <point x="266" y="208"/>
      <point x="478" y="1073"/>
      <point x="553" y="1359" type="curve"/>
      <point x="911" y="1359" type="line" smooth="yes"/>
      <point x="972" y="1359"/>
      <point x="1020" y="1330"/>
      <point x="1076" y="1193" type="curve" smooth="yes"/>
      <point x="1087" y="1167"/>
      <point x="1097" y="1152"/>
      <point x="1115" y="1152" type="curve" smooth="yes"/>
      <point x="1130" y="1152"/>
      <point x="1143" y="1166"/>
      <point x="1136" y="1195" type="curve" smooth="yes"/>
      <point x="1083" y="1406" type="line" smooth="yes"/>
      <point x="1076" y="1432"/>
      <point x="1071" y="1441"/>
      <point x="1053" y="1441" type="curve" smooth="yes"/>
      <point x="1026" y="1441"/>
      <point x="998" y="1400"/>
      <point x="958" y="1400" type="curve" smooth="yes"/>
      <point x="385" y="1400" type="line" smooth="yes"/>
      <point x="366" y="1400"/>
      <point x="353" y="1393"/>
      <point x="353" y="1377" type="curve" smooth="yes"/>
      <point x="353" y="1367"/>
      <point x="364" y="1356"/>
      <point x="385" y="1352" type="curve" smooth="yes"/>
      <point x="441" y="1342" type="line" smooth="yes"/>
      <point x="471" y="1337"/>
      <point x="478" y="1297"/>
      <point x="469" y="1254" type="curve" smooth="yes"/>
      <point x="433" y="1105"/>
      <point x="204" y="213"/>
      <point x="182" y="137" type="curve" smooth="yes"/>
      <point x="168" y="88"/>
      <point x="139" y="71"/>
      <point x="94" y="62" type="curve" smooth="yes"/>
      <point x="25" y="48" type="line" smooth="yes"/>
      <point x="5" y="44"/>
      <point x="-8" y="38"/>
      <point x="-8" y="23" type="curve" smooth="yes"/>
      <point x="-8" y="11"/>
      <point x="0" y="0"/>
      <point x="19" y="0" type="curve" smooth="yes"/>
    </contour>
  </outline>
</glyph>
<glyph name="F" format="2">
  <advance width="976"/>
  <unicode hex="0046"/>
  <outline>
    <contour>
      <point x="374" y="1381" type="curve" smooth="yes"/>
      <point x="371" y="1361"/>
      <point x="387" y="1356"/>
      <point x="418" y="1350" type="curve" smooth="yes"/>
      <point x="454" y="1342" type="line" smooth="yes"/>
      <point x="486" y="1335"/>
      <point x="500" y="1313"/>
      <point x="492" y="1276" type="curve" smooth="yes"/>
      <point x="424" y="991"/>
      <point x="289" y="503"/>
      <point x="184" y="143" type="curve" smooth="yes"/>
      <point x="170" y="96"/>
      <point x="143" y="72"/>
      <point x="99" y="64" type="curve" smooth="yes"/>
      <point x="65" y="58" type="line" smooth="yes"/>
      <point x="13" y="49"/>
      <point x="-2" y="44"/>
      <point x="-4" y="25" type="curve" smooth="yes"/>
      <point x="-6" y="7"/>
      <point x="5" y="0"/>
      <point x="27" y="0" type="curve" smooth="yes"/>
      <point x="333" y="0" type="line" smooth="yes"/>
      <point x="385" y="0"/>
      <point x="399" y="13"/>
      <point x="400" y="29" type="curve" smooth="yes"/>
      <point x="400" y="44"/>
      <point x="381" y="52"/>
      <point x="334" y="59" type="curve" smooth="yes"/>
      <point x="298" y="64" type="line" smooth="yes"/>
      <point x="249" y="72"/>
      <point x="240" y="94"/>
      <point x="250" y="132" type="curve" smooth="yes"/>
      <point x="316" y="397"/>
      <point x="472" y="972"/>
      <point x="582" y="1359" type="curve"/>
      <point x="928" y="1359" type="line" smooth="yes"/>
      <point x="1008" y="1359"/>
      <point x="1052" y="1316"/>
      <point x="1073" y="1264" type="curve" smooth="yes"/>
      <point x="1089" y="1223" type="line" smooth="yes"/>
      <point x="1106" y="1178"/>
      <point x="1114" y="1155"/>
      <point x="1140" y="1155" type="curve" smooth="yes"/>
      <point x="1158" y="1155"/>
      <point x="1167" y="1170"/>
      <point x="1159" y="1199" type="curve" smooth="yes"/>
      <point x="1108" y="1417" type="line" smooth="yes"/>
      <point x="1103" y="1435"/>
      <point x="1096" y="1442"/>
      <point x="1082" y="1442" type="curve" smooth="yes"/>
      <point x="1049" y="1442"/>
      <point x="1027" y="1400"/>
      <point x="982" y="1400" type="curve" smooth="yes"/>
      <point x="419" y="1400" type="line" smooth="yes"/>
      <point x="396" y="1400"/>
      <point x="378" y="1397"/>
    </contour>
    <contour>
      <point x="364" y="666" type="line"/>
      <point x="349" y="621" type="line"/>
      <point x="749" y="621" type="line" smooth="yes"/>
      <point x="810" y="621"/>
      <point x="824" y="599"/>
      <point x="843" y="528" type="curve" smooth="yes"/>
      <point x="853" y="491"/>
      <point x="864" y="479"/>
      <point x="879" y="479" type="curve" smooth="yes"/>
      <point x="892" y="479"/>
      <point x="907" y="492"/>
      <point x="902" y="517" type="curve" smooth="yes"/>
      <point x="850" y="793" type="line" smooth="yes"/>
      <point x="847" y="809"/>
      <point x="838" y="822"/>
      <point x="821" y="822" type="curve" smooth="yes"/>
      <point x="806" y="822"/>
      <point x="800" y="806"/>
      <point x="804" y="781" type="curve" smooth="yes"/>
      <point x="816" y="688"/>
      <point x="787" y="666"/>
      <point x="735" y="666" type="curve" smooth="yes"/>
    </contour>
  </outline>
</glyph>
<glyph name="G" format="2">
  <advance width="1168"/>
  <unicode hex="0047"/>
  <anchor x="962" y="1566" name="center"/>
  <outline>
    <contour>
      <point x="875" y="1428" type="curve" smooth="yes"/>
      <point x="527" y="1428"/>
      <point x="214" y="1095"/>
      <point x="127" y="671" type="curve" smooth="yes"/>
      <point x="40" y="240"/>
      <point x="210" y="-34"/>
      <point x="512" y="-34" type="curve" smooth="yes"/>
      <point x="715" y="-34"/>
      <point x="804" y="40"/>
      <point x="836" y="40" type="curve" smooth="yes"/>
      <point x="861" y="40"/>
      <point x="828" y="-34"/>
      <point x="861" y="-34" type="curve" smooth="yes"/>
      <point x="882" y="-34"/>
      <point x="897" y="-26"/>
      <point x="906" y="8" type="curve" smooth="yes"/>
      <point x="1045" y="482" type="line" smooth="yes"/>
      <point x="1052" y="504"/>
      <point x="1070" y="523"/>
      <point x="1108" y="528" type="curve" smooth="yes"/>
      <point x="1144" y="534" type="line" smooth="yes"/>
      <point x="1175" y="537"/>
      <point x="1189" y="550"/>
      <point x="1190" y="562" type="curve" smooth="yes"/>
      <point x="1192" y="583"/>
      <point x="1186" y="588"/>
      <point x="1162" y="588" type="curve" smooth="yes"/>
      <point x="869" y="588" type="line" smooth="yes"/>
      <point x="846" y="588"/>
      <point x="832" y="583"/>
      <point x="832" y="564" type="curve" smooth="yes"/>
      <point x="832" y="547"/>
      <point x="841" y="534"/>
      <point x="863" y="533" type="curve" smooth="yes"/>
      <point x="924" y="528" type="line" smooth="yes"/>
      <point x="971" y="523"/>
      <point x="984" y="495"/>
      <point x="968" y="435" type="curve" smooth="yes"/>
      <point x="906" y="217" type="line" smooth="yes"/>
      <point x="868" y="81"/>
      <point x="735" y="17"/>
      <point x="542" y="17" type="curve" smooth="yes"/>
      <point x="281" y="17"/>
      <point x="112" y="249"/>
      <point x="199" y="665" type="curve" smooth="yes"/>
      <point x="286" y="1087"/>
      <point x="558" y="1381"/>
      <point x="879" y="1381" type="curve" smooth="yes"/>
      <point x="1016" y="1381"/>
      <point x="1118" y="1333"/>
      <point x="1179" y="1166" type="curve" smooth="yes"/>
      <point x="1200" y="1108" type="line" smooth="yes"/>
      <point x="1203" y="1100"/>
      <point x="1215" y="1084"/>
      <point x="1227" y="1084" type="curve" smooth="yes"/>
      <point x="1241" y="1084"/>
      <point x="1255" y="1092"/>
      <point x="1251" y="1114" type="curve" smooth="yes"/>
      <point x="1211" y="1379" type="line" smooth="yes"/>
      <point x="1206" y="1413"/>
      <point x="1194" y="1426"/>
      <point x="1174" y="1426" type="curve" smooth="yes"/>
      <point x="1151" y="1426"/>
      <point x="1137" y="1385"/>
      <point x="1106" y="1385" type="curve" smooth="yes"/>
      <point x="1082" y="1385"/>
      <point x="984" y="1428"/>
    </contour>
  </outline>
</glyph>
<glyph name="H" format="2">
  <advance width="1356"/>
  <unicode hex="0048"/>
  <outline>
    <contour>
      <point x="352" y="670" type="line"/>
      <point x="338" y="620" type="line"/>
      <point x="1118" y="620" type="line"/>
      <point x="1134" y="670" type="line"/>
    </contour>
    <contour>
      <point x="254" y="155" type="curve" smooth="yes"/>
      <point x="267" y="232"/>
      <point x="485" y="1104"/>
      <point x="533" y="1268" type="curve" smooth="yes"/>
      <point x="545" y="1310"/>
      <point x="571" y="1332"/>
      <point x="622" y="1342" type="curve" smooth="yes"/>
      <point x="679" y="1354" type="line" smooth="yes"/>
      <point x="715" y="1361"/>
      <point x="726" y="1369"/>
      <point x="726" y="1385" type="curve" smooth="yes"/>
      <point x="726" y="1397"/>
      <point x="718" y="1400"/>
      <point x="695" y="1400" type="curve" smooth="yes"/>
      <point x="388" y="1400" type="line" smooth="yes"/>
      <point x="349" y="1400"/>
      <point x="330" y="1398"/>
      <point x="330" y="1384" type="curve" smooth="yes"/>
      <point x="330" y="1365"/>
      <point x="338" y="1358"/>
      <point x="368" y="1352" type="curve" smooth="yes"/>
      <point x="417" y="1342" type="line" smooth="yes"/>
      <point x="465" y="1332"/>
      <point x="469" y="1304"/>
      <point x="458" y="1245" type="curve" smooth="yes"/>
      <point x="433" y="1105"/>
      <point x="213" y="237"/>
      <point x="186" y="154" type="curve" smooth="yes"/>
      <point x="169" y="100"/>
      <point x="136" y="61"/>
      <point x="84" y="54" type="curve" smooth="yes"/>
      <point x="29" y="46" type="line" smooth="yes"/>
      <point x="0" y="42"/>
      <point x="-11" y="31"/>
      <point x="-9" y="19" type="curve" smooth="yes"/>
      <point x="-9" y="5"/>
      <point x="-2" y="0"/>
      <point x="24" y="0" type="curve" smooth="yes"/>
      <point x="338" y="0" type="line" smooth="yes"/>
      <point x="358" y="0"/>
      <point x="377" y="4"/>
      <point x="377" y="16" type="curve" smooth="yes"/>
      <point x="377" y="33"/>
      <point x="369" y="42"/>
      <point x="341" y="48" type="curve" smooth="yes"/>
      <point x="297" y="55" type="line" smooth="yes"/>
      <point x="251" y="63"/>
      <point x="243" y="92"/>
    </contour>
    <contour>
      <point x="1039" y="155" type="curve" smooth="yes"/>
      <point x="1051" y="226"/>
      <point x="1270" y="1103"/>
      <point x="1318" y="1268" type="curve" smooth="yes"/>
      <point x="1329" y="1310"/>
      <point x="1355" y="1332"/>
      <point x="1406" y="1342" type="curve" smooth="yes"/>
      <point x="1464" y="1354" type="line" smooth="yes"/>
      <point x="1500" y="1362"/>
      <point x="1511" y="1369"/>
      <point x="1511" y="1385" type="curve" smooth="yes"/>
      <point x="1511" y="1397"/>
      <point x="1503" y="1400"/>
      <point x="1480" y="1400" type="curve" smooth="yes"/>
      <point x="1173" y="1400" type="line" smooth="yes"/>
      <point x="1134" y="1400"/>
      <point x="1115" y="1398"/>
      <point x="1115" y="1384" type="curve" smooth="yes"/>
      <point x="1115" y="1365"/>
      <point x="1123" y="1358"/>
      <point x="1153" y="1352" type="curve" smooth="yes"/>
      <point x="1202" y="1342" type="line" smooth="yes"/>
      <point x="1249" y="1332"/>
      <point x="1254" y="1304"/>
      <point x="1243" y="1245" type="curve" smooth="yes"/>
      <point x="1217" y="1104"/>
      <point x="997" y="235"/>
      <point x="970" y="154" type="curve" smooth="yes"/>
      <point x="953" y="100"/>
      <point x="921" y="61"/>
      <point x="869" y="54" type="curve" smooth="yes"/>
      <point x="814" y="46" type="line" smooth="yes"/>
      <point x="784" y="42"/>
      <point x="773" y="31"/>
      <point x="775" y="19" type="curve" smooth="yes"/>
      <point x="775" y="5"/>
      <point x="783" y="0"/>
      <point x="808" y="0" type="curve" smooth="yes"/>
      <point x="1123" y="0" type="line" smooth="yes"/>
      <point x="1143" y="0"/>
      <point x="1162" y="4"/>
      <point x="1162" y="16" type="curve" smooth="yes"/>
      <point x="1162" y="33"/>
      <point x="1154" y="42"/>
      <point x="1126" y="48" type="curve" smooth="yes"/>
      <point x="1082" y="55" type="line" smooth="yes"/>
      <point x="1036" y="63"/>
      <point x="1028" y="92"/>
    </contour>
  </outline>
</glyph>
<glyph name="I" format="2">
  <advance width="552"/>
  <unicode hex="0049"/>
  <outline>
    <contour>
      <point x="256" y="155" type="curve" smooth="yes"/>
      <point x="270" y="229"/>
      <point x="507" y="1101"/>
      <point x="557" y="1268" type="curve" smooth="yes"/>
      <point x="569" y="1310"/>
      <point x="595" y="1332"/>
      <point x="646" y="1342" type="curve" smooth="yes"/>
      <point x="706" y="1354" type="line" smooth="yes"/>
      <point x="740" y="1362"/>
      <point x="751" y="1369"/>
      <point x="751" y="1385" type="curve" smooth="yes"/>
      <point x="751" y="1397"/>
      <point x="745" y="1400"/>
      <point x="721" y="1400" type="curve" smooth="yes"/>
      <point x="415" y="1400" type="line" smooth="yes"/>
      <point x="376" y="1400"/>
      <point x="356" y="1398"/>
      <point x="355" y="1384" type="curve" smooth="yes"/>
      <point x="355" y="1365"/>
      <point x="364" y="1358"/>
      <point x="393" y="1352" type="curve" smooth="yes"/>
      <point x="443" y="1342" type="line" smooth="yes"/>
      <point x="489" y="1332"/>
      <point x="495" y="1304"/>
      <point x="482" y="1245" type="curve" smooth="yes"/>
      <point x="453" y="1101"/>
      <point x="216" y="240"/>
      <point x="187" y="154" type="curve" smooth="yes"/>
      <point x="170" y="100"/>
      <point x="137" y="61"/>
      <point x="84" y="54" type="curve" smooth="yes"/>
      <point x="30" y="46" type="line" smooth="yes"/>
      <point x="0" y="42"/>
      <point x="-12" y="31"/>
      <point x="-9" y="19" type="curve" smooth="yes"/>
      <point x="-9" y="5"/>
      <point x="-2" y="0"/>
      <point x="23" y="0" type="curve" smooth="yes"/>
      <point x="337" y="0" type="line" smooth="yes"/>
      <point x="357" y="0"/>
      <point x="376" y="4"/>
      <point x="377" y="16" type="curve" smooth="yes"/>
      <point x="377" y="33"/>
      <point x="368" y="42"/>
      <point x="341" y="48" type="curve" smooth="yes"/>
      <point x="297" y="55" type="line" smooth="yes"/>
      <point x="251" y="63"/>
      <point x="244" y="92"/>
    </contour>
  </outline>
</glyph>
<glyph name="J" format="2">
  <advance width="550"/>
  <unicode hex="004A"/>
  <outline>
    <contour>
      <point x="541" y="1252" type="curve" smooth="yes"/>
      <point x="559" y="1307"/>
      <point x="581" y="1326"/>
      <point x="634" y="1341" type="curve" smooth="yes"/>
      <point x="687" y="1356" type="line" smooth="yes"/>
      <point x="709" y="1362"/>
      <point x="723" y="1369"/>
      <point x="722" y="1385" type="curve" smooth="yes"/>
      <point x="722" y="1396"/>
      <point x="715" y="1400"/>
      <point x="692" y="1400" type="curve" smooth="yes"/>
      <point x="375" y="1400" type="line" smooth="yes"/>
      <point x="340" y="1400"/>
      <point x="327" y="1394"/>
      <point x="327" y="1380" type="curve" smooth="yes"/>
      <point x="327" y="1365"/>
      <point x="337" y="1356"/>
      <point x="363" y="1352" type="curve" smooth="yes"/>
      <point x="426" y="1343" type="line" smooth="yes"/>
      <point x="477" y="1336"/>
      <point x="484" y="1317"/>
      <point x="475" y="1258" type="curve" smooth="yes"/>
      <point x="460" y="1164"/>
      <point x="176" y="148"/>
      <point x="172" y="138" type="curve" smooth="yes"/>
      <point x="144" y="41"/>
      <point x="130" y="-22"/>
      <point x="130" y="-74" type="curve" smooth="yes"/>
      <point x="128" y="-199"/>
      <point x="81" y="-239"/>
      <point x="33" y="-239" type="curve" smooth="yes"/>
      <point x="-4" y="-239"/>
      <point x="-36" y="-201"/>
      <point x="-79" y="-201" type="curve" smooth="yes"/>
      <point x="-119" y="-201"/>
      <point x="-141" y="-225"/>
      <point x="-141" y="-254" type="curve" smooth="yes"/>
      <point x="-142" y="-294"/>
      <point x="-109" y="-325"/>
      <point x="-37" y="-325" type="curve" smooth="yes"/>
      <point x="68" y="-325"/>
      <point x="144" y="-262"/>
      <point x="181" y="-107" type="curve" smooth="yes"/>
      <point x="250" y="181"/>
      <point x="522" y="1188"/>
    </contour>
  </outline>
</glyph>
<glyph name="K" format="2">
  <advance width="1161"/>
  <unicode hex="004B"/>
  <outline>
    <contour>
      <point x="256" y="155" type="curve" smooth="yes"/>
      <point x="271" y="232"/>
      <point x="508" y="1110"/>
      <point x="557" y="1268" type="curve" smooth="yes"/>
      <point x="568" y="1310"/>
      <point x="595" y="1332"/>
      <point x="646" y="1342" type="curve" smooth="yes"/>
      <point x="705" y="1354" type="line" smooth="yes"/>
      <point x="740" y="1362"/>
      <point x="750" y="1369"/>
      <point x="751" y="1385" type="curve" smooth="yes"/>
      <point x="751" y="1397"/>
      <point x="744" y="1400"/>
      <point x="720" y="1400" type="curve" smooth="yes"/>
      <point x="414" y="1400" type="line" smooth="yes"/>
      <point x="375" y="1400"/>
      <point x="356" y="1398"/>
      <point x="355" y="1384" type="curve" smooth="yes"/>
      <point x="355" y="1365"/>
      <point x="363" y="1358"/>
      <point x="393" y="1352" type="curve" smooth="yes"/>
      <point x="442" y="1342" type="line" smooth="yes"/>
      <point x="488" y="1332"/>
      <point x="494" y="1304"/>
      <point x="481" y="1245" type="curve" smooth="yes"/>
      <point x="452" y="1098"/>
      <point x="215" y="234"/>
      <point x="187" y="154" type="curve" smooth="yes"/>
      <point x="169" y="100"/>
      <point x="136" y="61"/>
      <point x="84" y="54" type="curve" smooth="yes"/>
      <point x="29" y="46" type="line" smooth="yes"/>
      <point x="-1" y="42"/>
      <point x="-12" y="31"/>
      <point x="-10" y="19" type="curve" smooth="yes"/>
      <point x="-10" y="5"/>
      <point x="-3" y="0"/>
      <point x="23" y="0" type="curve" smooth="yes"/>
      <point x="337" y="0" type="line" smooth="yes"/>
      <point x="357" y="0"/>
      <point x="376" y="4"/>
      <point x="376" y="16" type="curve" smooth="yes"/>
      <point x="377" y="33"/>
      <point x="367" y="42"/>
      <point x="340" y="48" type="curve" smooth="yes"/>
      <point x="296" y="55" type="line" smooth="yes"/>
      <point x="250" y="63"/>
      <point x="243" y="92"/>
    </contour>
    <contour>
      <point x="623" y="815" type="line"/>
      <point x="860" y="95" type="line" smooth="yes"/>
      <point x="886" y="15"/>
      <point x="927" y="-18"/>
      <point x="978" y="-18" type="curve" smooth="yes"/>
      <point x="1030" y="-18"/>
      <point x="1060" y="6"/>
      <point x="1080" y="41" type="curve" smooth="yes"/>
      <point x="1089" y="56"/>
      <point x="1085" y="78"/>
      <point x="1075" y="83" type="curve" smooth="yes"/>
      <point x="1062" y="90"/>
      <point x="1048" y="85"/>
      <point x="1040" y="69" type="curve" smooth="yes"/>
      <point x="1028" y="49"/>
      <point x="1014" y="39"/>
      <point x="994" y="39" type="curve" smooth="yes"/>
      <point x="963" y="39"/>
      <point x="943" y="55"/>
      <point x="929" y="96" type="curve" smooth="yes"/>
      <point x="679" y="841" type="line"/>
    </contour>
    <contour>
      <point x="303" y="442" type="line"/>
      <point x="1100" y="1245" type="line" smooth="yes"/>
      <point x="1154" y="1299"/>
      <point x="1199" y="1328"/>
      <point x="1230" y="1328" type="curve" smooth="yes"/>
      <point x="1264" y="1328"/>
      <point x="1284" y="1302"/>
      <point x="1328" y="1302" type="curve" smooth="yes"/>
      <point x="1362" y="1302"/>
      <point x="1393" y="1326"/>
      <point x="1392" y="1356" type="curve" smooth="yes"/>
      <point x="1393" y="1387"/>
      <point x="1361" y="1415"/>
      <point x="1315" y="1415" type="curve" smooth="yes"/>
      <point x="1231" y="1415"/>
      <point x="1158" y="1369"/>
      <point x="1054" y="1265" type="curve" smooth="yes"/>
      <point x="300" y="506" type="line"/>
    </contour>
  </outline>
</glyph>
<glyph name="L" format="2">
  <advance width="876"/>
  <unicode hex="004C"/>
  <outline>
    <contour>
      <point x="549" y="0" type="line" smooth="yes"/>
      <point x="588" y="0"/>
      <point x="608" y="-26"/>
      <point x="636" y="-26" type="curve" smooth="yes"/>
      <point x="725" y="-26"/>
      <point x="852" y="136"/>
      <point x="855" y="297" type="curve" smooth="yes"/>
      <point x="854" y="308"/>
      <point x="847" y="315"/>
      <point x="835" y="315" type="curve" smooth="yes"/>
      <point x="817" y="315"/>
      <point x="809" y="298"/>
      <point x="806" y="283" type="curve" smooth="yes"/>
      <point x="761" y="104"/>
      <point x="684" y="49"/>
      <point x="556" y="49" type="curve" smooth="yes"/>
      <point x="294" y="49" type="line" smooth="yes"/>
      <point x="256" y="49"/>
      <point x="235" y="68"/>
      <point x="247" y="120" type="curve" smooth="yes"/>
      <point x="281" y="276"/>
      <point x="519" y="1124"/>
      <point x="556" y="1248" type="curve" smooth="yes"/>
      <point x="573" y="1303"/>
      <point x="595" y="1335"/>
      <point x="639" y="1341" type="curve" smooth="yes"/>
      <point x="710" y="1351" type="line" smooth="yes"/>
      <point x="734" y="1353"/>
      <point x="753" y="1364"/>
      <point x="752" y="1379" type="curve" smooth="yes"/>
      <point x="752" y="1393"/>
      <point x="740" y="1400"/>
      <point x="720" y="1400" type="curve" smooth="yes"/>
      <point x="394" y="1400" type="line" smooth="yes"/>
      <point x="370" y="1400"/>
      <point x="355" y="1394"/>
      <point x="355" y="1384" type="curve" smooth="yes"/>
      <point x="356" y="1364"/>
      <point x="368" y="1359"/>
      <point x="394" y="1353" type="curve" smooth="yes"/>
      <point x="459" y="1337" type="line" smooth="yes"/>
      <point x="485" y="1331"/>
      <point x="496" y="1305"/>
      <point x="489" y="1274" type="curve" smooth="yes"/>
      <point x="455" y="1122"/>
      <point x="253" y="378"/>
      <point x="196" y="174" type="curve" smooth="yes"/>
      <point x="176" y="105"/>
      <point x="146" y="67"/>
      <point x="93" y="57" type="curve" smooth="yes"/>
      <point x="43" y="49" type="line" smooth="yes"/>
      <point x="16" y="45"/>
      <point x="-1" y="39"/>
      <point x="-3" y="23" type="curve" smooth="yes"/>
      <point x="-8" y="9"/>
      <point x="5" y="0"/>
      <point x="30" y="0" type="curve" smooth="yes"/>
    </contour>
  </outline>
</glyph>
<glyph name="M" format="2">
  <advance width="1403"/>
  <unicode hex="004D"/>
  <outline>
    <contour>
      <point x="710" y="284" type="line"/>
      <point x="642" y="618"/>
      <point x="596" y="958"/>
      <point x="538" y="1310" type="curve" smooth="yes"/>
      <point x="529" y="1369"/>
      <point x="507" y="1400"/>
      <point x="478" y="1400" type="curve" smooth="yes"/>
      <point x="371" y="1400" type="line" smooth="yes"/>
      <point x="351" y="1400"/>
      <point x="339" y="1395"/>
      <point x="335" y="1383" type="curve" smooth="yes"/>
      <point x="332" y="1365"/>
      <point x="343" y="1357"/>
      <point x="359" y="1352" type="curve" smooth="yes"/>
      <point x="430" y="1332" type="line" smooth="yes"/>
      <point x="467" y="1322"/>
      <point x="480" y="1269"/>
      <point x="465" y="1213" type="curve" smooth="yes"/>
      <point x="164" y="156" type="line" smooth="yes"/>
      <point x="152" y="116"/>
      <point x="131" y="87"/>
      <point x="79" y="75" type="curve" smooth="yes"/>
      <point x="19" y="62" type="line" smooth="yes"/>
      <point x="-14" y="55"/>
      <point x="-26" y="50"/>
      <point x="-29" y="29" type="curve" smooth="yes"/>
      <point x="-33" y="13"/>
      <point x="-20" y="0"/>
      <point x="6" y="0" type="curve" smooth="yes"/>
      <point x="294" y="0" type="line" smooth="yes"/>
      <point x="321" y="0"/>
      <point x="339" y="7"/>
      <point x="345" y="25" type="curve" smooth="yes"/>
      <point x="349" y="37"/>
      <point x="338" y="46"/>
      <point x="321" y="51" type="curve" smooth="yes"/>
      <point x="242" y="76" type="line" smooth="yes"/>
      <point x="209" y="85"/>
      <point x="205" y="111"/>
      <point x="216" y="149" type="curve" smooth="yes"/>
      <point x="534" y="1266" type="line"/>
      <point x="480" y="1256" type="line"/>
      <point x="540" y="967"/>
      <point x="585" y="629"/>
      <point x="652" y="230" type="curve" smooth="yes"/>
      <point x="656" y="218"/>
      <point x="663" y="199"/>
      <point x="678" y="199" type="curve" smooth="yes"/>
      <point x="695" y="199"/>
      <point x="707" y="213"/>
      <point x="732" y="254" type="curve" smooth="yes"/>
      <point x="1327" y="1256" type="line"/>
      <point x="1297" y="1275" type="line"/>
      <point x="1262" y="1016"/>
      <point x="1135" y="299"/>
      <point x="1107" y="140" type="curve" smooth="yes"/>
      <point x="1100" y="96"/>
      <point x="1066" y="75"/>
      <point x="1026" y="64" type="curve" smooth="yes"/>
      <point x="963" y="48" type="line" smooth="yes"/>
      <point x="946" y="44"/>
      <point x="932" y="44"/>
      <point x="929" y="27" type="curve" smooth="yes"/>
      <point x="927" y="13"/>
      <point x="933" y="0"/>
      <point x="957" y="0" type="curve" smooth="yes"/>
      <point x="1262" y="0" type="line" smooth="yes"/>
      <point x="1283" y="0"/>
      <point x="1293" y="3"/>
      <point x="1297" y="19" type="curve" smooth="yes"/>
      <point x="1301" y="38"/>
      <point x="1290" y="43"/>
      <point x="1272" y="48" type="curve" smooth="yes"/>
      <point x="1211" y="67" type="line" smooth="yes"/>
      <point x="1174" y="78"/>
      <point x="1163" y="97"/>
      <point x="1170" y="143" type="curve" smooth="yes"/>
      <point x="1193" y="304"/>
      <point x="1316" y="1007"/>
      <point x="1356" y="1259" type="curve" smooth="yes"/>
      <point x="1364" y="1306"/>
      <point x="1390" y="1337"/>
      <point x="1427" y="1342" type="curve" smooth="yes"/>
      <point x="1471" y="1348" type="line" smooth="yes"/>
      <point x="1492" y="1351"/>
      <point x="1509" y="1352"/>
      <point x="1513" y="1379" type="curve" smooth="yes"/>
      <point x="1515" y="1391"/>
      <point x="1509" y="1400"/>
      <point x="1486" y="1400" type="curve" smooth="yes"/>
      <point x="1405" y="1400" type="line" smooth="yes"/>
      <point x="1379" y="1400"/>
      <point x="1347" y="1381"/>
      <point x="1325" y="1343" type="curve" smooth="yes"/>
      <point x="706" y="290" type="line"/>
    </contour>
  </outline>
</glyph>
<glyph name="N" format="2">
  <advance width="1244"/>
  <unicode hex="004E"/>
  <outline>
    <contour>
      <point x="255" y="171" type="line" smooth="yes"/>
      <point x="238" y="114"/>
      <point x="263" y="73"/>
      <point x="324" y="60" type="curve" smooth="yes"/>
      <point x="361" y="52" type="line" smooth="yes"/>
      <point x="382" y="49"/>
      <point x="390" y="36"/>
      <point x="390" y="21" type="curve" smooth="yes"/>
      <point x="391" y="5"/>
      <point x="378" y="0"/>
      <point x="358" y="0" type="curve" smooth="yes"/>
      <point x="22" y="0" type="line" smooth="yes"/>
      <point x="2" y="0"/>
      <point x="-10" y="9"/>
      <point x="-10" y="26" type="curve" smooth="yes"/>
      <point x="-10" y="36"/>
      <point x="2" y="49"/>
      <point x="26" y="52" type="curve" smooth="yes"/>
      <point x="68" y="59" type="line" smooth="yes"/>
      <point x="131" y="70"/>
      <point x="180" y="112"/>
      <point x="196" y="168" type="curve" smooth="yes"/>
      <point x="454" y="1087" type="line" smooth="yes"/>
      <point x="465" y="1129"/>
      <point x="460" y="1181"/>
      <point x="443" y="1215" type="curve" smooth="yes"/>
      <point x="376" y="1346" type="line" smooth="yes"/>
      <point x="361" y="1374"/>
      <point x="370" y="1400"/>
      <point x="394" y="1400" type="curve" smooth="yes"/>
      <point x="426" y="1400" type="line" smooth="yes"/>
      <point x="450" y="1400"/>
      <point x="457" y="1380"/>
      <point x="476" y="1336" type="curve" smooth="yes"/>
      <point x="534" y="1205"/>
      <point x="868" y="376"/>
      <point x="959" y="171" type="curve"/>
      <point x="916" y="161" type="line"/>
      <point x="1176" y="1123" type="line" smooth="yes"/>
      <point x="1229" y="1319"/>
      <point x="1316" y="1418"/>
      <point x="1402" y="1418" type="curve" smooth="yes"/>
      <point x="1430" y="1418"/>
      <point x="1444" y="1400"/>
      <point x="1443" y="1380" type="curve" smooth="yes"/>
      <point x="1444" y="1347"/>
      <point x="1422" y="1332"/>
      <point x="1381" y="1320" type="curve" smooth="yes"/>
      <point x="1311" y="1298"/>
      <point x="1258" y="1229"/>
      <point x="1226" y="1112" type="curve" smooth="yes"/>
      <point x="988" y="228" type="line" smooth="yes"/>
      <point x="980" y="200"/>
      <point x="978" y="181"/>
      <point x="987" y="152" type="curve" smooth="yes"/>
      <point x="1017" y="59" type="line" smooth="yes"/>
      <point x="1031" y="17"/>
      <point x="1014" y="0"/>
      <point x="982" y="0" type="curve" smooth="yes"/>
      <point x="946" y="0" type="line" smooth="yes"/>
      <point x="917" y="0"/>
      <point x="899" y="29"/>
      <point x="900" y="69" type="curve" smooth="yes"/>
      <point x="901" y="105"/>
      <point x="897" y="125"/>
      <point x="880" y="170" type="curve" smooth="yes"/>
      <point x="816" y="336"/>
      <point x="592" y="899"/>
      <point x="491" y="1132" type="curve"/>
      <point x="529" y="1148" type="line"/>
    </contour>
  </outline>
</glyph>
<glyph name="O" format="2">
  <advance width="1373"/>
  <unicode hex="004F"/>
  <anchor x="936" y="1546" name="center"/>
  <outline>
    <contour>
      <point x="935" y="1426" type="curve" smooth="yes"/>
      <point x="628" y="1455"/>
      <point x="288" y="1188"/>
      <point x="173" y="796" type="curve" smooth="yes"/>
      <point x="41" y="342"/>
      <point x="228" y="0"/>
      <point x="531" y="-28" type="curve" smooth="yes"/>
      <point x="895" y="-62"/>
      <point x="1213" y="197"/>
      <point x="1323" y="652" type="curve" smooth="yes"/>
      <point x="1427" y="1084"/>
      <point x="1232" y="1398"/>
    </contour>
    <contour>
      <point x="561" y="25" type="curve" smooth="yes"/>
      <point x="293" y="50"/>
      <point x="120" y="301"/>
      <point x="238" y="781" type="curve" smooth="yes"/>
      <point x="328" y="1149"/>
      <point x="636" y="1399"/>
      <point x="910" y="1372" type="curve" smooth="yes"/>
      <point x="1168" y="1347"/>
      <point x="1366" y="1081"/>
      <point x="1258" y="666" type="curve" smooth="yes"/>
      <point x="1138" y="210"/>
      <point x="847" y="-1"/>
    </contour>
  </outline>
</glyph>
<glyph name="P" format="2">
  <advance width="1082"/>
  <unicode hex="0050"/>
  <outline>
    <contour>
      <point x="1148" y="876" type="curve" smooth="yes"/>
      <point x="1201" y="1140"/>
      <point x="1036" y="1400"/>
      <point x="722" y="1400" type="curve" smooth="yes"/>
      <point x="402" y="1400" type="line" smooth="yes"/>
      <point x="376" y="1400"/>
      <point x="361" y="1396"/>
      <point x="362" y="1379" type="curve" smooth="yes"/>
      <point x="362" y="1362"/>
      <point x="372" y="1356"/>
      <point x="393" y="1352" type="curve" smooth="yes"/>
      <point x="452" y="1340" type="line" smooth="yes"/>
      <point x="483" y="1334"/>
      <point x="494" y="1302"/>
      <point x="488" y="1266" type="curve" smooth="yes"/>
      <point x="448" y="1081"/>
      <point x="241" y="321"/>
      <point x="187" y="150" type="curve" smooth="yes"/>
      <point x="165" y="83"/>
      <point x="137" y="57"/>
      <point x="78" y="51" type="curve" smooth="yes"/>
      <point x="41" y="48" type="line" smooth="yes"/>
      <point x="9" y="45"/>
      <point x="-7" y="36"/>
      <point x="-6" y="20" type="curve" smooth="yes"/>
      <point x="-7" y="5"/>
      <point x="4" y="0"/>
      <point x="22" y="0" type="curve" smooth="yes"/>
      <point x="349" y="0" type="line" smooth="yes"/>
      <point x="369" y="0"/>
      <point x="381" y="11"/>
      <point x="381" y="23" type="curve" smooth="yes"/>
      <point x="381" y="33"/>
      <point x="370" y="43"/>
      <point x="344" y="48" type="curve" smooth="yes"/>
      <point x="293" y="58" type="line" smooth="yes"/>
      <point x="261" y="64"/>
      <point x="246" y="93"/>
      <point x="260" y="160" type="curve" smooth="yes"/>
      <point x="293" y="308"/>
      <point x="540" y="1203"/>
      <point x="555" y="1253" type="curve" smooth="yes"/>
      <point x="576" y="1329"/>
      <point x="617" y="1358"/>
      <point x="704" y="1358" type="curve" smooth="yes"/>
      <point x="981" y="1358"/>
      <point x="1118" y="1156"/>
      <point x="1076" y="887" type="curve" smooth="yes"/>
      <point x="1036" y="636"/>
      <point x="875" y="518"/>
      <point x="640" y="518" type="curve" smooth="yes"/>
      <point x="540" y="518"/>
      <point x="432" y="554"/>
      <point x="367" y="603" type="curve"/>
      <point x="339" y="556" type="line"/>
      <point x="416" y="512"/>
      <point x="499" y="470"/>
      <point x="654" y="470" type="curve" smooth="yes"/>
      <point x="911" y="470"/>
      <point x="1097" y="626"/>
    </contour>
  </outline>
</glyph>
<glyph name="Q" format="2">
  <advance width="1325"/>
  <unicode hex="0051"/>
  <outline>
    <contour>
      <point x="610" y="370" type="curve" smooth="yes"/>
      <point x="486" y="-123"/>
      <point x="633" y="-337"/>
      <point x="891" y="-337" type="curve" smooth="yes"/>
      <point x="946" y="-337"/>
      <point x="990" y="-325"/>
      <point x="1004" y="-300" type="curve" smooth="yes"/>
      <point x="1040" y="-233" type="line" smooth="yes"/>
      <point x="1048" y="-218"/>
      <point x="1038" y="-209"/>
      <point x="1031" y="-208" type="curve" smooth="yes"/>
      <point x="1014" y="-207"/>
      <point x="983" y="-253"/>
      <point x="895" y="-253" type="curve" smooth="yes"/>
      <point x="694" y="-253"/>
      <point x="558" y="-61"/>
      <point x="658" y="362" type="curve" smooth="yes"/>
      <point x="664" y="390"/>
      <point x="663" y="411"/>
      <point x="644" y="414" type="curve" smooth="yes"/>
      <point x="623" y="418"/>
      <point x="615" y="390"/>
    </contour>
    <contour>
      <point x="917" y="1430" type="curve" smooth="yes"/>
      <point x="576" y="1429"/>
      <point x="286" y="1148"/>
      <point x="178" y="768" type="curve" smooth="yes"/>
      <point x="42" y="283"/>
      <point x="236" y="-31"/>
      <point x="547" y="-30" type="curve" smooth="yes"/>
      <point x="868" y="-29"/>
      <point x="1170" y="206"/>
      <point x="1284" y="675" type="curve" smooth="yes"/>
      <point x="1387" y="1099"/>
      <point x="1209" y="1431"/>
    </contour>
    <contour>
      <point x="572" y="28" type="curve" smooth="yes"/>
      <point x="279" y="28"/>
      <point x="120" y="259"/>
      <point x="243" y="753" type="curve" smooth="yes"/>
      <point x="336" y="1131"/>
      <point x="608" y="1373"/>
      <point x="891" y="1374" type="curve" smooth="yes"/>
      <point x="1156" y="1375"/>
      <point x="1325" y="1095"/>
      <point x="1219" y="689" type="curve" smooth="yes"/>
      <point x="1093" y="215"/>
      <point x="818" y="28"/>
    </contour>
  </outline>
</glyph>
<glyph name="R" format="2">
  <advance width="1131"/>
  <unicode hex="0052"/>
  <outline>
    <contour>
      <point x="335" y="611" type="line"/>
      <point x="405" y="565"/>
      <point x="503" y="532"/>
      <point x="613" y="535" type="curve" smooth="yes"/>
      <point x="873" y="541"/>
      <point x="1060" y="681"/>
      <point x="1103" y="910" type="curve" smooth="yes"/>
      <point x="1157" y="1205"/>
      <point x="981" y="1400"/>
      <point x="726" y="1400" type="curve" smooth="yes"/>
      <point x="368" y="1400" type="line" smooth="yes"/>
      <point x="345" y="1400"/>
      <point x="332" y="1393"/>
      <point x="332" y="1380" type="curve" smooth="yes"/>
      <point x="332" y="1367"/>
      <point x="337" y="1358"/>
      <point x="365" y="1353" type="curve" smooth="yes"/>
      <point x="417" y="1343" type="line" smooth="yes"/>
      <point x="458" y="1335"/>
      <point x="467" y="1311"/>
      <point x="461" y="1264" type="curve" smooth="yes"/>
      <point x="440" y="1142"/>
      <point x="219" y="262"/>
      <point x="184" y="150" type="curve" smooth="yes"/>
      <point x="162" y="83"/>
      <point x="127" y="57"/>
      <point x="74" y="51" type="curve" smooth="yes"/>
      <point x="35" y="48" type="line" smooth="yes"/>
      <point x="1" y="44"/>
      <point x="-10" y="35"/>
      <point x="-10" y="19" type="curve" smooth="yes"/>
      <point x="-10" y="7"/>
      <point x="-2" y="0"/>
      <point x="15" y="0" type="curve" smooth="yes"/>
      <point x="340" y="0" type="line" smooth="yes"/>
      <point x="361" y="0"/>
      <point x="377" y="7"/>
      <point x="377" y="21" type="curve" smooth="yes"/>
      <point x="377" y="35"/>
      <point x="367" y="42"/>
      <point x="341" y="48" type="curve" smooth="yes"/>
      <point x="288" y="58" type="line" smooth="yes"/>
      <point x="260" y="63"/>
      <point x="241" y="93"/>
      <point x="252" y="144" type="curve" smooth="yes"/>
      <point x="274" y="252"/>
      <point x="498" y="1132"/>
      <point x="528" y="1256" type="curve" smooth="yes"/>
      <point x="546" y="1328"/>
      <point x="578" y="1357"/>
      <point x="701" y="1357" type="curve" smooth="yes"/>
      <point x="934" y="1357"/>
      <point x="1093" y="1191"/>
      <point x="1035" y="913" type="curve" smooth="yes"/>
      <point x="992" y="705"/>
      <point x="837" y="586"/>
      <point x="596" y="586" type="curve" smooth="yes"/>
      <point x="495" y="586"/>
      <point x="412" y="624"/>
      <point x="363" y="656" type="curve"/>
    </contour>
    <contour>
      <point x="641" y="560" type="line"/>
      <point x="771" y="95" type="line" smooth="yes"/>
      <point x="793" y="15"/>
      <point x="839" y="-18"/>
      <point x="891" y="-18" type="curve" smooth="yes"/>
      <point x="943" y="-18"/>
      <point x="974" y="7"/>
      <point x="993" y="41" type="curve" smooth="yes"/>
      <point x="1002" y="57"/>
      <point x="997" y="78"/>
      <point x="987" y="84" type="curve" smooth="yes"/>
      <point x="975" y="91"/>
      <point x="960" y="85"/>
      <point x="952" y="69" type="curve" smooth="yes"/>
      <point x="942" y="48"/>
      <point x="928" y="39"/>
      <point x="907" y="39" type="curve" smooth="yes"/>
      <point x="877" y="39"/>
      <point x="853" y="56"/>
      <point x="841" y="97" type="curve" smooth="yes"/>
      <point x="704" y="565" type="line"/>
    </contour>
  </outline>
</glyph>
<glyph name="S" format="2">
  <advance width="947"/>
  <unicode hex="0053"/>
  <outline>
    <contour>
      <point x="419" y="-20" type="curve" smooth="yes"/>
      <point x="627" y="-20"/>
      <point x="779" y="110"/>
      <point x="801" y="306" type="curve" smooth="yes"/>
      <point x="820" y="468"/>
      <point x="769" y="573"/>
      <point x="581" y="713" type="curve" smooth="yes"/>
      <point x="410" y="840"/>
      <point x="346" y="942"/>
      <point x="371" y="1108" type="curve" smooth="yes"/>
      <point x="391" y="1249"/>
      <point x="519" y="1369"/>
      <point x="724" y="1369" type="curve" smooth="yes"/>
      <point x="853" y="1369"/>
      <point x="937" y="1310"/>
      <point x="963" y="1198" type="curve" smooth="yes"/>
      <point x="972" y="1159" type="line" smooth="yes"/>
      <point x="977" y="1141"/>
      <point x="991" y="1120"/>
      <point x="1020" y="1120" type="curve" smooth="yes"/>
      <point x="1041" y="1120"/>
      <point x="1059" y="1143"/>
      <point x="1059" y="1170" type="curve" smooth="yes"/>
      <point x="1059" y="1296"/>
      <point x="943" y="1420"/>
      <point x="733" y="1420" type="curve" smooth="yes"/>
      <point x="478" y="1420"/>
      <point x="329" y="1252"/>
      <point x="306" y="1080" type="curve" smooth="yes"/>
      <point x="281" y="898"/>
      <point x="362" y="786"/>
      <point x="542" y="656" type="curve" smooth="yes"/>
      <point x="715" y="531"/>
      <point x="757" y="434"/>
      <point x="731" y="290" type="curve" smooth="yes"/>
      <point x="702" y="119"/>
      <point x="582" y="30"/>
      <point x="407" y="30" type="curve" smooth="yes"/>
      <point x="239" y="30"/>
      <point x="120" y="134"/>
      <point x="127" y="307" type="curve" smooth="yes"/>
      <point x="129" y="352" type="line" smooth="yes"/>
      <point x="131" y="375"/>
      <point x="120" y="392"/>
      <point x="106" y="392" type="curve" smooth="yes"/>
      <point x="92" y="392"/>
      <point x="80" y="380"/>
      <point x="76" y="355" type="curve" smooth="yes"/>
      <point x="34" y="23" type="line" smooth="yes"/>
      <point x="30" y="-2"/>
      <point x="40" y="-15"/>
      <point x="60" y="-15" type="curve" smooth="yes"/>
      <point x="81" y="-15"/>
      <point x="102" y="87"/>
      <point x="118" y="87" type="curve" smooth="yes"/>
      <point x="140" y="87"/>
      <point x="184" y="-20"/>
    </contour>
  </outline>
</glyph>
<glyph name="T" format="2">
  <advance width="905"/>
  <unicode hex="0054"/>
  <outline>
    <contour>
      <point x="479" y="1415" type="curve" smooth="yes"/>
      <point x="303" y="1415"/>
      <point x="218" y="1330"/>
      <point x="216" y="1202" type="curve" smooth="yes"/>
      <point x="216" y="1157"/>
      <point x="237" y="1131"/>
      <point x="268" y="1131" type="curve" smooth="yes"/>
      <point x="299" y="1131"/>
      <point x="320" y="1156"/>
      <point x="319" y="1178" type="curve" smooth="yes"/>
      <point x="320" y="1213"/>
      <point x="292" y="1241"/>
      <point x="292" y="1265" type="curve" smooth="yes"/>
      <point x="294" y="1327"/>
      <point x="337" y="1367"/>
      <point x="484" y="1367" type="curve" smooth="yes"/>
      <point x="637" y="1367"/>
      <point x="917" y="1288"/>
      <point x="1041" y="1288" type="curve" smooth="yes"/>
      <point x="1147" y="1288"/>
      <point x="1207" y="1334"/>
      <point x="1208" y="1401" type="curve" smooth="yes"/>
      <point x="1209" y="1444"/>
      <point x="1190" y="1463"/>
      <point x="1170" y="1463" type="curve" smooth="yes"/>
      <point x="1143" y="1463"/>
      <point x="1118" y="1447"/>
      <point x="1111" y="1412" type="curve" smooth="yes"/>
      <point x="1100" y="1368"/>
      <point x="1073" y="1345"/>
      <point x="1014" y="1345" type="curve" smooth="yes"/>
      <point x="922" y="1345"/>
      <point x="624" y="1415"/>
    </contour>
    <contour>
      <point x="412" y="100" type="curve" smooth="yes"/>
      <point x="444" y="234"/>
      <point x="706" y="1191"/>
      <point x="757" y="1369" type="curve"/>
      <point x="698" y="1380" type="line"/>
      <point x="646" y="1198"/>
      <point x="395" y="265"/>
      <point x="352" y="123" type="curve" smooth="yes"/>
      <point x="340" y="80"/>
      <point x="318" y="69"/>
      <point x="275" y="62" type="curve" smooth="yes"/>
      <point x="205" y="50" type="line" smooth="yes"/>
      <point x="176" y="45"/>
      <point x="159" y="40"/>
      <point x="157" y="23" type="curve" smooth="yes"/>
      <point x="155" y="11"/>
      <point x="166" y="0"/>
      <point x="188" y="0" type="curve" smooth="yes"/>
      <point x="511" y="0" type="line" smooth="yes"/>
      <point x="538" y="0"/>
      <point x="552" y="5"/>
      <point x="558" y="19" type="curve" smooth="yes"/>
      <point x="564" y="36"/>
      <point x="551" y="42"/>
      <point x="533" y="46" type="curve" smooth="yes"/>
      <point x="455" y="59" type="line" smooth="yes"/>
      <point x="422" y="65"/>
      <point x="408" y="76"/>
    </contour>
  </outline>
</glyph>
<glyph name="U" format="2">
  <advance width="1255"/>
  <unicode hex="0055"/>
  <anchor x="870" y="1476" name="center"/>
  <outline>
    <contour>
      <point x="955" y="391" type="line" smooth="yes"/>
      <point x="888" y="141"/>
      <point x="745" y="25"/>
      <point x="546" y="25" type="curve" smooth="yes"/>
      <point x="382" y="25"/>
      <point x="284" y="124"/>
      <point x="284" y="315" type="curve" smooth="yes"/>
      <point x="284" y="391"/>
      <point x="300" y="487"/>
      <point x="327" y="584" type="curve" smooth="yes"/>
      <point x="515" y="1285" type="line" smooth="yes"/>
      <point x="524" y="1318"/>
      <point x="548" y="1330"/>
      <point x="583" y="1337" type="curve" smooth="yes"/>
      <point x="647" y="1352" type="line" smooth="yes"/>
      <point x="688" y="1361"/>
      <point x="701" y="1368"/>
      <point x="701" y="1383" type="curve" smooth="yes"/>
      <point x="701" y="1393"/>
      <point x="691" y="1400"/>
      <point x="670" y="1400" type="curve" smooth="yes"/>
      <point x="374" y="1400" type="line" smooth="yes"/>
      <point x="339" y="1400"/>
      <point x="322" y="1391"/>
      <point x="322" y="1379" type="curve" smooth="yes"/>
      <point x="322" y="1362"/>
      <point x="332" y="1352"/>
      <point x="363" y="1348" type="curve" smooth="yes"/>
      <point x="414" y="1338" type="line" smooth="yes"/>
      <point x="453" y="1330"/>
      <point x="461" y="1306"/>
      <point x="452" y="1276" type="curve" smooth="yes"/>
      <point x="264" y="584" type="line" smooth="yes"/>
      <point x="237" y="486"/>
      <point x="217" y="386"/>
      <point x="217" y="309" type="curve" smooth="yes"/>
      <point x="217" y="115"/>
      <point x="311" y="-30"/>
      <point x="518" y="-30" type="curve" smooth="yes"/>
      <point x="776" y="-30"/>
      <point x="931" y="114"/>
      <point x="1004" y="377" type="curve" smooth="yes"/>
      <point x="1246" y="1269" type="line" smooth="yes"/>
      <point x="1259" y="1315"/>
      <point x="1287" y="1324"/>
      <point x="1329" y="1333" type="curve" smooth="yes"/>
      <point x="1394" y="1349" type="line" smooth="yes"/>
      <point x="1435" y="1358"/>
      <point x="1437" y="1365"/>
      <point x="1437" y="1381" type="curve" smooth="yes"/>
      <point x="1437" y="1391"/>
      <point x="1424" y="1400"/>
      <point x="1405" y="1400" type="curve" smooth="yes"/>
      <point x="1106" y="1400" type="line" smooth="yes"/>
      <point x="1079" y="1400"/>
      <point x="1064" y="1391"/>
      <point x="1064" y="1375" type="curve" smooth="yes"/>
      <point x="1064" y="1360"/>
      <point x="1081" y="1355"/>
      <point x="1108" y="1346" type="curve" smooth="yes"/>
      <point x="1152" y="1332" type="line" smooth="yes"/>
      <point x="1193" y="1319"/>
      <point x="1200" y="1303"/>
      <point x="1189" y="1266" type="curve" smooth="yes"/>
    </contour>
  </outline>
</glyph>
<glyph name="V" format="2">
  <advance width="1017"/>
  <unicode hex="0056"/>
  <outline>
    <contour>
      <point x="930" y="1379" type="curve" smooth="yes"/>
      <point x="930" y="1364"/>
      <point x="945" y="1353"/>
      <point x="968" y="1348" type="curve" smooth="yes"/>
      <point x="1030" y="1334" type="line" smooth="yes"/>
      <point x="1066" y="1326"/>
      <point x="1080" y="1273"/>
      <point x="1050" y="1228" type="curve" smooth="yes"/>
      <point x="372" y="111" type="line"/>
      <point x="398" y="116" type="line"/>
      <point x="394" y="291"/>
      <point x="381" y="1110"/>
      <point x="381" y="1264" type="curve" smooth="yes"/>
      <point x="381" y="1305"/>
      <point x="394" y="1333"/>
      <point x="433" y="1338" type="curve" smooth="yes"/>
      <point x="522" y="1352" type="line" smooth="yes"/>
      <point x="540" y="1354"/>
      <point x="551" y="1367"/>
      <point x="551" y="1379" type="curve" smooth="yes"/>
      <point x="551" y="1391"/>
      <point x="542" y="1400"/>
      <point x="528" y="1400" type="curve" smooth="yes"/>
      <point x="220" y="1400" type="line" smooth="yes"/>
      <point x="206" y="1400"/>
      <point x="194" y="1392"/>
      <point x="194" y="1379" type="curve" smooth="yes"/>
      <point x="194" y="1367"/>
      <point x="199" y="1356"/>
      <point x="222" y="1353" type="curve" smooth="yes"/>
      <point x="267" y="1345" type="line" smooth="yes"/>
      <point x="299" y="1340"/>
      <point x="312" y="1307"/>
      <point x="314" y="1260" type="curve" smooth="yes"/>
      <point x="321" y="1110"/>
      <point x="333" y="287"/>
      <point x="332" y="186" type="curve" smooth="yes"/>
      <point x="332" y="144"/>
      <point x="326" y="133"/>
      <point x="311" y="89" type="curve" smooth="yes"/>
      <point x="302" y="63" type="line" smooth="yes"/>
      <point x="291" y="29"/>
      <point x="306" y="0"/>
      <point x="329" y="0" type="curve" smooth="yes"/>
      <point x="359" y="0" type="line" smooth="yes"/>
      <point x="391" y="0"/>
      <point x="415" y="27"/>
      <point x="422" y="60" type="curve" smooth="yes"/>
      <point x="425" y="74" type="line" smooth="yes"/>
      <point x="433" y="110"/>
      <point x="448" y="140"/>
      <point x="466" y="169" type="curve" smooth="yes"/>
      <point x="1116" y="1245" type="line" smooth="yes"/>
      <point x="1152" y="1303"/>
      <point x="1183" y="1340"/>
      <point x="1245" y="1350" type="curve" smooth="yes"/>
      <point x="1282" y="1356" type="line" smooth="yes"/>
      <point x="1306" y="1359"/>
      <point x="1316" y="1374"/>
      <point x="1316" y="1386" type="curve" smooth="yes"/>
      <point x="1316" y="1395"/>
      <point x="1306" y="1400"/>
      <point x="1283" y="1400" type="curve" smooth="yes"/>
      <point x="965" y="1400" type="line" smooth="yes"/>
      <point x="947" y="1400"/>
      <point x="930" y="1391"/>
    </contour>
  </outline>
</glyph>
<glyph name="X" format="2">
  <advance width="1071"/>
  <unicode hex="0058"/>
  <outline>
    <contour>
      <point x="588" y="714" type="line"/>
      <point x="213" y="215" type="line" smooth="yes"/>
      <point x="117" y="86"/>
      <point x="67" y="56"/>
      <point x="-24" y="36" type="curve" smooth="yes"/>
      <point x="-46" y="32"/>
      <point x="-52" y="26"/>
      <point x="-52" y="17" type="curve" smooth="yes"/>
      <point x="-51" y="8"/>
      <point x="-42" y="0"/>
      <point x="-27" y="0" type="curve" smooth="yes"/>
      <point x="263" y="0" type="line" smooth="yes"/>
      <point x="284" y="0"/>
      <point x="299" y="10"/>
      <point x="298" y="25" type="curve" smooth="yes"/>
      <point x="298" y="36"/>
      <point x="290" y="40"/>
      <point x="268" y="45" type="curve" smooth="yes"/>
      <point x="233" y="53" type="line" smooth="yes"/>
      <point x="197" y="61"/>
      <point x="195" y="108"/>
      <point x="242" y="171" type="curve" smooth="yes"/>
      <point x="603" y="659" type="line"/>
    </contour>
    <contour>
      <point x="477" y="1265" type="curve" smooth="yes"/>
      <point x="467" y="1303"/>
      <point x="480" y="1337"/>
      <point x="506" y="1342" type="curve" smooth="yes"/>
      <point x="564" y="1354" type="line" smooth="yes"/>
      <point x="588" y="1358"/>
      <point x="603" y="1367"/>
      <point x="603" y="1380" type="curve" smooth="yes"/>
      <point x="604" y="1393"/>
      <point x="593" y="1400"/>
      <point x="568" y="1400" type="curve" smooth="yes"/>
      <point x="328" y="1400" type="line" smooth="yes"/>
      <point x="308" y="1400"/>
      <point x="291" y="1393"/>
      <point x="290" y="1380" type="curve" smooth="yes"/>
      <point x="290" y="1366"/>
      <point x="300" y="1356"/>
      <point x="326" y="1353" type="curve" smooth="yes"/>
      <point x="370" y="1347"/>
      <point x="387" y="1324"/>
      <point x="407" y="1263" type="curve" smooth="yes"/>
      <point x="458" y="1115"/>
      <point x="708" y="285"/>
      <point x="757" y="123" type="curve" smooth="yes"/>
      <point x="771" y="80"/>
      <point x="754" y="55"/>
      <point x="723" y="50" type="curve" smooth="yes"/>
      <point x="682" y="43" type="line" smooth="yes"/>
      <point x="657" y="40"/>
      <point x="645" y="30"/>
      <point x="643" y="17" type="curve" smooth="yes"/>
      <point x="643" y="7"/>
      <point x="651" y="0"/>
      <point x="678" y="0" type="curve" smooth="yes"/>
      <point x="915" y="0" type="line" smooth="yes"/>
      <point x="938" y="0"/>
      <point x="956" y="11"/>
      <point x="956" y="23" type="curve" smooth="yes"/>
      <point x="956" y="34"/>
      <point x="950" y="41"/>
      <point x="923" y="45" type="curve" smooth="yes"/>
      <point x="870" y="53"/>
      <point x="836" y="75"/>
      <point x="822" y="121" type="curve" smooth="yes"/>
      <point x="758" y="313"/>
      <point x="511" y="1143"/>
    </contour>
    <contour>
      <point x="633" y="674" type="line"/>
      <point x="1017" y="1220" type="line" smooth="yes"/>
      <point x="1096" y="1332"/>
      <point x="1110" y="1351"/>
      <point x="1151" y="1351" type="curve" smooth="yes"/>
      <point x="1196" y="1351"/>
      <point x="1216" y="1326"/>
      <point x="1259" y="1326" type="curve" smooth="yes"/>
      <point x="1283" y="1326"/>
      <point x="1308" y="1346"/>
      <point x="1307" y="1375" type="curve" smooth="yes"/>
      <point x="1307" y="1400"/>
      <point x="1279" y="1424"/>
      <point x="1226" y="1424" type="curve" smooth="yes"/>
      <point x="1119" y="1424"/>
      <point x="1068" y="1374"/>
      <point x="976" y="1242" type="curve" smooth="yes"/>
      <point x="614" y="723" type="line"/>
    </contour>
  </outline>
</glyph>
<glyph name="Y" format="2">
  <advance width="969"/>
  <unicode hex="0059"/>
  <anchor x="805" y="1496" name="center"/>
  <outline>
    <contour>
      <point x="515" y="506" type="line"/>
      <point x="535" y="497" type="line"/>
      <point x="505" y="683"/>
      <point x="437" y="1126"/>
      <point x="412" y="1271" type="curve" smooth="yes"/>
      <point x="396" y="1365"/>
      <point x="359" y="1400"/>
      <point x="280" y="1400" type="curve" smooth="yes"/>
      <point x="231" y="1400" type="line" smooth="yes"/>
      <point x="212" y="1400"/>
      <point x="195" y="1389"/>
      <point x="196" y="1377" type="curve" smooth="yes"/>
      <point x="197" y="1362"/>
      <point x="212" y="1348"/>
      <point x="246" y="1346" type="curve" smooth="yes"/>
      <point x="306" y="1340"/>
      <point x="345" y="1308"/>
      <point x="354" y="1247" type="curve" smooth="yes"/>
      <point x="373" y="1110"/>
      <point x="444" y="685"/>
      <point x="469" y="526" type="curve" smooth="yes"/>
      <point x="475" y="489"/>
      <point x="471" y="456"/>
      <point x="459" y="417" type="curve" smooth="yes"/>
      <point x="385" y="164" type="line" smooth="yes"/>
      <point x="366" y="97"/>
      <point x="331" y="61"/>
      <point x="283" y="54" type="curve" smooth="yes"/>
      <point x="228" y="46" type="line" smooth="yes"/>
      <point x="202" y="43"/>
      <point x="187" y="33"/>
      <point x="187" y="20" type="curve" smooth="yes"/>
      <point x="186" y="7"/>
      <point x="196" y="0"/>
      <point x="213" y="0" type="curve" smooth="yes"/>
      <point x="532" y="0" type="line" smooth="yes"/>
      <point x="562" y="0"/>
      <point x="573" y="7"/>
      <point x="573" y="20" type="curve" smooth="yes"/>
      <point x="573" y="35"/>
      <point x="565" y="43"/>
      <point x="539" y="47" type="curve" smooth="yes"/>
      <point x="484" y="58" type="line" smooth="yes"/>
      <point x="446" y="66"/>
      <point x="440" y="105"/>
      <point x="454" y="156" type="curve" smooth="yes"/>
      <point x="530" y="428" type="line" smooth="yes"/>
      <point x="539" y="459"/>
      <point x="551" y="481"/>
      <point x="577" y="522" type="curve" smooth="yes"/>
      <point x="957" y="1117" type="line" smooth="yes"/>
      <point x="1052" y="1266"/>
      <point x="1128" y="1314"/>
      <point x="1179" y="1321" type="curve" smooth="yes"/>
      <point x="1253" y="1331"/>
      <point x="1277" y="1353"/>
      <point x="1278" y="1387" type="curve" smooth="yes"/>
      <point x="1278" y="1404"/>
      <point x="1260" y="1423"/>
      <point x="1211" y="1423" type="curve" smooth="yes"/>
      <point x="1126" y="1423"/>
      <point x="1053" y="1361"/>
      <point x="924" y="1155" type="curve" smooth="yes"/>
    </contour>
  </outline>
</glyph>
<glyph name="Z" format="2">
  <advance width="1030"/>
  <unicode hex="005A"/>
  <outline>
    <contour>
      <point x="646" y="0" type="line" smooth="yes"/>
      <point x="672" y="0"/>
      <point x="697" y="-25"/>
      <point x="721" y="-25" type="curve" smooth="yes"/>
      <point x="806" y="-25"/>
      <point x="925" y="120"/>
      <point x="925" y="271" type="curve" smooth="yes"/>
      <point x="925" y="281"/>
      <point x="917" y="290"/>
      <point x="906" y="290" type="curve" smooth="yes"/>
      <point x="894" y="290"/>
      <point x="888" y="278"/>
      <point x="882" y="261" type="curve" smooth="yes"/>
      <point x="831" y="103"/>
      <point x="742" y="45"/>
      <point x="629" y="45" type="curve" smooth="yes"/>
      <point x="75" y="45" type="line"/>
      <point x="88" y="30" type="line"/>
      <point x="278" y="277"/>
      <point x="1010" y="1189"/>
      <point x="1133" y="1339" type="curve" smooth="yes"/>
      <point x="1151" y="1359"/>
      <point x="1159" y="1371"/>
      <point x="1159" y="1379" type="curve" smooth="yes"/>
      <point x="1159" y="1390"/>
      <point x="1152" y="1399"/>
      <point x="1128" y="1399" type="curve" smooth="yes"/>
      <point x="612" y="1399" type="line" smooth="yes"/>
      <point x="555" y="1399"/>
      <point x="547" y="1428"/>
      <point x="505" y="1428" type="curve" smooth="yes"/>
      <point x="490" y="1428"/>
      <point x="473" y="1414"/>
      <point x="455" y="1390" type="curve" smooth="yes"/>
      <point x="339" y="1224" type="line" smooth="yes"/>
      <point x="316" y="1191"/>
      <point x="315" y="1174"/>
      <point x="331" y="1168" type="curve" smooth="yes"/>
      <point x="344" y="1163"/>
      <point x="366" y="1174"/>
      <point x="384" y="1196" type="curve" smooth="yes"/>
      <point x="476" y="1317"/>
      <point x="536" y="1354"/>
      <point x="589" y="1354" type="curve" smooth="yes"/>
      <point x="1092" y="1354" type="line"/>
      <point x="1076" y="1368" type="line"/>
      <point x="892" y="1128"/>
      <point x="210" y="277"/>
      <point x="24" y="64" type="curve" smooth="yes"/>
      <point x="9" y="48"/>
      <point x="2" y="38"/>
      <point x="2" y="20" type="curve" smooth="yes"/>
      <point x="2" y="7"/>
      <point x="13" y="0"/>
      <point x="38" y="0" type="curve" smooth="yes"/>
    </contour>
  </outline>
</glyph>
<glyph name="bracketleft" format="2">
  <advance width="574"/>
  <unicode hex="005B"/>
  <outline>
    <contour>
      <point x="543" y="1397" type="line" smooth="yes"/>
      <point x="548" y="1414"/>
      <point x="558" y="1423"/>
      <point x="574" y="1423" type="curve" smooth="yes"/>
      <point x="816" y="1423" type="line" smooth="yes"/>
      <point x="833" y="1423"/>
      <point x="847" y="1432"/>
      <point x="851" y="1451" type="curve" smooth="yes"/>
      <point x="858" y="1471"/>
      <point x="849" y="1480"/>
      <point x="832" y="1480" type="curve" smooth="yes"/>
      <point x="540" y="1480" type="line" smooth="yes"/>
      <point x="512" y="1480"/>
      <point x="493" y="1465"/>
      <point x="487" y="1436" type="curve" smooth="yes"/>
      <point x="44" y="-212" type="line" smooth="yes"/>
      <point x="37" y="-241"/>
      <point x="46" y="-256"/>
      <point x="75" y="-256" type="curve" smooth="yes"/>
      <point x="366" y="-256" type="line" smooth="yes"/>
      <point x="383" y="-256"/>
      <point x="397" y="-247"/>
      <point x="403" y="-227" type="curve" smooth="yes"/>
      <point x="407" y="-208"/>
      <point x="398" y="-199"/>
      <point x="381" y="-199" type="curve" smooth="yes"/>
      <point x="140" y="-199" type="line" smooth="yes"/>
      <point x="124" y="-199"/>
      <point x="119" y="-190"/>
      <point x="123" y="-173" type="curve" smooth="yes"/>
    </contour>
  </outline>
</glyph>
<glyph name="underscore" format="2">
  <advance width="784"/>
  <unicode hex="005F"/>
  <outline>
    <contour>
      <point x="-72" y="-195" type="curve" smooth="yes"/>
      <point x="-75" y="-213"/>
      <point x="-71" y="-224"/>
      <point x="-55" y="-224" type="curve" smooth="yes"/>
      <point x="711" y="-224" type="line" smooth="yes"/>
      <point x="727" y="-224"/>
      <point x="736" y="-213"/>
      <point x="739" y="-195" type="curve" smooth="yes"/>
      <point x="742" y="-177"/>
      <point x="738" y="-165"/>
      <point x="722" y="-165" type="curve" smooth="yes"/>
      <point x="-45" y="-165" type="line" smooth="yes"/>
      <point x="-60" y="-165"/>
      <point x="-69" y="-177"/>
    </contour>
  </outline>
</glyph>
<glyph name="a" format="2">
  <advance width="827"/>
  <unicode hex="0061"/>
  <anchor x="661" y="907" name="center"/>
  <outline>
    <contour>
      <point x="604" y="111" type="curve" smooth="yes"/>
      <point x="748" y="688" type="line" smooth="yes"/>
      <point x="756" y="718"/>
      <point x="784" y="741"/>
      <point x="785" y="771" type="curve" smooth="yes"/>
      <point x="786" y="815"/>
      <point x="729" y="841"/>
      <point x="640" y="841" type="curve" smooth="yes"/>
      <point x="365" y="841"/>
      <point x="67" y="523"/>
      <point x="59" y="181" type="curve" smooth="yes"/>
      <point x="56" y="45"/>
      <point x="115" y="-16"/>
      <point x="201" y="-16" type="curve" smooth="yes"/>
      <point x="351" y="-16"/>
      <point x="525" y="149"/>
      <point x="654" y="473" type="curve"/>
      <point x="643" y="477" type="line"/>
      <point x="545" y="161"/>
      <point x="530" y="121"/>
      <point x="530" y="78" type="curve" smooth="yes"/>
      <point x="529" y="18"/>
      <point x="553" y="-14"/>
      <point x="603" y="-14" type="curve" smooth="yes"/>
      <point x="686" y="-14"/>
      <point x="754" y="52"/>
      <point x="755" y="91" type="curve" smooth="yes"/>
      <point x="755" y="102"/>
      <point x="748" y="108"/>
      <point x="740" y="108" type="curve" smooth="yes"/>
      <point x="730" y="108"/>
      <point x="720" y="102"/>
      <point x="706" y="84" type="curve" smooth="yes"/>
      <point x="689" y="61"/>
      <point x="659" y="52"/>
      <point x="642" y="52" type="curve" smooth="yes"/>
      <point x="607" y="52"/>
      <point x="594" y="75"/>
    </contour>
    <contour>
      <point x="129" y="206" type="curve" smooth="yes"/>
      <point x="136" y="499"/>
      <point x="400" y="788"/>
      <point x="614" y="788" type="curve" smooth="yes"/>
      <point x="666" y="788"/>
      <point x="693" y="769"/>
      <point x="692" y="723" type="curve" smooth="yes"/>
      <point x="688" y="510"/>
      <point x="408" y="39"/>
      <point x="231" y="39" type="curve" smooth="yes"/>
      <point x="161" y="39"/>
      <point x="127" y="86"/>
    </contour>
  </outline>
</glyph>
<glyph name="b" format="2">
  <advance width="841"/>
  <unicode hex="0062"/>
  <outline>
    <contour>
      <point x="348" y="873" type="line" smooth="yes"/>
      <point x="417" y="1117"/>
      <point x="551" y="1238"/>
      <point x="667" y="1238" type="curve" smooth="yes"/>
      <point x="734" y="1238"/>
      <point x="777" y="1205"/>
      <point x="824" y="1205" type="curve" smooth="yes"/>
      <point x="862" y="1205"/>
      <point x="884" y="1222"/>
      <point x="884" y="1246" type="curve" smooth="yes"/>
      <point x="884" y="1279"/>
      <point x="855" y="1305"/>
      <point x="782" y="1305" type="curve" smooth="yes"/>
      <point x="534" y="1305"/>
      <point x="364" y="1154"/>
      <point x="284" y="869" type="curve" smooth="yes"/>
      <point x="61" y="79" type="line" smooth="yes"/>
      <point x="42" y="12"/>
      <point x="52" y="-4"/>
      <point x="72" y="-4" type="curve" smooth="yes"/>
      <point x="85" y="-4"/>
      <point x="96" y="6"/>
      <point x="102" y="20" type="curve" smooth="yes"/>
      <point x="162" y="185" type="line"/>
      <point x="134" y="195" type="line"/>
      <point x="132" y="59"/>
      <point x="184" y="-14"/>
      <point x="320" y="-14" type="curve" smooth="yes"/>
      <point x="540" y="-14"/>
      <point x="805" y="241"/>
      <point x="813" y="637" type="curve" smooth="yes"/>
      <point x="816" y="762"/>
      <point x="761" y="839"/>
      <point x="653" y="839" type="curve" smooth="yes"/>
      <point x="461" y="839"/>
      <point x="269" y="630"/>
      <point x="188" y="410" type="curve"/>
      <point x="218" y="410" type="line"/>
    </contour>
    <contour>
      <point x="618" y="787" type="curve" smooth="yes"/>
      <point x="696" y="787"/>
      <point x="746" y="722"/>
      <point x="744" y="605" type="curve" smooth="yes"/>
      <point x="736" y="267"/>
      <point x="502" y="38"/>
      <point x="327" y="38" type="curve" smooth="yes"/>
      <point x="232" y="38"/>
      <point x="180" y="86"/>
      <point x="182" y="200" type="curve" smooth="yes"/>
      <point x="187" y="439"/>
      <point x="432" y="787"/>
    </contour>
  </outline>
</glyph>
<glyph name="c" format="2">
  <advance width="669"/>
  <unicode hex="0063"/>
  <anchor x="514" y="1014" name="center"/>
  <outline>
    <contour>
      <point x="464" y="793" type="curve" smooth="yes"/>
      <point x="535" y="793"/>
      <point x="578" y="750"/>
      <point x="578" y="689" type="curve" smooth="yes"/>
      <point x="578" y="669"/>
      <point x="571" y="647"/>
      <point x="571" y="631" type="curve" smooth="yes"/>
      <point x="571" y="606"/>
      <point x="586" y="589"/>
      <point x="609" y="589" type="curve" smooth="yes"/>
      <point x="640" y="589"/>
      <point x="667" y="620"/>
      <point x="668" y="673" type="curve" smooth="yes"/>
      <point x="668" y="764"/>
      <point x="609" y="842"/>
      <point x="494" y="842" type="curve" smooth="yes"/>
      <point x="251" y="842"/>
      <point x="58" y="561"/>
      <point x="58" y="250" type="curve" smooth="yes"/>
      <point x="57" y="94"/>
      <point x="130" y="-14"/>
      <point x="269" y="-14" type="curve" smooth="yes"/>
      <point x="474" y="-14"/>
      <point x="597" y="150"/>
      <point x="598" y="261" type="curve" smooth="yes"/>
      <point x="599" y="273"/>
      <point x="592" y="282"/>
      <point x="582" y="282" type="curve" smooth="yes"/>
      <point x="569" y="282"/>
      <point x="556" y="270"/>
      <point x="551" y="250" type="curve" smooth="yes"/>
      <point x="515" y="119"/>
      <point x="417" y="42"/>
      <point x="301" y="42" type="curve" smooth="yes"/>
      <point x="204" y="42"/>
      <point x="133" y="119"/>
      <point x="134" y="270" type="curve" smooth="yes"/>
      <point x="134" y="554"/>
      <point x="288" y="793"/>
    </contour>
  </outline>
</glyph>
<glyph name="d" format="2">
  <advance width="854"/>
  <unicode hex="0064"/>
  <outline>
    <contour>
      <point x="756" y="769" type="line"/>
      <point x="729" y="812"/>
      <point x="680" y="842"/>
      <point x="604" y="842" type="curve" smooth="yes"/>
      <point x="330" y="842"/>
      <point x="49" y="543"/>
      <point x="48" y="175" type="curve" smooth="yes"/>
      <point x="47" y="37"/>
      <point x="107" y="-14"/>
      <point x="192" y="-14" type="curve" smooth="yes"/>
      <point x="328" y="-14"/>
      <point x="497" y="128"/>
      <point x="611" y="379" type="curve"/>
      <point x="594" y="381" type="line"/>
      <point x="525" y="158"/>
      <point x="515" y="115"/>
      <point x="515" y="70" type="curve" smooth="yes"/>
      <point x="515" y="11"/>
      <point x="541" y="-13"/>
      <point x="594" y="-13" type="curve" smooth="yes"/>
      <point x="678" y="-13"/>
      <point x="740" y="46"/>
      <point x="741" y="85" type="curve" smooth="yes"/>
      <point x="742" y="97"/>
      <point x="737" y="108"/>
      <point x="725" y="108" type="curve" smooth="yes"/>
      <point x="713" y="108"/>
      <point x="708" y="100"/>
      <point x="701" y="90" type="curve" smooth="yes"/>
      <point x="683" y="63"/>
      <point x="662" y="51"/>
      <point x="632" y="51" type="curve" smooth="yes"/>
      <point x="581" y="51"/>
      <point x="585" y="114"/>
      <point x="631" y="282" type="curve" smooth="yes"/>
      <point x="850" y="1080" type="line" smooth="yes"/>
      <point x="855" y="1096"/>
      <point x="854" y="1120"/>
      <point x="855" y="1131" type="curve" smooth="yes"/>
      <point x="866" y="1213"/>
      <point x="925" y="1254"/>
      <point x="980" y="1254" type="curve" smooth="yes"/>
      <point x="1025" y="1254"/>
      <point x="1051" y="1225"/>
      <point x="1085" y="1225" type="curve" smooth="yes"/>
      <point x="1110" y="1225"/>
      <point x="1127" y="1244"/>
      <point x="1127" y="1263" type="curve" smooth="yes"/>
      <point x="1127" y="1294"/>
      <point x="1092" y="1319"/>
      <point x="1035" y="1319" type="curve" smooth="yes"/>
      <point x="914" y="1319"/>
      <point x="841" y="1250"/>
      <point x="806" y="1130" type="curve" smooth="yes"/>
      <point x="646" y="584" type="line" smooth="yes"/>
      <point x="560" y="284"/>
      <point x="355" y="51"/>
      <point x="222" y="51" type="curve" smooth="yes"/>
      <point x="160" y="51"/>
      <point x="116" y="93"/>
      <point x="116" y="187" type="curve" smooth="yes"/>
      <point x="116" y="498"/>
      <point x="354" y="790"/>
      <point x="574" y="790" type="curve" smooth="yes"/>
      <point x="641" y="790"/>
      <point x="683" y="776"/>
      <point x="719" y="731" type="curve"/>
    </contour>
  </outline>
</glyph>
<glyph name="f" format="2">
  <advance width="433"/>
  <unicode hex="0066"/>
  <outline>
    <contour>
      <point x="266" y="756" type="line"/>
      <point x="487" y="756" type="line" smooth="yes"/>
      <point x="516" y="756"/>
      <point x="539" y="767"/>
      <point x="539" y="788" type="curve" smooth="yes"/>
      <point x="539" y="797"/>
      <point x="532" y="802"/>
      <point x="519" y="802" type="curve" smooth="yes"/>
      <point x="279" y="802" type="line"/>
    </contour>
    <contour>
      <point x="94" y="780" type="curve" smooth="yes"/>
      <point x="94" y="769"/>
      <point x="101" y="760"/>
      <point x="121" y="760" type="curve" smooth="yes"/>
      <point x="209" y="760"/>
      <point x="231" y="725"/>
      <point x="213" y="657" type="curve" smooth="yes"/>
      <point x="-6" y="-192" type="line" smooth="yes"/>
      <point x="-29" y="-281"/>
      <point x="-18" y="-311"/>
      <point x="22" y="-311" type="curve" smooth="yes"/>
      <point x="57" y="-311"/>
      <point x="89" y="-287"/>
      <point x="89" y="-258" type="curve" smooth="yes"/>
      <point x="89" y="-232"/>
      <point x="71" y="-219"/>
      <point x="71" y="-188" type="curve" smooth="yes"/>
      <point x="71" y="-160"/>
      <point x="74" y="-138"/>
      <point x="81" y="-112" type="curve" smooth="yes"/>
      <point x="329" y="867" type="line" smooth="yes"/>
      <point x="345" y="926"/>
      <point x="338" y="995"/>
      <point x="348" y="1047" type="curve" smooth="yes"/>
      <point x="368" y="1156"/>
      <point x="420" y="1243"/>
      <point x="497" y="1243" type="curve" smooth="yes"/>
      <point x="560" y="1243"/>
      <point x="587" y="1206"/>
      <point x="630" y="1206" type="curve" smooth="yes"/>
      <point x="662" y="1206"/>
      <point x="679" y="1223"/>
      <point x="679" y="1246" type="curve" smooth="yes"/>
      <point x="679" y="1276"/>
      <point x="650" y="1304"/>
      <point x="568" y="1304" type="curve" smooth="yes"/>
      <point x="424" y="1304"/>
      <point x="339" y="1221"/>
      <point x="300" y="1053" type="curve" smooth="yes"/>
      <point x="243" y="802" type="line"/>
      <point x="124" y="802" type="line" smooth="yes"/>
      <point x="107" y="802"/>
      <point x="94" y="793"/>
    </contour>
  </outline>
</glyph>
<glyph name="h" format="2">
  <advance width="884"/>
  <unicode hex="0068"/>
  <outline>
    <contour>
      <point x="217" y="317" type="curve" smooth="yes"/>
      <point x="183" y="217"/>
      <point x="163" y="158"/>
      <point x="163" y="117" type="curve" smooth="yes"/>
      <point x="163" y="78"/>
      <point x="173" y="65"/>
      <point x="173" y="40" type="curve" smooth="yes"/>
      <point x="173" y="6"/>
      <point x="141" y="-14"/>
      <point x="108" y="-14" type="curve" smooth="yes"/>
      <point x="64" y="-14"/>
      <point x="61" y="6"/>
      <point x="96" y="141" type="curve" smooth="yes"/>
      <point x="292" y="898" type="line" smooth="yes"/>
      <point x="373" y="1208"/>
      <point x="566" y="1319"/>
      <point x="804" y="1319" type="curve" smooth="yes"/>
      <point x="867" y="1319"/>
      <point x="894" y="1292"/>
      <point x="894" y="1266" type="curve" smooth="yes"/>
      <point x="894" y="1235"/>
      <point x="874" y="1220"/>
      <point x="835" y="1220" type="curve" smooth="yes"/>
      <point x="796" y="1220"/>
      <point x="744" y="1251"/>
      <point x="680" y="1251" type="curve" smooth="yes"/>
      <point x="541" y="1251"/>
      <point x="420" y="1138"/>
      <point x="359" y="907" type="curve" smooth="yes"/>
      <point x="219" y="384" type="line"/>
      <point x="202" y="385" type="line"/>
      <point x="322" y="679"/>
      <point x="520" y="841"/>
      <point x="687" y="841" type="curve" smooth="yes"/>
      <point x="799" y="841"/>
      <point x="801" y="751"/>
      <point x="742" y="570" type="curve" smooth="yes"/>
      <point x="615" y="177" type="line" smooth="yes"/>
      <point x="586" y="88"/>
      <point x="593" y="53"/>
      <point x="632" y="53" type="curve" smooth="yes"/>
      <point x="653" y="53"/>
      <point x="674" y="61"/>
      <point x="701" y="85" type="curve" smooth="yes"/>
      <point x="717" y="99"/>
      <point x="726" y="112"/>
      <point x="740" y="105" type="curve" smooth="yes"/>
      <point x="751" y="99"/>
      <point x="750" y="82"/>
      <point x="743" y="68" type="curve" smooth="yes"/>
      <point x="724" y="27"/>
      <point x="662" y="-14"/>
      <point x="599" y="-14" type="curve" smooth="yes"/>
      <point x="527" y="-14"/>
      <point x="504" y="29"/>
      <point x="549" y="168" type="curve" smooth="yes"/>
      <point x="679" y="576" type="line" smooth="yes"/>
      <point x="730" y="730"/>
      <point x="708" y="778"/>
      <point x="638" y="778" type="curve" smooth="yes"/>
      <point x="516" y="778"/>
      <point x="315" y="608"/>
    </contour>
  </outline>
</glyph>
<glyph name="i" format="2">
  <advance width="458"/>
  <unicode hex="0069"/>
  <outline>
    <contour>
      <point x="216" y="50" type="curve" smooth="yes"/>
      <point x="238" y="50"/>
      <point x="264" y="63"/>
      <point x="291" y="91" type="curve" smooth="yes"/>
      <point x="305" y="105"/>
      <point x="312" y="110"/>
      <point x="322" y="110" type="curve" smooth="yes"/>
      <point x="331" y="110"/>
      <point x="335" y="102"/>
      <point x="334" y="90" type="curve" smooth="yes"/>
      <point x="332" y="47"/>
      <point x="257" y="-15"/>
      <point x="181" y="-15" type="curve" smooth="yes"/>
      <point x="93" y="-15"/>
      <point x="91" y="83"/>
      <point x="138" y="207" type="curve" smooth="yes"/>
      <point x="295" y="623" type="line" smooth="yes"/>
      <point x="329" y="713"/>
      <point x="324" y="778"/>
      <point x="275" y="778" type="curve" smooth="yes"/>
      <point x="251" y="778"/>
      <point x="228" y="763"/>
      <point x="210" y="746" type="curve" smooth="yes"/>
      <point x="194" y="732"/>
      <point x="187" y="720"/>
      <point x="172" y="720" type="curve" smooth="yes"/>
      <point x="161" y="720"/>
      <point x="154" y="726"/>
      <point x="155" y="742" type="curve" smooth="yes"/>
      <point x="157" y="776"/>
      <point x="239" y="841"/>
      <point x="318" y="842" type="curve" smooth="yes"/>
      <point x="383" y="843"/>
      <point x="411" y="765"/>
      <point x="351" y="607" type="curve" smooth="yes"/>
      <point x="211" y="241" type="line" smooth="yes"/>
      <point x="153" y="88"/>
      <point x="169" y="50"/>
    </contour>
    <contour>
      <point x="418" y="1099" type="curve" smooth="yes"/>
      <point x="451" y="1099"/>
      <point x="505" y="1176"/>
      <point x="506" y="1261" type="curve" smooth="yes"/>
      <point x="506" y="1295"/>
      <point x="492" y="1313"/>
      <point x="468" y="1313" type="curve" smooth="yes"/>
      <point x="430" y="1313"/>
      <point x="381" y="1234"/>
      <point x="379" y="1155" type="curve" smooth="yes"/>
      <point x="379" y="1120"/>
      <point x="395" y="1099"/>
    </contour>
  </outline>
</glyph>
<glyph name="j" format="2">
  <advance width="449"/>
  <unicode hex="006A"/>
  <outline>
    <contour>
      <point x="341" y="568" type="line" smooth="yes"/>
      <point x="394" y="753"/>
      <point x="393" y="842"/>
      <point x="297" y="842" type="curve" smooth="yes"/>
      <point x="220" y="842"/>
      <point x="145" y="776"/>
      <point x="144" y="743" type="curve" smooth="yes"/>
      <point x="143" y="731"/>
      <point x="150" y="721"/>
      <point x="161" y="721" type="curve" smooth="yes"/>
      <point x="172" y="721"/>
      <point x="179" y="725"/>
      <point x="189" y="736" type="curve" smooth="yes"/>
      <point x="212" y="763"/>
      <point x="242" y="778"/>
      <point x="266" y="778" type="curve" smooth="yes"/>
      <point x="315" y="778"/>
      <point x="315" y="696"/>
      <point x="276" y="565" type="curve" smooth="yes"/>
      <point x="80" y="-105" type="line" smooth="yes"/>
      <point x="69" y="-143"/>
      <point x="68" y="-164"/>
      <point x="65" y="-198" type="curve" smooth="yes"/>
      <point x="52" y="-318"/>
      <point x="-10" y="-386"/>
      <point x="-71" y="-386" type="curve" smooth="yes"/>
      <point x="-116" y="-386"/>
      <point x="-133" y="-363"/>
      <point x="-170" y="-363" type="curve" smooth="yes"/>
      <point x="-207" y="-363"/>
      <point x="-224" y="-386"/>
      <point x="-224" y="-411" type="curve" smooth="yes"/>
      <point x="-224" y="-441"/>
      <point x="-195" y="-466"/>
      <point x="-137" y="-466" type="curve" smooth="yes"/>
      <point x="-15" y="-466"/>
      <point x="68" y="-393"/>
      <point x="117" y="-224" type="curve" smooth="yes"/>
    </contour>
    <contour>
      <point x="407" y="1099" type="curve" smooth="yes"/>
      <point x="440" y="1099"/>
      <point x="492" y="1176"/>
      <point x="492" y="1261" type="curve" smooth="yes"/>
      <point x="492" y="1295"/>
      <point x="477" y="1313"/>
      <point x="453" y="1313" type="curve" smooth="yes"/>
      <point x="416" y="1313"/>
      <point x="368" y="1234"/>
      <point x="368" y="1155" type="curve" smooth="yes"/>
      <point x="368" y="1120"/>
      <point x="385" y="1099"/>
    </contour>
  </outline>
</glyph>
<glyph name="k" format="2">
  <advance width="850"/>
  <unicode hex="006B"/>
  <outline>
    <contour>
      <point x="203" y="439" type="line"/>
      <point x="313" y="700"/>
      <point x="517" y="856"/>
      <point x="675" y="841" type="curve" smooth="yes"/>
      <point x="761" y="833"/>
      <point x="815" y="778"/>
      <point x="805" y="675" type="curve" smooth="yes"/>
      <point x="791" y="526"/>
      <point x="583" y="374"/>
      <point x="178" y="285" type="curve"/>
      <point x="182" y="334" type="line"/>
      <point x="572" y="431"/>
      <point x="718" y="549"/>
      <point x="736" y="676" type="curve" smooth="yes"/>
      <point x="746" y="741"/>
      <point x="716" y="787"/>
      <point x="653" y="794" type="curve" smooth="yes"/>
      <point x="515" y="811"/>
      <point x="269" y="577"/>
      <point x="209" y="337" type="curve" smooth="yes"/>
      <point x="161" y="148"/>
      <point x="160" y="125"/>
      <point x="160" y="95" type="curve" smooth="yes"/>
      <point x="160" y="66"/>
      <point x="165" y="55"/>
      <point x="165" y="37" type="curve" smooth="yes"/>
      <point x="165" y="9"/>
      <point x="136" y="-10"/>
      <point x="104" y="-10" type="curve" smooth="yes"/>
      <point x="73" y="-10"/>
      <point x="63" y="20"/>
      <point x="79" y="75" type="curve" smooth="yes"/>
      <point x="288" y="881" type="line" smooth="yes"/>
      <point x="365" y="1174"/>
      <point x="542" y="1319"/>
      <point x="792" y="1319" type="curve" smooth="yes"/>
      <point x="853" y="1319"/>
      <point x="885" y="1294"/>
      <point x="885" y="1267" type="curve" smooth="yes"/>
      <point x="885" y="1244"/>
      <point x="866" y="1221"/>
      <point x="830" y="1221" type="curve" smooth="yes"/>
      <point x="790" y="1221"/>
      <point x="733" y="1252"/>
      <point x="679" y="1252" type="curve" smooth="yes"/>
      <point x="540" y="1252"/>
      <point x="403" y="1107"/>
      <point x="345" y="871" type="curve" smooth="yes"/>
      <point x="274" y="582"/>
      <point x="239" y="501"/>
      <point x="229" y="423" type="curve"/>
    </contour>
    <contour>
      <point x="416" y="366" type="line"/>
      <point x="476" y="393" type="line"/>
      <point x="555" y="153" type="line" smooth="yes"/>
      <point x="577" y="86"/>
      <point x="600" y="64"/>
      <point x="631" y="58" type="curve" smooth="yes"/>
      <point x="654" y="53"/>
      <point x="674" y="70"/>
      <point x="688" y="98" type="curve" smooth="yes"/>
      <point x="692" y="108"/>
      <point x="703" y="114"/>
      <point x="713" y="112" type="curve" smooth="yes"/>
      <point x="725" y="109"/>
      <point x="730" y="98"/>
      <point x="725" y="76" type="curve" smooth="yes"/>
      <point x="714" y="19"/>
      <point x="675" y="-22"/>
      <point x="613" y="-14" type="curve" smooth="yes"/>
      <point x="560" y="-6"/>
      <point x="531" y="29"/>
      <point x="501" y="115" type="curve" smooth="yes"/>
    </contour>
  </outline>
</glyph>
<glyph name="m" format="2">
  <advance width="1322"/>
  <unicode hex="006D"/>
  <outline>
    <contour>
      <point x="557" y="142" type="line" smooth="yes"/>
      <point x="538" y="89"/>
      <point x="509" y="-15"/>
      <point x="562" y="-15" type="curve" smooth="yes"/>
      <point x="602" y="-15"/>
      <point x="633" y="9"/>
      <point x="634" y="42" type="curve" smooth="yes"/>
      <point x="634" y="72"/>
      <point x="622" y="94"/>
      <point x="623" y="120" type="curve" smooth="yes"/>
      <point x="624" y="147"/>
      <point x="634" y="175"/>
      <point x="656" y="245" type="curve" smooth="yes"/>
      <point x="772" y="610"/>
      <point x="958" y="778"/>
      <point x="1087" y="778" type="curve" smooth="yes"/>
      <point x="1174" y="778"/>
      <point x="1174" y="682"/>
      <point x="1141" y="594" type="curve" smooth="yes"/>
      <point x="1001" y="208" type="line" smooth="yes"/>
      <point x="950" y="63"/>
      <point x="930" y="-14"/>
      <point x="1037" y="-14" type="curve" smooth="yes"/>
      <point x="1115" y="-14"/>
      <point x="1185" y="50"/>
      <point x="1186" y="86" type="curve" smooth="yes"/>
      <point x="1187" y="101"/>
      <point x="1180" y="105"/>
      <point x="1170" y="105" type="curve" smooth="yes"/>
      <point x="1162" y="105"/>
      <point x="1152" y="99"/>
      <point x="1138" y="83" type="curve" smooth="yes"/>
      <point x="1116" y="58"/>
      <point x="1095" y="53"/>
      <point x="1076" y="53" type="curve" smooth="yes"/>
      <point x="1030" y="53"/>
      <point x="1023" y="92"/>
      <point x="1065" y="210" type="curve" smooth="yes"/>
      <point x="1194" y="583" type="line" smooth="yes"/>
      <point x="1237" y="704"/>
      <point x="1269" y="841"/>
      <point x="1138" y="841" type="curve" smooth="yes"/>
      <point x="970" y="841"/>
      <point x="732" y="619"/>
      <point x="637" y="293" type="curve"/>
      <point x="666" y="291" type="line"/>
      <point x="703" y="441"/>
      <point x="801" y="639"/>
      <point x="802" y="716" type="curve" smooth="yes"/>
      <point x="804" y="792"/>
      <point x="771" y="841"/>
      <point x="711" y="841" type="curve" smooth="yes"/>
      <point x="553" y="841"/>
      <point x="338" y="667"/>
      <point x="210" y="293" type="curve"/>
      <point x="235" y="289" type="line"/>
      <point x="279" y="515"/>
      <point x="381" y="638"/>
      <point x="384" y="767" type="curve" smooth="yes"/>
      <point x="385" y="813"/>
      <point x="357" y="841"/>
      <point x="314" y="841" type="curve" smooth="yes"/>
      <point x="237" y="841"/>
      <point x="159" y="780"/>
      <point x="157" y="745" type="curve" smooth="yes"/>
      <point x="157" y="730"/>
      <point x="162" y="721"/>
      <point x="172" y="721" type="curve" smooth="yes"/>
      <point x="186" y="721"/>
      <point x="197" y="730"/>
      <point x="206" y="747" type="curve" smooth="yes"/>
      <point x="222" y="770"/>
      <point x="245" y="778"/>
      <point x="269" y="778" type="curve" smooth="yes"/>
      <point x="332" y="778"/>
      <point x="319" y="692"/>
      <point x="291" y="609" type="curve" smooth="yes"/>
      <point x="132" y="149" type="line" smooth="yes"/>
      <point x="95" y="45"/>
      <point x="85" y="-15"/>
      <point x="132" y="-15" type="curve" smooth="yes"/>
      <point x="175" y="-15"/>
      <point x="205" y="7"/>
      <point x="206" y="44" type="curve" smooth="yes"/>
      <point x="206" y="68"/>
      <point x="195" y="94"/>
      <point x="194" y="112" type="curve" smooth="yes"/>
      <point x="195" y="145"/>
      <point x="206" y="184"/>
      <point x="250" y="309" type="curve" smooth="yes"/>
      <point x="349" y="586"/>
      <point x="525" y="780"/>
      <point x="657" y="780" type="curve" smooth="yes"/>
      <point x="737" y="780"/>
      <point x="749" y="693"/>
      <point x="716" y="598" type="curve" smooth="yes"/>
    </contour>
  </outline>
</glyph>
<glyph name="o" format="2">
  <advance width="791"/>
  <unicode hex="006F"/>
  <outline>
    <contour>
      <point x="508" y="841" type="curve" smooth="yes"/>
      <point x="294" y="859"/>
      <point x="107" y="644"/>
      <point x="65" y="397" type="curve" smooth="yes"/>
      <point x="24" y="155"/>
      <point x="128" y="-1"/>
      <point x="280" y="-14" type="curve" smooth="yes"/>
      <point x="487" y="-32"/>
      <point x="678" y="121"/>
      <point x="725" y="436" type="curve" smooth="yes"/>
      <point x="761" y="664"/>
      <point x="674" y="826"/>
    </contour>
    <contour>
      <point x="302" y="39" type="curve" smooth="yes"/>
      <point x="173" y="49"/>
      <point x="99" y="173"/>
      <point x="134" y="385" type="curve" smooth="yes"/>
      <point x="175" y="636"/>
      <point x="322" y="802"/>
      <point x="486" y="789" type="curve" smooth="yes"/>
      <point x="608" y="780"/>
      <point x="687" y="644"/>
      <point x="657" y="445" type="curve" smooth="yes"/>
      <point x="611" y="150"/>
      <point x="448" y="28"/>
    </contour>
  </outline>
</glyph>
<glyph name="q" format="2">
  <advance width="778"/>
  <unicode hex="0071"/>
  <outline>
    <contour>
      <point x="606" y="404" type="line"/>
      <point x="413" y="-311" type="line" smooth="yes"/>
      <point x="397" y="-370"/>
      <point x="362" y="-396"/>
      <point x="270" y="-404" type="curve" smooth="yes"/>
      <point x="233" y="-407"/>
      <point x="224" y="-418"/>
      <point x="224" y="-427" type="curve" smooth="yes"/>
      <point x="224" y="-445"/>
      <point x="249" y="-454"/>
      <point x="275" y="-454" type="curve" smooth="yes"/>
      <point x="566" y="-443" type="line" smooth="yes"/>
      <point x="589" y="-443"/>
      <point x="599" y="-431"/>
      <point x="599" y="-416" type="curve" smooth="yes"/>
      <point x="599" y="-404"/>
      <point x="589" y="-395"/>
      <point x="568" y="-394" type="curve" smooth="yes"/>
      <point x="509" y="-385" type="line" smooth="yes"/>
      <point x="479" y="-382"/>
      <point x="471" y="-358"/>
      <point x="484" y="-307" type="curve" smooth="yes"/>
      <point x="733" y="655" type="line" smooth="yes"/>
      <point x="745" y="701"/>
      <point x="770" y="727"/>
      <point x="770" y="761" type="curve" smooth="yes"/>
      <point x="771" y="811"/>
      <point x="719" y="842"/>
      <point x="623" y="842" type="curve" smooth="yes"/>
      <point x="322" y="842"/>
      <point x="40" y="500"/>
      <point x="39" y="162" type="curve" smooth="yes"/>
      <point x="39" y="43"/>
      <point x="98" y="-14"/>
      <point x="189" y="-14" type="curve" smooth="yes"/>
      <point x="339" y="-14"/>
      <point x="513" y="124"/>
      <point x="624" y="390" type="curve"/>
    </contour>
    <contour>
      <point x="112" y="190" type="curve" smooth="yes"/>
      <point x="112" y="492"/>
      <point x="353" y="792"/>
      <point x="589" y="792" type="curve" smooth="yes"/>
      <point x="644" y="792"/>
      <point x="674" y="773"/>
      <point x="674" y="728" type="curve" smooth="yes"/>
      <point x="674" y="417"/>
      <point x="419" y="51"/>
      <point x="217" y="51" type="curve" smooth="yes"/>
      <point x="152" y="51"/>
      <point x="111" y="94"/>
    </contour>
  </outline>
</glyph>
<glyph name="r" format="2">
  <advance width="705"/>
  <unicode hex="0072"/>
  <outline>
    <contour>
      <point x="178" y="722" type="curve" smooth="yes"/>
      <point x="196" y="722"/>
      <point x="208" y="740"/>
      <point x="227" y="758" type="curve" smooth="yes"/>
      <point x="241" y="772"/>
      <point x="255" y="783"/>
      <point x="282" y="783" type="curve" smooth="yes"/>
      <point x="326" y="783"/>
      <point x="330" y="733"/>
      <point x="293" y="615" type="curve" smooth="yes"/>
      <point x="153" y="160" type="line" smooth="yes"/>
      <point x="113" y="29"/>
      <point x="123" y="-15"/>
      <point x="173" y="-15" type="curve" smooth="yes"/>
      <point x="207" y="-15"/>
      <point x="244" y="7"/>
      <point x="244" y="33" type="curve" smooth="yes"/>
      <point x="244" y="52"/>
      <point x="211" y="81"/>
      <point x="211" y="110" type="curve" smooth="yes"/>
      <point x="211" y="143"/>
      <point x="222" y="187"/>
      <point x="254" y="285" type="curve" smooth="yes"/>
      <point x="343" y="571"/>
      <point x="517" y="791"/>
      <point x="617" y="791" type="curve" smooth="yes"/>
      <point x="646" y="791"/>
      <point x="661" y="764"/>
      <point x="660" y="725" type="curve" smooth="yes"/>
      <point x="659" y="696"/>
      <point x="651" y="677"/>
      <point x="651" y="660" type="curve" smooth="yes"/>
      <point x="650" y="635"/>
      <point x="661" y="622"/>
      <point x="676" y="622" type="curve" smooth="yes"/>
      <point x="713" y="622"/>
      <point x="733" y="655"/>
      <point x="734" y="721" type="curve" smooth="yes"/>
      <point x="735" y="792"/>
      <point x="700" y="841"/>
      <point x="638" y="841" type="curve" smooth="yes"/>
      <point x="486" y="841"/>
      <point x="321" y="597"/>
      <point x="245" y="351" type="curve"/>
      <point x="262" y="347" type="line"/>
      <point x="264" y="430"/>
      <point x="386" y="654"/>
      <point x="389" y="764" type="curve" smooth="yes"/>
      <point x="390" y="815"/>
      <point x="368" y="841"/>
      <point x="315" y="841" type="curve" smooth="yes"/>
      <point x="232" y="841"/>
      <point x="162" y="783"/>
      <point x="161" y="744" type="curve" smooth="yes"/>
      <point x="160" y="730"/>
      <point x="167" y="722"/>
    </contour>
  </outline>
</glyph>
<glyph name="s" format="2">
  <advance width="619"/>
  <unicode hex="0073"/>
  <outline>
    <contour>
      <point x="266" y="39" type="curve" smooth="yes"/>
      <point x="194" y="39"/>
      <point x="136" y="73"/>
      <point x="103" y="149" type="curve" smooth="yes"/>
      <point x="87" y="181"/>
      <point x="71" y="191"/>
      <point x="53" y="191" type="curve" smooth="yes"/>
      <point x="34" y="191"/>
      <point x="18" y="175"/>
      <point x="18" y="148" type="curve" smooth="yes"/>
      <point x="17" y="79"/>
      <point x="108" y="-14"/>
      <point x="236" y="-14" type="curve" smooth="yes"/>
      <point x="394" y="-14"/>
      <point x="483" y="77"/>
      <point x="484" y="191" type="curve" smooth="yes"/>
      <point x="486" y="260"/>
      <point x="460" y="311"/>
      <point x="344" y="425" type="curve" smooth="yes"/>
      <point x="251" y="515"/>
      <point x="227" y="569"/>
      <point x="227" y="628" type="curve" smooth="yes"/>
      <point x="230" y="717"/>
      <point x="300" y="798"/>
      <point x="412" y="798" type="curve" smooth="yes"/>
      <point x="480" y="798"/>
      <point x="518" y="760"/>
      <point x="540" y="693" type="curve" smooth="yes"/>
      <point x="552" y="659"/>
      <point x="568" y="645"/>
      <point x="585" y="645" type="curve" smooth="yes"/>
      <point x="609" y="645"/>
      <point x="624" y="658"/>
      <point x="623" y="685" type="curve" smooth="yes"/>
      <point x="625" y="760"/>
      <point x="547" y="842"/>
      <point x="433" y="842" type="curve" smooth="yes"/>
      <point x="260" y="842"/>
      <point x="160" y="733"/>
      <point x="158" y="604" type="curve" smooth="yes"/>
      <point x="157" y="522"/>
      <point x="189" y="475"/>
      <point x="299" y="368" type="curve" smooth="yes"/>
      <point x="393" y="275"/>
      <point x="414" y="227"/>
      <point x="412" y="170" type="curve" smooth="yes"/>
      <point x="411" y="92"/>
      <point x="352" y="39"/>
    </contour>
  </outline>
</glyph>
<glyph name="t" format="2">
  <advance width="548"/>
  <unicode hex="0074"/>
  <outline>
    <contour>
      <point x="252" y="753" type="line" smooth="yes"/>
      <point x="280" y="745"/>
      <point x="276" y="723"/>
      <point x="257" y="664" type="curve" smooth="yes"/>
      <point x="111" y="185" type="line" smooth="yes"/>
      <point x="75" y="65"/>
      <point x="89" y="-14"/>
      <point x="189" y="-14" type="curve" smooth="yes"/>
      <point x="305" y="-14"/>
      <point x="449" y="84"/>
      <point x="450" y="151" type="curve" smooth="yes"/>
      <point x="451" y="162"/>
      <point x="445" y="169"/>
      <point x="435" y="169" type="curve" smooth="yes"/>
      <point x="424" y="169"/>
      <point x="421" y="167"/>
      <point x="406" y="151" type="curve" smooth="yes"/>
      <point x="351" y="86"/>
      <point x="302" y="59"/>
      <point x="237" y="59" type="curve" smooth="yes"/>
      <point x="171" y="59"/>
      <point x="147" y="98"/>
      <point x="198" y="259" type="curve" smooth="yes"/>
      <point x="404" y="911" type="line" smooth="yes"/>
      <point x="411" y="933"/>
      <point x="416" y="949"/>
      <point x="416" y="962" type="curve" smooth="yes"/>
      <point x="416" y="979"/>
      <point x="411" y="986"/>
      <point x="398" y="986" type="curve" smooth="yes"/>
      <point x="387" y="986"/>
      <point x="378" y="982"/>
      <point x="367" y="964" type="curve" smooth="yes"/>
      <point x="293" y="843" type="line" smooth="yes"/>
      <point x="285" y="830"/>
      <point x="277" y="822"/>
      <point x="259" y="822" type="curve" smooth="yes"/>
      <point x="176" y="822" type="line" smooth="yes"/>
      <point x="159" y="822"/>
      <point x="145" y="811"/>
      <point x="145" y="800" type="curve" smooth="yes"/>
      <point x="145" y="786"/>
      <point x="155" y="776"/>
      <point x="171" y="773" type="curve" smooth="yes"/>
    </contour>
    <contour>
      <point x="287" y="769" type="line"/>
      <point x="553" y="769" type="line" smooth="yes"/>
      <point x="585" y="769"/>
      <point x="606" y="780"/>
      <point x="607" y="802" type="curve" smooth="yes"/>
      <point x="607" y="813"/>
      <point x="596" y="822"/>
      <point x="581" y="822" type="curve" smooth="yes"/>
      <point x="303" y="822" type="line"/>
    </contour>
  </outline>
</glyph>
<glyph name="v" format="2">
  <advance width="819"/>
  <unicode hex="0076"/>
  <outline>
    <contour>
      <point x="799" y="705" type="curve" smooth="yes"/>
      <point x="800" y="802"/>
      <point x="766" y="841"/>
      <point x="722" y="841" type="curve" smooth="yes"/>
      <point x="698" y="841"/>
      <point x="679" y="819"/>
      <point x="678" y="799" type="curve" smooth="yes"/>
      <point x="678" y="773"/>
      <point x="688" y="756"/>
      <point x="715" y="730" type="curve" smooth="yes"/>
      <point x="735" y="710"/>
      <point x="739" y="679"/>
      <point x="738" y="616" type="curve" smooth="yes"/>
      <point x="731" y="346"/>
      <point x="511" y="46"/>
      <point x="356" y="46" type="curve" smooth="yes"/>
      <point x="285" y="46"/>
      <point x="249" y="92"/>
      <point x="250" y="180" type="curve" smooth="yes"/>
      <point x="254" y="371"/>
      <point x="410" y="533"/>
      <point x="482" y="782" type="curve" smooth="yes"/>
      <point x="493" y="819"/>
      <point x="495" y="840"/>
      <point x="478" y="843" type="curve" smooth="yes"/>
      <point x="456" y="846"/>
      <point x="442" y="810"/>
      <point x="417" y="810" type="curve" smooth="yes"/>
      <point x="369" y="810"/>
      <point x="276" y="842"/>
      <point x="235" y="842" type="curve" smooth="yes"/>
      <point x="138" y="842"/>
      <point x="83" y="771"/>
      <point x="81" y="675" type="curve" smooth="yes"/>
      <point x="80" y="628"/>
      <point x="100" y="608"/>
      <point x="126" y="608" type="curve" smooth="yes"/>
      <point x="146" y="608"/>
      <point x="166" y="625"/>
      <point x="166" y="649" type="curve" smooth="yes"/>
      <point x="167" y="662"/>
      <point x="164" y="672"/>
      <point x="153" y="683" type="curve" smooth="yes"/>
      <point x="145" y="692"/>
      <point x="140" y="703"/>
      <point x="141" y="718" type="curve" smooth="yes"/>
      <point x="142" y="756"/>
      <point x="168" y="786"/>
      <point x="212" y="786" type="curve" smooth="yes"/>
      <point x="269" y="786"/>
      <point x="387" y="747"/>
      <point x="439" y="747" type="curve"/>
      <point x="438" y="783" type="line"/>
      <point x="379" y="573"/>
      <point x="192" y="385"/>
      <point x="181" y="178" type="curve" smooth="yes"/>
      <point x="174" y="55"/>
      <point x="228" y="-15"/>
      <point x="319" y="-15" type="curve" smooth="yes"/>
      <point x="539" y="-15"/>
      <point x="791" y="318"/>
    </contour>
  </outline>
</glyph>
<glyph name="w" format="2">
  <advance width="1235"/>
  <unicode hex="0077"/>
  <outline>
    <contour>
      <point x="800" y="844" type="curve" smooth="yes"/>
      <point x="773" y="849"/>
      <point x="760" y="815"/>
      <point x="731" y="712" type="curve" smooth="yes"/>
      <point x="676" y="514"/>
      <point x="654" y="363"/>
      <point x="652" y="258" type="curve" smooth="yes"/>
      <point x="648" y="83"/>
      <point x="708" y="-14"/>
      <point x="819" y="-14" type="curve" smooth="yes"/>
      <point x="989" y="-14"/>
      <point x="1202" y="257"/>
      <point x="1211" y="707" type="curve" smooth="yes"/>
      <point x="1213" y="811"/>
      <point x="1183" y="840"/>
      <point x="1147" y="840" type="curve" smooth="yes"/>
      <point x="1115" y="840"/>
      <point x="1093" y="816"/>
      <point x="1092" y="789" type="curve" smooth="yes"/>
      <point x="1093" y="771"/>
      <point x="1100" y="746"/>
      <point x="1119" y="716" type="curve" smooth="yes"/>
      <point x="1133" y="691"/>
      <point x="1144" y="660"/>
      <point x="1143" y="617" type="curve" smooth="yes"/>
      <point x="1135" y="268"/>
      <point x="957" y="47"/>
      <point x="834" y="47" type="curve" smooth="yes"/>
      <point x="754" y="47"/>
      <point x="716" y="117"/>
      <point x="720" y="273" type="curve" smooth="yes"/>
      <point x="722" y="411"/>
      <point x="756" y="577"/>
      <point x="768" y="623" type="curve"/>
      <point x="660" y="190"/>
      <point x="476" y="45"/>
      <point x="356" y="45" type="curve" smooth="yes"/>
      <point x="285" y="45"/>
      <point x="248" y="91"/>
      <point x="250" y="185" type="curve" smooth="yes"/>
      <point x="255" y="366"/>
      <point x="408" y="545"/>
      <point x="483" y="771" type="curve" smooth="yes"/>
      <point x="497" y="812"/>
      <point x="498" y="837"/>
      <point x="483" y="840" type="curve" smooth="yes"/>
      <point x="459" y="845"/>
      <point x="446" y="807"/>
      <point x="418" y="807" type="curve" smooth="yes"/>
      <point x="367" y="807"/>
      <point x="269" y="841"/>
      <point x="233" y="841" type="curve" smooth="yes"/>
      <point x="139" y="841"/>
      <point x="83" y="768"/>
      <point x="81" y="678" type="curve" smooth="yes"/>
      <point x="81" y="631"/>
      <point x="97" y="608"/>
      <point x="127" y="608" type="curve" smooth="yes"/>
      <point x="146" y="608"/>
      <point x="166" y="625"/>
      <point x="166" y="650" type="curve" smooth="yes"/>
      <point x="166" y="664"/>
      <point x="160" y="676"/>
      <point x="151" y="686" type="curve" smooth="yes"/>
      <point x="144" y="694"/>
      <point x="141" y="703"/>
      <point x="142" y="718" type="curve" smooth="yes"/>
      <point x="143" y="760"/>
      <point x="173" y="785"/>
      <point x="203" y="785" type="curve" smooth="yes"/>
      <point x="256" y="785"/>
      <point x="368" y="744"/>
      <point x="435" y="744" type="curve"/>
      <point x="436" y="772" type="line"/>
      <point x="408" y="639"/>
      <point x="184" y="354"/>
      <point x="180" y="179" type="curve" smooth="yes"/>
      <point x="178" y="63"/>
      <point x="230" y="-14"/>
      <point x="325" y="-14" type="curve" smooth="yes"/>
      <point x="506" y="-14"/>
      <point x="701" y="156"/>
      <point x="801" y="683" type="curve" smooth="yes"/>
      <point x="823" y="792"/>
      <point x="825" y="839"/>
    </contour>
  </outline>
</glyph>
<glyph name="x" format="2">
  <advance width="896"/>
  <unicode hex="0078"/>
  <outline>
    <contour>
      <point x="454" y="463" type="line"/>
      <point x="324" y="111"/>
      <point x="207" y="37"/>
      <point x="135" y="37" type="curve" smooth="yes"/>
      <point x="98" y="37"/>
      <point x="84" y="61"/>
      <point x="85" y="98" type="curve" smooth="yes"/>
      <point x="86" y="132"/>
      <point x="91" y="161"/>
      <point x="92" y="186" type="curve" smooth="yes"/>
      <point x="92" y="215"/>
      <point x="77" y="234"/>
      <point x="57" y="234" type="curve" smooth="yes"/>
      <point x="28" y="234"/>
      <point x="7" y="198"/>
      <point x="7" y="130" type="curve" smooth="yes"/>
      <point x="5" y="44"/>
      <point x="41" y="-17"/>
      <point x="123" y="-17" type="curve" smooth="yes"/>
      <point x="225" y="-17"/>
      <point x="375" y="101"/>
      <point x="490" y="453" type="curve"/>
    </contour>
    <contour>
      <point x="513" y="658" type="line" smooth="yes"/>
      <point x="519" y="781"/>
      <point x="477" y="842"/>
      <point x="400" y="842" type="curve" smooth="yes"/>
      <point x="317" y="842"/>
      <point x="239" y="800"/>
      <point x="188" y="730" type="curve" smooth="yes"/>
      <point x="175" y="712"/>
      <point x="173" y="695"/>
      <point x="191" y="686" type="curve" smooth="yes"/>
      <point x="205" y="680"/>
      <point x="225" y="692"/>
      <point x="236" y="707" type="curve" smooth="yes"/>
      <point x="275" y="765"/>
      <point x="324" y="788"/>
      <point x="376" y="788" type="curve" smooth="yes"/>
      <point x="424" y="788"/>
      <point x="455" y="744"/>
      <point x="452" y="660" type="curve" smooth="yes"/>
      <point x="431" y="180" type="line" smooth="yes"/>
      <point x="426" y="48"/>
      <point x="474" y="-14"/>
      <point x="558" y="-14" type="curve" smooth="yes"/>
      <point x="632" y="-14"/>
      <point x="710" y="22"/>
      <point x="757" y="99" type="curve" smooth="yes"/>
      <point x="770" y="121"/>
      <point x="763" y="145"/>
      <point x="750" y="149" type="curve" smooth="yes"/>
      <point x="734" y="155"/>
      <point x="724" y="143"/>
      <point x="707" y="123" type="curve" smooth="yes"/>
      <point x="657" y="63"/>
      <point x="617" y="42"/>
      <point x="573" y="42" type="curve" smooth="yes"/>
      <point x="522" y="42"/>
      <point x="483" y="80"/>
      <point x="488" y="183" type="curve" smooth="yes"/>
    </contour>
    <contour>
      <point x="484" y="364" type="line"/>
      <point x="613" y="699"/>
      <point x="721" y="788"/>
      <point x="799" y="788" type="curve" smooth="yes"/>
      <point x="828" y="788"/>
      <point x="843" y="770"/>
      <point x="843" y="741" type="curve" smooth="yes"/>
      <point x="842" y="706"/>
      <point x="827" y="669"/>
      <point x="826" y="643" type="curve" smooth="yes"/>
      <point x="826" y="616"/>
      <point x="837" y="600"/>
      <point x="854" y="600" type="curve" smooth="yes"/>
      <point x="888" y="600"/>
      <point x="916" y="648"/>
      <point x="916" y="730" type="curve" smooth="yes"/>
      <point x="916" y="794"/>
      <point x="881" y="841"/>
      <point x="811" y="841" type="curve" smooth="yes"/>
      <point x="701" y="841"/>
      <point x="569" y="737"/>
      <point x="446" y="377" type="curve"/>
    </contour>
  </outline>
</glyph>
<glyph name="y" format="2">
  <advance width="777"/>
  <unicode hex="0079"/>
  <outline>
    <contour>
      <point x="467" y="339" type="curve" smooth="yes"/>
      <point x="292" y="-90" type="line"/>
      <point x="327" y="-88" type="line"/>
      <point x="334" y="159"/>
      <point x="347" y="614"/>
      <point x="343" y="712" type="curve" smooth="yes"/>
      <point x="340" y="802"/>
      <point x="310" y="844"/>
      <point x="267" y="844" type="curve" smooth="yes"/>
      <point x="203" y="844"/>
      <point x="148" y="800"/>
      <point x="128" y="754" type="curve" smooth="yes"/>
      <point x="121" y="734"/>
      <point x="125" y="720"/>
      <point x="140" y="717" type="curve" smooth="yes"/>
      <point x="150" y="714"/>
      <point x="168" y="719"/>
      <point x="184" y="742" type="curve" smooth="yes"/>
      <point x="198" y="761"/>
      <point x="214" y="773"/>
      <point x="230" y="773" type="curve" smooth="yes"/>
      <point x="258" y="773"/>
      <point x="279" y="738"/>
      <point x="279" y="663" type="curve" smooth="yes"/>
      <point x="280" y="464"/>
      <point x="273" y="155"/>
      <point x="267" y="-8" type="curve" smooth="yes"/>
      <point x="256" y="-260"/>
      <point x="127" y="-391"/>
      <point x="0" y="-391" type="curve" smooth="yes"/>
      <point x="-73" y="-391"/>
      <point x="-112" y="-348"/>
      <point x="-149" y="-348" type="curve" smooth="yes"/>
      <point x="-179" y="-348"/>
      <point x="-196" y="-365"/>
      <point x="-196" y="-395" type="curve" smooth="yes"/>
      <point x="-197" y="-431"/>
      <point x="-156" y="-460"/>
      <point x="-89" y="-460" type="curve" smooth="yes"/>
      <point x="107" y="-460"/>
      <point x="219" y="-375"/>
      <point x="337" y="-93" type="curve" smooth="yes"/>
      <point x="508" y="317" type="line" smooth="yes"/>
      <point x="666" y="697"/>
      <point x="735" y="754"/>
      <point x="829" y="765" type="curve" smooth="yes"/>
      <point x="871" y="770"/>
      <point x="890" y="788"/>
      <point x="890" y="811" type="curve" smooth="yes"/>
      <point x="890" y="834"/>
      <point x="874" y="849"/>
      <point x="842" y="849" type="curve" smooth="yes"/>
      <point x="723" y="849"/>
      <point x="613" y="696"/>
    </contour>
  </outline>
</glyph>
<glyph name="z" format="2">
  <advance width="703"/>
  <unicode hex="007A"/>
  <outline>
    <contour>
      <point x="135" y="65" type="curve"/>
      <point x="144" y="91" type="line"/>
      <point x="249" y="91"/>
      <point x="357" y="52"/>
      <point x="444" y="52" type="curve" smooth="yes"/>
      <point x="504" y="52"/>
      <point x="548" y="83"/>
      <point x="569" y="174" type="curve" smooth="yes"/>
      <point x="572" y="188"/>
      <point x="583" y="192"/>
      <point x="589" y="192" type="curve" smooth="yes"/>
      <point x="600" y="192"/>
      <point x="605" y="183"/>
      <point x="605" y="167" type="curve" smooth="yes"/>
      <point x="605" y="74"/>
      <point x="539" y="-14"/>
      <point x="433" y="-14" type="curve" smooth="yes"/>
      <point x="314" y="-14"/>
      <point x="204" y="45"/>
      <point x="149" y="45" type="curve" smooth="yes"/>
      <point x="126" y="45"/>
      <point x="112" y="-13"/>
      <point x="64" y="-13" type="curve" smooth="yes"/>
      <point x="35" y="-13"/>
      <point x="18" y="5"/>
      <point x="18" y="35" type="curve" smooth="yes"/>
      <point x="18" y="59"/>
      <point x="33" y="81"/>
      <point x="57" y="90" type="curve" smooth="yes"/>
      <point x="92" y="107"/>
      <point x="132" y="161"/>
      <point x="356" y="431" type="curve" smooth="yes"/>
      <point x="522" y="631"/>
      <point x="581" y="716"/>
      <point x="602" y="756" type="curve"/>
      <point x="624" y="745" type="line"/>
      <point x="560" y="745"/>
      <point x="396" y="785"/>
      <point x="312" y="785" type="curve" smooth="yes"/>
      <point x="248" y="785"/>
      <point x="215" y="761"/>
      <point x="215" y="724" type="curve" smooth="yes"/>
      <point x="215" y="713"/>
      <point x="221" y="695"/>
      <point x="239" y="677" type="curve" smooth="yes"/>
      <point x="251" y="666"/>
      <point x="256" y="650"/>
      <point x="256" y="637" type="curve" smooth="yes"/>
      <point x="256" y="613"/>
      <point x="243" y="598"/>
      <point x="221" y="598" type="curve" smooth="yes"/>
      <point x="186" y="598"/>
      <point x="161" y="629"/>
      <point x="161" y="682" type="curve" smooth="yes"/>
      <point x="161" y="768"/>
      <point x="223" y="842"/>
      <point x="324" y="842" type="curve" smooth="yes"/>
      <point x="419" y="842"/>
      <point x="504" y="799"/>
      <point x="572" y="799" type="curve" smooth="yes"/>
      <point x="621" y="799"/>
      <point x="632" y="842"/>
      <point x="677" y="842" type="curve" smooth="yes"/>
      <point x="698" y="842"/>
      <point x="713" y="825"/>
      <point x="713" y="801" type="curve" smooth="yes"/>
      <point x="713" y="773"/>
      <point x="697" y="751"/>
      <point x="668" y="724" type="curve" smooth="yes"/>
      <point x="629" y="685"/>
      <point x="560" y="597"/>
      <point x="396" y="403" type="curve" smooth="yes"/>
      <point x="227" y="208"/>
      <point x="190" y="156"/>
    </contour>
  </outline>
</glyph>
<glyph name="braceleft" format="2">
  <advance width="633"/>
  <unicode hex="007B"/>
  <outline>
    <contour>
      <point x="320" y="612" type="curve" smooth="yes"/>
      <point x="323" y="623"/>
      <point x="331" y="630"/>
      <point x="346" y="630" type="curve" smooth="yes"/>
      <point x="472" y="630"/>
      <point x="539" y="687"/>
      <point x="561" y="768" type="curve" smooth="yes"/>
      <point x="604" y="930"/>
      <point x="412" y="1081"/>
      <point x="457" y="1251" type="curve" smooth="yes"/>
      <point x="490" y="1367"/>
      <point x="584" y="1423"/>
      <point x="725" y="1423" type="curve" smooth="yes"/>
      <point x="838" y="1423" type="line" smooth="yes"/>
      <point x="855" y="1423"/>
      <point x="870" y="1432"/>
      <point x="874" y="1450" type="curve" smooth="yes"/>
      <point x="880" y="1471"/>
      <point x="871" y="1480"/>
      <point x="855" y="1480" type="curve" smooth="yes"/>
      <point x="736" y="1480" type="line" smooth="yes"/>
      <point x="543" y="1480"/>
      <point x="426" y="1385"/>
      <point x="391" y="1252" type="curve" smooth="yes"/>
      <point x="342" y="1070"/>
      <point x="528" y="894"/>
      <point x="495" y="768" type="curve" smooth="yes"/>
      <point x="479" y="708"/>
      <point x="437" y="670"/>
      <point x="368" y="670" type="curve" smooth="yes"/>
      <point x="326" y="670"/>
      <point x="308" y="686"/>
      <point x="256" y="686" type="curve" smooth="yes"/>
      <point x="209" y="686"/>
      <point x="173" y="647"/>
      <point x="163" y="612" type="curve" smooth="yes"/>
      <point x="153" y="577"/>
      <point x="169" y="537"/>
      <point x="216" y="537" type="curve" smooth="yes"/>
      <point x="268" y="537"/>
      <point x="294" y="553"/>
      <point x="336" y="553" type="curve" smooth="yes"/>
      <point x="405" y="553"/>
      <point x="427" y="516"/>
      <point x="411" y="456" type="curve" smooth="yes"/>
      <point x="377" y="329"/>
      <point x="96" y="152"/>
      <point x="48" y="-29" type="curve" smooth="yes"/>
      <point x="12" y="-162"/>
      <point x="77" y="-257"/>
      <point x="271" y="-257" type="curve" smooth="yes"/>
      <point x="388" y="-257" type="line" smooth="yes"/>
      <point x="405" y="-257"/>
      <point x="419" y="-248"/>
      <point x="424" y="-228" type="curve" smooth="yes"/>
      <point x="430" y="-210"/>
      <point x="421" y="-200"/>
      <point x="404" y="-200" type="curve" smooth="yes"/>
      <point x="290" y="-200" type="line" smooth="yes"/>
      <point x="150" y="-200"/>
      <point x="85" y="-144"/>
      <point x="115" y="-28" type="curve" smooth="yes"/>
      <point x="160" y="142"/>
      <point x="433" y="292"/>
      <point x="477" y="456" type="curve" smooth="yes"/>
      <point x="499" y="536"/>
      <point x="462" y="594"/>
      <point x="336" y="594" type="curve" smooth="yes"/>
      <point x="321" y="594"/>
      <point x="317" y="601"/>
    </contour>
  </outline>
</glyph>
<glyph name="bar" format="2">
  <advance width="369"/>
  <unicode hex="007C"/>
  <outline>
    <contour>
      <point x="224" y="628" type="curve" smooth="yes"/>
      <point x="172" y="433"/>
      <point x="39" y="-23"/>
      <point x="-26" y="-264" type="curve" smooth="yes"/>
      <point x="-33" y="-293"/>
      <point x="-24" y="-312"/>
      <point x="-2" y="-312" type="curve" smooth="yes"/>
      <point x="20" y="-312"/>
      <point x="42" y="-293"/>
      <point x="49" y="-264" type="curve" smooth="yes"/>
      <point x="103" y="-60"/>
      <point x="223" y="419"/>
      <point x="279" y="628" type="curve" smooth="yes"/>
      <point x="335" y="835"/>
      <point x="473" y="1316"/>
      <point x="527" y="1518" type="curve" smooth="yes"/>
      <point x="534" y="1547"/>
      <point x="524" y="1567"/>
      <point x="501" y="1567" type="curve" smooth="yes"/>
      <point x="481" y="1567"/>
      <point x="460" y="1547"/>
      <point x="452" y="1518" type="curve" smooth="yes"/>
      <point x="387" y="1277"/>
      <point x="275" y="821"/>
    </contour>
  </outline>
</glyph>
<glyph name="endash" format="2">
  <advance width="834"/>
  <unicode hex="2013"/>
  <outline>
    <contour>
      <point x="98" y="491" type="curve" smooth="yes"/>
      <point x="95" y="472"/>
      <point x="100" y="462"/>
      <point x="116" y="462" type="curve" smooth="yes"/>
      <point x="781" y="462" type="line" smooth="yes"/>
      <point x="797" y="462"/>
      <point x="805" y="472"/>
      <point x="809" y="491" type="curve" smooth="yes"/>
      <point x="812" y="509"/>
      <point x="808" y="520"/>
      <point x="792" y="520" type="curve" smooth="yes"/>
      <point x="126" y="520" type="line" smooth="yes"/>
      <point x="111" y="520"/>
      <point x="101" y="509"/>
    </contour>
  </outline>
</glyph>
<glyph name="emdash" format="2">
  <advance width="1357"/>
  <unicode hex="2014"/>
  <outline>
    <contour>
      <point x="98" y="491" type="curve" smooth="yes"/>
      <point x="95" y="472"/>
      <point x="100" y="462"/>
      <point x="116" y="462" type="curve" smooth="yes"/>
      <point x="1304" y="462" type="line" smooth="yes"/>
      <point x="1320" y="462"/>
      <point x="1328" y="472"/>
      <point x="1331" y="491" type="curve" smooth="yes"/>
      <point x="1334" y="509"/>
      <point x="1330" y="520"/>
      <point x="1314" y="520" type="curve" smooth="yes"/>
      <point x="126" y="520" type="line" smooth="yes"/>
      <point x="111" y="520"/>
      <point x="101" y="509"/>
    </contour>
  </outline>
</glyph>
<glyph name="guilsinglleft" format="2">
  <advance width="505"/>
  <unicode hex="2039"/>
  <outline>
    <contour>
      <point x="61" y="444" type="curve" smooth="yes"/>
      <point x="56" y="422"/>
      <point x="59" y="416"/>
      <point x="99" y="367" type="curve" smooth="yes"/>
      <point x="221" y="211"/>
      <point x="265" y="156"/>
      <point x="332" y="49" type="curve" smooth="yes"/>
      <point x="340" y="39"/>
      <point x="349" y="31"/>
      <point x="365" y="40" type="curve" smooth="yes"/>
      <point x="380" y="51"/>
      <point x="381" y="63"/>
      <point x="374" y="76" type="curve" smooth="yes"/>
      <point x="330" y="177"/>
      <point x="269" y="276"/>
      <point x="127" y="467" type="curve"/>
      <point x="116" y="423" type="line"/>
      <point x="351" y="614"/>
      <point x="462" y="713"/>
      <point x="557" y="814" type="curve" smooth="yes"/>
      <point x="570" y="827"/>
      <point x="576" y="839"/>
      <point x="566" y="850" type="curve" smooth="yes"/>
      <point x="555" y="859"/>
      <point x="542" y="851"/>
      <point x="528" y="841" type="curve" smooth="yes"/>
      <point x="408" y="733"/>
      <point x="336" y="679"/>
      <point x="139" y="523" type="curve" smooth="yes"/>
      <point x="75" y="474"/>
      <point x="67" y="468"/>
    </contour>
  </outline>
</glyph>
<glyph name="W" format="2">
  <advance width="1638"/>
  <anchor x="1271" y="1478" name="center"/>
  <outline>
    <contour>
      <point x="1001" y="1067" type="line"/>
      <point x="375" y="100" type="line"/>
      <point x="398" y="107" type="line"/>
      <point x="401" y="287"/>
      <point x="411" y="1093"/>
      <point x="420" y="1267" type="curve" smooth="yes"/>
      <point x="423" y="1330"/>
      <point x="442" y="1344"/>
      <point x="485" y="1349" type="curve" smooth="yes"/>
      <point x="550" y="1359" type="line" smooth="yes"/>
      <point x="581" y="1362"/>
      <point x="594" y="1372"/>
      <point x="594" y="1386" type="curve" smooth="yes"/>
      <point x="595" y="1398"/>
      <point x="588" y="1400"/>
      <point x="572" y="1400" type="curve" smooth="yes"/>
      <point x="274" y="1400" type="line" smooth="yes"/>
      <point x="259" y="1400"/>
      <point x="248" y="1395"/>
      <point x="247" y="1380" type="curve" smooth="yes"/>
      <point x="247" y="1370"/>
      <point x="259" y="1361"/>
      <point x="291" y="1359" type="curve" smooth="yes"/>
      <point x="312" y="1357" type="line" smooth="yes"/>
      <point x="348" y="1354"/>
      <point x="362" y="1329"/>
      <point x="362" y="1276" type="curve" smooth="yes"/>
      <point x="360" y="1132"/>
      <point x="352" y="274"/>
      <point x="344" y="170" type="curve" smooth="yes"/>
      <point x="342" y="143"/>
      <point x="338" y="130"/>
      <point x="328" y="103" type="curve" smooth="yes"/>
      <point x="313" y="69" type="line" smooth="yes"/>
      <point x="296" y="27"/>
      <point x="307" y="0"/>
      <point x="335" y="0" type="curve" smooth="yes"/>
      <point x="361" y="0" type="line" smooth="yes"/>
      <point x="387" y="0"/>
      <point x="411" y="24"/>
      <point x="420" y="56" type="curve" smooth="yes"/>
      <point x="426" y="75" type="line" smooth="yes"/>
      <point x="432" y="99"/>
      <point x="442" y="120"/>
      <point x="469" y="162" type="curve" smooth="yes"/>
      <point x="991" y="983" type="line"/>
    </contour>
    <contour>
      <point x="1604" y="1384" type="curve" smooth="yes"/>
      <point x="1604" y="1371"/>
      <point x="1615" y="1362"/>
      <point x="1641" y="1359" type="curve" smooth="yes"/>
      <point x="1705" y="1347" type="line" smooth="yes"/>
      <point x="1741" y="1341"/>
      <point x="1748" y="1292"/>
      <point x="1725" y="1254" type="curve" smooth="yes"/>
      <point x="1031" y="91" type="line"/>
      <point x="1055" y="113" type="line"/>
      <point x="1057" y="307"/>
      <point x="1042" y="1099"/>
      <point x="1041" y="1266" type="curve" smooth="yes"/>
      <point x="1041" y="1326"/>
      <point x="1053" y="1346"/>
      <point x="1101" y="1352" type="curve" smooth="yes"/>
      <point x="1187" y="1366" type="line" smooth="yes"/>
      <point x="1198" y="1364"/>
      <point x="1215" y="1372"/>
      <point x="1215" y="1388" type="curve" smooth="yes"/>
      <point x="1216" y="1398"/>
      <point x="1210" y="1400"/>
      <point x="1192" y="1400" type="curve" smooth="yes"/>
      <point x="899" y="1400" type="line" smooth="yes"/>
      <point x="876" y="1400"/>
      <point x="865" y="1392"/>
      <point x="864" y="1384" type="curve" smooth="yes"/>
      <point x="864" y="1371"/>
      <point x="876" y="1361"/>
      <point x="891" y="1361" type="curve" smooth="yes"/>
      <point x="924" y="1356" type="line" smooth="yes"/>
      <point x="964" y="1351"/>
      <point x="978" y="1323"/>
      <point x="982" y="1255" type="curve" smooth="yes"/>
      <point x="991" y="1086"/>
      <point x="1002" y="319"/>
      <point x="998" y="181" type="curve" smooth="yes"/>
      <point x="997" y="153"/>
      <point x="995" y="138"/>
      <point x="983" y="108" type="curve" smooth="yes"/>
      <point x="969" y="73" type="line" smooth="yes"/>
      <point x="950" y="26"/>
      <point x="964" y="0"/>
      <point x="989" y="0" type="curve" smooth="yes"/>
      <point x="1018" y="0" type="line" smooth="yes"/>
      <point x="1040" y="0"/>
      <point x="1064" y="17"/>
      <point x="1074" y="52" type="curve" smooth="yes"/>
      <point x="1082" y="80" type="line" smooth="yes"/>
      <point x="1090" y="104"/>
      <point x="1101" y="125"/>
      <point x="1114" y="145" type="curve" smooth="yes"/>
      <point x="1766" y="1236" type="line" smooth="yes"/>
      <point x="1820" y="1324"/>
      <point x="1850" y="1354"/>
      <point x="1890" y="1362" type="curve" smooth="yes"/>
      <point x="1919" y="1367" type="line" smooth="yes"/>
      <point x="1947" y="1371"/>
      <point x="1959" y="1381"/>
      <point x="1959" y="1388" type="curve" smooth="yes"/>
      <point x="1960" y="1398"/>
      <point x="1953" y="1400"/>
      <point x="1933" y="1400" type="curve" smooth="yes"/>
      <point x="1634" y="1400" type="line" smooth="yes"/>
      <point x="1617" y="1400"/>
      <point x="1605" y="1394"/>
    </contour>
  </outline>
</glyph>
<glyph name="ampersand.alt" format="2">
  <advance width="1149"/>
  <outline>
    <contour>
      <point x="744" y="1369" type="curve" smooth="yes"/>
      <point x="590" y="1369"/>
      <point x="458" y="1245"/>
      <point x="415" y="1081" type="curve" smooth="yes"/>
      <point x="379" y="949"/>
      <point x="410" y="829"/>
      <point x="538" y="783" type="curve" smooth="yes"/>
      <point x="612" y="758"/>
      <point x="645" y="711"/>
      <point x="689" y="607" type="curve" smooth="yes"/>
      <point x="887" y="152" type="line" smooth="yes"/>
      <point x="912" y="92"/>
      <point x="930" y="69"/>
      <point x="998" y="63" type="curve" smooth="yes"/>
      <point x="1031" y="60"/>
      <point x="1043" y="49"/>
      <point x="1038" y="31" type="curve" smooth="yes"/>
      <point x="1034" y="10"/>
      <point x="1014" y="1"/>
      <point x="984" y="1" type="curve" smooth="yes"/>
      <point x="947" y="1" type="line" smooth="yes"/>
      <point x="896" y="1"/>
      <point x="873" y="17"/>
      <point x="853" y="64" type="curve" smooth="yes"/>
      <point x="649" y="549" type="line" smooth="yes"/>
      <point x="608" y="649"/>
      <point x="576" y="697"/>
      <point x="503" y="722" type="curve" smooth="yes"/>
      <point x="351" y="774"/>
      <point x="311" y="911"/>
      <point x="351" y="1061" type="curve" smooth="yes"/>
      <point x="406" y="1267"/>
      <point x="587" y="1420"/>
      <point x="765" y="1420" type="curve" smooth="yes"/>
      <point x="946" y="1420"/>
      <point x="1023" y="1267"/>
      <point x="975" y="1089" type="curve" smooth="yes"/>
      <point x="918" y="876"/>
      <point x="757" y="743"/>
      <point x="559" y="717" type="curve"/>
      <point x="551" y="758" type="line"/>
      <point x="735" y="789"/>
      <point x="855" y="894"/>
      <point x="899" y="1061" type="curve" smooth="yes"/>
      <point x="950" y="1254"/>
      <point x="883" y="1369"/>
    </contour>
    <contour>
      <point x="515" y="724" type="line"/>
      <point x="303" y="689"/>
      <point x="161" y="555"/>
      <point x="115" y="381" type="curve" smooth="yes"/>
      <point x="55" y="160"/>
      <point x="145" y="38"/>
      <point x="345" y="38" type="curve" smooth="yes"/>
      <point x="509" y="38"/>
      <point x="672" y="134"/>
      <point x="791" y="289" type="curve"/>
      <point x="811" y="251" type="line"/>
      <point x="685" y="95"/>
      <point x="530" y="-21"/>
      <point x="294" y="-21" type="curve" smooth="yes"/>
      <point x="63" y="-21"/>
      <point x="-17" y="155"/>
      <point x="39" y="361" type="curve" smooth="yes"/>
      <point x="99" y="587"/>
      <point x="270" y="737"/>
      <point x="525" y="762" type="curve"/>
    </contour>
    <contour>
      <point x="807" y="308" type="line"/>
      <point x="1012" y="591" type="line" smooth="yes"/>
      <point x="1047" y="640"/>
      <point x="1049" y="667"/>
      <point x="1010" y="675" type="curve" smooth="yes"/>
      <point x="934" y="691" type="line" smooth="yes"/>
      <point x="911" y="695"/>
      <point x="911" y="704"/>
      <point x="914" y="716" type="curve" smooth="yes"/>
      <point x="918" y="729"/>
      <point x="932" y="738"/>
      <point x="950" y="738" type="curve" smooth="yes"/>
      <point x="1233" y="738" type="line" smooth="yes"/>
      <point x="1251" y="738"/>
      <point x="1260" y="725"/>
      <point x="1255" y="709" type="curve" smooth="yes"/>
      <point x="1252" y="697"/>
      <point x="1240" y="686"/>
      <point x="1214" y="686" type="curve" smooth="yes"/>
      <point x="1150" y="682"/>
      <point x="1119" y="657"/>
      <point x="1074" y="597" type="curve" smooth="yes"/>
      <point x="824" y="261" type="line"/>
    </contour>
  </outline>
</glyph>
<glyph name="b.alt" format="2">
  <advance width="807"/>
  <outline>
    <contour>
      <point x="328" y="1104" type="curve" smooth="yes"/>
      <point x="47" y="72" type="line" smooth="yes"/>
      <point x="27" y="-1"/>
      <point x="44" y="-11"/>
      <point x="61" y="-11" type="curve" smooth="yes"/>
      <point x="75" y="-11"/>
      <point x="85" y="-3"/>
      <point x="91" y="13" type="curve" smooth="yes"/>
      <point x="147" y="167" type="line"/>
      <point x="134" y="180" type="line"/>
      <point x="134" y="53"/>
      <point x="175" y="-14"/>
      <point x="295" y="-14" type="curve" smooth="yes"/>
      <point x="509" y="-14"/>
      <point x="793" y="242"/>
      <point x="793" y="650" type="curve" smooth="yes"/>
      <point x="793" y="768"/>
      <point x="736" y="840"/>
      <point x="634" y="840" type="curve" smooth="yes"/>
      <point x="459" y="840"/>
      <point x="257" y="633"/>
      <point x="181" y="414" type="curve"/>
      <point x="196" y="414" type="line"/>
      <point x="390" y="1120" type="line" smooth="yes"/>
      <point x="423" y="1240"/>
      <point x="427" y="1319"/>
      <point x="353" y="1319" type="curve" smooth="yes"/>
      <point x="264" y="1319"/>
      <point x="188" y="1253"/>
      <point x="186" y="1222" type="curve" smooth="yes"/>
      <point x="186" y="1205"/>
      <point x="194" y="1202"/>
      <point x="204" y="1202" type="curve" smooth="yes"/>
      <point x="218" y="1202"/>
      <point x="232" y="1221"/>
      <point x="249" y="1234" type="curve" smooth="yes"/>
      <point x="271" y="1250"/>
      <point x="288" y="1259"/>
      <point x="310" y="1259" type="curve" smooth="yes"/>
      <point x="345" y="1259"/>
      <point x="360" y="1221"/>
    </contour>
    <contour>
      <point x="599" y="786" type="curve" smooth="yes"/>
      <point x="674" y="786"/>
      <point x="720" y="726"/>
      <point x="720" y="618" type="curve" smooth="yes"/>
      <point x="720" y="272"/>
      <point x="487" y="38"/>
      <point x="303" y="38" type="curve" smooth="yes"/>
      <point x="219" y="38"/>
      <point x="169" y="86"/>
      <point x="169" y="199" type="curve" smooth="yes"/>
      <point x="169" y="443"/>
      <point x="419" y="786"/>
    </contour>
  </outline>
</glyph>
<glyph name="d.alt" format="2">
  <advance width="854"/>
  <outline>
    <contour>
      <point x="873" y="1139" type="line" smooth="yes"/>
      <point x="907" y="1257"/>
      <point x="902" y="1319"/>
      <point x="829" y="1319" type="curve" smooth="yes"/>
      <point x="740" y="1319"/>
      <point x="663" y="1253"/>
      <point x="662" y="1222" type="curve" smooth="yes"/>
      <point x="661" y="1205"/>
      <point x="669" y="1202"/>
      <point x="680" y="1202" type="curve" smooth="yes"/>
      <point x="693" y="1202"/>
      <point x="708" y="1221"/>
      <point x="724" y="1234" type="curve" smooth="yes"/>
      <point x="746" y="1250"/>
      <point x="764" y="1265"/>
      <point x="790" y="1265" type="curve" smooth="yes"/>
      <point x="832" y="1265"/>
      <point x="838" y="1226"/>
      <point x="808" y="1126" type="curve" smooth="yes"/>
      <point x="640" y="559" type="line" smooth="yes"/>
      <point x="573" y="334"/>
      <point x="356" y="51"/>
      <point x="222" y="51" type="curve" smooth="yes"/>
      <point x="160" y="51"/>
      <point x="116" y="93"/>
      <point x="116" y="187" type="curve" smooth="yes"/>
      <point x="116" y="498"/>
      <point x="354" y="790"/>
      <point x="574" y="790" type="curve" smooth="yes"/>
      <point x="641" y="790"/>
      <point x="683" y="776"/>
      <point x="719" y="731" type="curve"/>
      <point x="756" y="769" type="line"/>
      <point x="729" y="812"/>
      <point x="680" y="842"/>
      <point x="604" y="842" type="curve" smooth="yes"/>
      <point x="330" y="842"/>
      <point x="49" y="543"/>
      <point x="48" y="175" type="curve" smooth="yes"/>
      <point x="47" y="37"/>
      <point x="107" y="-14"/>
      <point x="192" y="-14" type="curve" smooth="yes"/>
      <point x="324" y="-14"/>
      <point x="491" y="129"/>
      <point x="622" y="420" type="curve"/>
      <point x="606" y="421" type="line"/>
      <point x="527" y="169"/>
      <point x="515" y="121"/>
      <point x="515" y="70" type="curve" smooth="yes"/>
      <point x="515" y="11"/>
      <point x="541" y="-13"/>
      <point x="594" y="-13" type="curve" smooth="yes"/>
      <point x="678" y="-13"/>
      <point x="740" y="46"/>
      <point x="741" y="85" type="curve" smooth="yes"/>
      <point x="742" y="97"/>
      <point x="737" y="108"/>
      <point x="725" y="108" type="curve" smooth="yes"/>
      <point x="713" y="108"/>
      <point x="708" y="100"/>
      <point x="701" y="90" type="curve" smooth="yes"/>
      <point x="683" y="63"/>
      <point x="662" y="51"/>
      <point x="632" y="51" type="curve" smooth="yes"/>
      <point x="581" y="51"/>
      <point x="584" y="114"/>
      <point x="631" y="282" type="curve" smooth="yes"/>
    </contour>
  </outline>
</glyph>
<glyph name="e" format="2">
  <advance width="720"/>
  <anchor x="531" y="921" name="center"/>
  <outline>
    <contour>
      <point x="118" y="376" type="curve"/>
      <point x="125" y="343" type="line"/>
      <point x="125" y="343"/>
      <point x="497" y="520"/>
      <point x="688" y="608" type="curve" smooth="yes"/>
      <point x="704" y="615"/>
      <point x="715" y="622"/>
      <point x="715" y="637" type="curve" smooth="yes"/>
      <point x="716" y="657"/>
      <point x="704" y="663"/>
      <point x="689" y="657" type="curve" smooth="yes"/>
      <point x="677" y="653"/>
      <point x="668" y="658"/>
      <point x="668" y="666" type="curve" smooth="yes"/>
      <point x="672" y="763"/>
      <point x="619" y="839"/>
      <point x="516" y="839" type="curve" smooth="yes"/>
      <point x="307" y="839"/>
      <point x="81" y="531"/>
      <point x="70" y="233" type="curve" smooth="yes"/>
      <point x="65" y="81"/>
      <point x="147" y="-13"/>
      <point x="287" y="-13" type="curve" smooth="yes"/>
      <point x="492" y="-13"/>
      <point x="633" y="138"/>
      <point x="637" y="247" type="curve" smooth="yes"/>
      <point x="637" y="265"/>
      <point x="633" y="273"/>
      <point x="623" y="273" type="curve" smooth="yes"/>
      <point x="615" y="273"/>
      <point x="608" y="268"/>
      <point x="603" y="255" type="curve" smooth="yes"/>
      <point x="549" y="109"/>
      <point x="436" y="33"/>
      <point x="322" y="33" type="curve" smooth="yes"/>
      <point x="206" y="33"/>
      <point x="131" y="112"/>
      <point x="137" y="287" type="curve" smooth="yes"/>
      <point x="146" y="530"/>
      <point x="352" y="799"/>
      <point x="488" y="799" type="curve" smooth="yes"/>
      <point x="559" y="799"/>
      <point x="603" y="742"/>
      <point x="600" y="654" type="curve" smooth="yes"/>
      <point x="599" y="625"/>
      <point x="597" y="608"/>
      <point x="589" y="585" type="curve"/>
      <point x="602" y="610" type="line"/>
      <point x="422" y="523"/>
      <point x="118" y="376"/>
    </contour>
  </outline>
</glyph>
<glyph name="g" format="2">
  <advance width="783"/>
  <outline>
    <contour>
      <point x="581" y="-14" type="curve" smooth="yes"/>
      <point x="640" y="233"/>
      <point x="724" y="598"/>
      <point x="748" y="713" type="curve" smooth="yes"/>
      <point x="754" y="742"/>
      <point x="777" y="756"/>
      <point x="778" y="787" type="curve" smooth="yes"/>
      <point x="779" y="816"/>
      <point x="734" y="840"/>
      <point x="651" y="840" type="curve" smooth="yes"/>
      <point x="361" y="840"/>
      <point x="73" y="518"/>
      <point x="61" y="172" type="curve" smooth="yes"/>
      <point x="57" y="52"/>
      <point x="105" y="-12"/>
      <point x="190" y="-12" type="curve" smooth="yes"/>
      <point x="362" y="-12"/>
      <point x="556" y="169"/>
      <point x="649" y="422" type="curve"/>
      <point x="621" y="441" type="line"/>
      <point x="618" y="353"/>
      <point x="569" y="186"/>
      <point x="512" y="-29" type="curve" smooth="yes"/>
      <point x="448" y="-280"/>
      <point x="285" y="-399"/>
      <point x="117" y="-399" type="curve" smooth="yes"/>
      <point x="46" y="-399"/>
      <point x="-2" y="-359"/>
      <point x="-35" y="-359" type="curve" smooth="yes"/>
      <point x="-64" y="-359"/>
      <point x="-86" y="-368"/>
      <point x="-87" y="-395" type="curve" smooth="yes"/>
      <point x="-88" y="-434"/>
      <point x="-47" y="-462"/>
      <point x="54" y="-462" type="curve" smooth="yes"/>
      <point x="296" y="-462"/>
      <point x="509" y="-305"/>
    </contour>
    <contour>
      <point x="125" y="207" type="curve" smooth="yes"/>
      <point x="136" y="504"/>
      <point x="403" y="796"/>
      <point x="610" y="797" type="curve" smooth="yes"/>
      <point x="659" y="797"/>
      <point x="685" y="772"/>
      <point x="683" y="716" type="curve" smooth="yes"/>
      <point x="673" y="440"/>
      <point x="435" y="43"/>
      <point x="241" y="43" type="curve" smooth="yes"/>
      <point x="165" y="42"/>
      <point x="121" y="91"/>
    </contour>
  </outline>
</glyph>
<glyph name="h.alt" format="2">
  <advance width="877"/>
  <outline>
    <contour>
      <point x="432" y="1083" type="curve" smooth="yes"/>
      <point x="226" y="376" type="line"/>
      <point x="202" y="378" type="line"/>
      <point x="325" y="668"/>
      <point x="541" y="840"/>
      <point x="714" y="840" type="curve" smooth="yes"/>
      <point x="811" y="840"/>
      <point x="821" y="763"/>
      <point x="759" y="587" type="curve" smooth="yes"/>
      <point x="626" y="204" type="line" smooth="yes"/>
      <point x="589" y="94"/>
      <point x="598" y="52"/>
      <point x="640" y="52" type="curve" smooth="yes"/>
      <point x="661" y="52"/>
      <point x="680" y="59"/>
      <point x="702" y="83" type="curve" smooth="yes"/>
      <point x="714" y="96"/>
      <point x="723" y="104"/>
      <point x="734" y="104" type="curve" smooth="yes"/>
      <point x="742" y="104"/>
      <point x="749" y="97"/>
      <point x="748" y="86" type="curve" smooth="yes"/>
      <point x="747" y="50"/>
      <point x="677" y="-14"/>
      <point x="596" y="-14" type="curve" smooth="yes"/>
      <point x="509" y="-14"/>
      <point x="513" y="58"/>
      <point x="557" y="182" type="curve" smooth="yes"/>
      <point x="704" y="594" type="line" smooth="yes"/>
      <point x="743" y="706"/>
      <point x="731" y="779"/>
      <point x="662" y="779" type="curve" smooth="yes"/>
      <point x="538" y="779"/>
      <point x="330" y="621"/>
      <point x="218" y="310" type="curve" smooth="yes"/>
      <point x="182" y="211"/>
      <point x="160" y="153"/>
      <point x="160" y="112" type="curve" smooth="yes"/>
      <point x="159" y="72"/>
      <point x="169" y="59"/>
      <point x="169" y="33" type="curve" smooth="yes"/>
      <point x="169" y="0"/>
      <point x="136" y="-20"/>
      <point x="103" y="-20" type="curve" smooth="yes"/>
      <point x="59" y="-20"/>
      <point x="53" y="2"/>
      <point x="93" y="136" type="curve" smooth="yes"/>
      <point x="362" y="1060" type="line" smooth="yes"/>
      <point x="398" y="1184"/>
      <point x="404" y="1242"/>
      <point x="353" y="1242" type="curve" smooth="yes"/>
      <point x="330" y="1242"/>
      <point x="313" y="1234"/>
      <point x="297" y="1221" type="curve" smooth="yes"/>
      <point x="280" y="1207"/>
      <point x="265" y="1187"/>
      <point x="247" y="1187" type="curve" smooth="yes"/>
      <point x="237" y="1187"/>
      <point x="230" y="1192"/>
      <point x="231" y="1209" type="curve" smooth="yes"/>
      <point x="232" y="1246"/>
      <point x="310" y="1306"/>
      <point x="393" y="1306" type="curve" smooth="yes"/>
      <point x="458" y="1306"/>
      <point x="485" y="1259"/>
    </contour>
  </outline>
</glyph>
<glyph name="k.alt" format="2">
  <advance width="846"/>
  <outline>
    <contour>
      <point x="365" y="1085" type="line" smooth="yes"/>
      <point x="400" y="1205"/>
      <point x="385" y="1241"/>
      <point x="347" y="1241" type="curve" smooth="yes"/>
      <point x="327" y="1241"/>
      <point x="314" y="1236"/>
      <point x="291" y="1219" type="curve" smooth="yes"/>
      <point x="274" y="1206"/>
      <point x="260" y="1187"/>
      <point x="247" y="1187" type="curve" smooth="yes"/>
      <point x="236" y="1187"/>
      <point x="227" y="1190"/>
      <point x="228" y="1207" type="curve" smooth="yes"/>
      <point x="228" y="1238"/>
      <point x="305" y="1305"/>
      <point x="392" y="1305" type="curve" smooth="yes"/>
      <point x="440" y="1305"/>
      <point x="465" y="1270"/>
      <point x="463" y="1227" type="curve" smooth="yes"/>
      <point x="463" y="1190"/>
      <point x="445" y="1154"/>
      <point x="418" y="1058" type="curve" smooth="yes"/>
      <point x="339" y="778"/>
      <point x="259" y="500"/>
      <point x="252" y="454" type="curve"/>
      <point x="215" y="443" type="line"/>
      <point x="307" y="653"/>
      <point x="501" y="857"/>
      <point x="691" y="841" type="curve" smooth="yes"/>
      <point x="776" y="834"/>
      <point x="830" y="778"/>
      <point x="819" y="675" type="curve" smooth="yes"/>
      <point x="802" y="526"/>
      <point x="592" y="374"/>
      <point x="182" y="285" type="curve"/>
      <point x="188" y="334" type="line"/>
      <point x="580" y="431"/>
      <point x="730" y="549"/>
      <point x="751" y="676" type="curve" smooth="yes"/>
      <point x="761" y="741"/>
      <point x="732" y="785"/>
      <point x="668" y="794" type="curve" smooth="yes"/>
      <point x="533" y="811"/>
      <point x="275" y="567"/>
      <point x="211" y="325" type="curve" smooth="yes"/>
      <point x="163" y="148"/>
      <point x="160" y="125"/>
      <point x="160" y="95" type="curve" smooth="yes"/>
      <point x="159" y="66"/>
      <point x="165" y="55"/>
      <point x="164" y="37" type="curve" smooth="yes"/>
      <point x="164" y="9"/>
      <point x="135" y="-10"/>
      <point x="103" y="-10" type="curve" smooth="yes"/>
      <point x="71" y="-10"/>
      <point x="63" y="24"/>
      <point x="77" y="75" type="curve" smooth="yes"/>
    </contour>
    <contour>
      <point x="422" y="366" type="line"/>
      <point x="483" y="393" type="line"/>
      <point x="555" y="153" type="line" smooth="yes"/>
      <point x="576" y="86"/>
      <point x="599" y="64"/>
      <point x="630" y="58" type="curve" smooth="yes"/>
      <point x="653" y="53"/>
      <point x="674" y="70"/>
      <point x="687" y="98" type="curve" smooth="yes"/>
      <point x="692" y="108"/>
      <point x="702" y="114"/>
      <point x="713" y="112" type="curve" smooth="yes"/>
      <point x="725" y="109"/>
      <point x="729" y="98"/>
      <point x="725" y="76" type="curve" smooth="yes"/>
      <point x="714" y="19"/>
      <point x="673" y="-22"/>
      <point x="612" y="-14" type="curve" smooth="yes"/>
      <point x="559" y="-6"/>
      <point x="529" y="29"/>
      <point x="501" y="115" type="curve" smooth="yes"/>
    </contour>
  </outline>
</glyph>
<glyph name="l.alt" format="2">
  <advance width="448"/>
  <outline>
    <contour>
      <point x="428" y="1103" type="line" smooth="yes"/>
      <point x="477" y="1269"/>
      <point x="453" y="1319"/>
      <point x="389" y="1319" type="curve" smooth="yes"/>
      <point x="300" y="1319"/>
      <point x="223" y="1253"/>
      <point x="221" y="1222" type="curve" smooth="yes"/>
      <point x="220" y="1205"/>
      <point x="229" y="1202"/>
      <point x="240" y="1202" type="curve" smooth="yes"/>
      <point x="253" y="1202"/>
      <point x="267" y="1221"/>
      <point x="283" y="1234" type="curve" smooth="yes"/>
      <point x="305" y="1250"/>
      <point x="319" y="1256"/>
      <point x="345" y="1256" type="curve" smooth="yes"/>
      <point x="379" y="1256"/>
      <point x="401" y="1225"/>
      <point x="356" y="1075" type="curve" smooth="yes"/>
      <point x="121" y="308" type="line" smooth="yes"/>
      <point x="59" y="106"/>
      <point x="59" y="-14"/>
      <point x="162" y="-14" type="curve" smooth="yes"/>
      <point x="261" y="-14"/>
      <point x="375" y="75"/>
      <point x="376" y="140" type="curve" smooth="yes"/>
      <point x="377" y="152"/>
      <point x="370" y="162"/>
      <point x="359" y="162" type="curve" smooth="yes"/>
      <point x="350" y="162"/>
      <point x="345" y="158"/>
      <point x="337" y="147" type="curve" smooth="yes"/>
      <point x="308" y="102"/>
      <point x="264" y="59"/>
      <point x="217" y="59" type="curve" smooth="yes"/>
      <point x="140" y="59"/>
      <point x="141" y="164"/>
      <point x="186" y="311" type="curve" smooth="yes"/>
    </contour>
  </outline>
</glyph>
<glyph name="l" format="2">
  <advance width="454"/>
  <outline>
    <contour>
      <point x="637" y="1300" type="curve" smooth="yes"/>
      <point x="516" y="1300"/>
      <point x="433" y="1228"/>
      <point x="367" y="1023" type="curve" smooth="yes"/>
      <point x="138" y="307" type="line" smooth="yes"/>
      <point x="104" y="201"/>
      <point x="89" y="137"/>
      <point x="87" y="77" type="curve" smooth="yes"/>
      <point x="85" y="24"/>
      <point x="111" y="-13"/>
      <point x="165" y="-13" type="curve" smooth="yes"/>
      <point x="264" y="-13"/>
      <point x="381" y="75"/>
      <point x="383" y="138" type="curve" smooth="yes"/>
      <point x="383" y="147"/>
      <point x="376" y="155"/>
      <point x="365" y="155" type="curve" smooth="yes"/>
      <point x="356" y="155"/>
      <point x="351" y="152"/>
      <point x="344" y="141" type="curve" smooth="yes"/>
      <point x="313" y="94"/>
      <point x="267" y="50"/>
      <point x="219" y="50" type="curve" smooth="yes"/>
      <point x="182" y="50"/>
      <point x="159" y="75"/>
      <point x="160" y="125" type="curve" smooth="yes"/>
      <point x="162" y="181"/>
      <point x="175" y="236"/>
      <point x="197" y="304" type="curve" smooth="yes"/>
      <point x="400" y="954" type="line" smooth="yes"/>
      <point x="420" y="1010"/>
      <point x="428" y="1035"/>
      <point x="439" y="1082" type="curve" smooth="yes"/>
      <point x="457" y="1176"/>
      <point x="512" y="1238"/>
      <point x="569" y="1238" type="curve" smooth="yes"/>
      <point x="621" y="1238"/>
      <point x="637" y="1212"/>
      <point x="678" y="1212" type="curve" smooth="yes"/>
      <point x="713" y="1212"/>
      <point x="728" y="1231"/>
      <point x="729" y="1251" type="curve" smooth="yes"/>
      <point x="730" y="1277"/>
      <point x="700" y="1300"/>
    </contour>
  </outline>
</glyph>
<glyph name="n" format="2">
  <advance width="925"/>
  <outline>
    <contour>
      <point x="188" y="730" type="curve" smooth="yes"/>
      <point x="203" y="726"/>
      <point x="217" y="739"/>
      <point x="231" y="754" type="curve" smooth="yes"/>
      <point x="253" y="778"/>
      <point x="277" y="788"/>
      <point x="298" y="788" type="curve" smooth="yes"/>
      <point x="323" y="788"/>
      <point x="337" y="772"/>
      <point x="336" y="736" type="curve" smooth="yes"/>
      <point x="335" y="707"/>
      <point x="327" y="676"/>
      <point x="315" y="643" type="curve" smooth="yes"/>
      <point x="133" y="122" type="line" smooth="yes"/>
      <point x="118" y="76"/>
      <point x="109" y="46"/>
      <point x="108" y="19" type="curve" smooth="yes"/>
      <point x="107" y="-2"/>
      <point x="118" y="-13"/>
      <point x="138" y="-13" type="curve" smooth="yes"/>
      <point x="174" y="-13"/>
      <point x="206" y="5"/>
      <point x="207" y="34" type="curve" smooth="yes"/>
      <point x="208" y="63"/>
      <point x="197" y="91"/>
      <point x="198" y="107" type="curve" smooth="yes"/>
      <point x="198" y="126"/>
      <point x="204" y="147"/>
      <point x="242" y="266" type="curve" smooth="yes"/>
      <point x="344" y="585"/>
      <point x="577" y="788"/>
      <point x="703" y="788" type="curve" smooth="yes"/>
      <point x="756" y="788"/>
      <point x="776" y="752"/>
      <point x="774" y="697" type="curve" smooth="yes"/>
      <point x="773" y="669"/>
      <point x="764" y="625"/>
      <point x="748" y="581" type="curve" smooth="yes"/>
      <point x="607" y="201" type="line" smooth="yes"/>
      <point x="589" y="153"/>
      <point x="565" y="102"/>
      <point x="563" y="52" type="curve" smooth="yes"/>
      <point x="561" y="12"/>
      <point x="581" y="-13"/>
      <point x="628" y="-13" type="curve" smooth="yes"/>
      <point x="690" y="-13"/>
      <point x="757" y="18"/>
      <point x="779" y="63" type="curve" smooth="yes"/>
      <point x="785" y="75"/>
      <point x="787" y="93"/>
      <point x="777" y="96" type="curve" smooth="yes"/>
      <point x="760" y="98"/>
      <point x="753" y="90"/>
      <point x="738" y="74" type="curve" smooth="yes"/>
      <point x="712" y="46"/>
      <point x="687" y="41"/>
      <point x="669" y="41" type="curve" smooth="yes"/>
      <point x="646" y="41"/>
      <point x="636" y="60"/>
      <point x="637" y="97" type="curve" smooth="yes"/>
      <point x="638" y="118"/>
      <point x="644" y="143"/>
      <point x="657" y="180" type="curve" smooth="yes"/>
      <point x="797" y="573" type="line" smooth="yes"/>
      <point x="826" y="654"/>
      <point x="840" y="700"/>
      <point x="842" y="747" type="curve" smooth="yes"/>
      <point x="844" y="803"/>
      <point x="818" y="838"/>
      <point x="753" y="838" type="curve" smooth="yes"/>
      <point x="601" y="838"/>
      <point x="372" y="702"/>
      <point x="216" y="286" type="curve"/>
      <point x="243" y="282" type="line"/>
      <point x="378" y="644"/>
      <point x="399" y="693"/>
      <point x="402" y="759" type="curve" smooth="yes"/>
      <point x="403" y="812"/>
      <point x="383" y="838"/>
      <point x="339" y="838" type="curve" smooth="yes"/>
      <point x="275" y="838"/>
      <point x="226" y="819"/>
      <point x="187" y="770" type="curve" smooth="yes"/>
      <point x="173" y="754"/>
      <point x="179" y="733"/>
    </contour>
  </outline>
</glyph>
<glyph name="p" format="2">
  <advance width="843"/>
  <outline>
    <contour>
      <point x="450" y="908" type="line" smooth="yes"/>
      <point x="456" y="927"/>
      <point x="462" y="944"/>
      <point x="463" y="972" type="curve" smooth="yes"/>
      <point x="464" y="989"/>
      <point x="460" y="1001"/>
      <point x="447" y="1001" type="curve" smooth="yes"/>
      <point x="432" y="1001"/>
      <point x="421" y="996"/>
      <point x="413" y="977" type="curve" smooth="yes"/>
      <point x="20" y="-302" type="line" smooth="yes"/>
      <point x="2" y="-360"/>
      <point x="-20" y="-383"/>
      <point x="-83" y="-397" type="curve" smooth="yes"/>
      <point x="-90" y="-397"/>
      <point x="-99" y="-403"/>
      <point x="-99" y="-415" type="curve" smooth="yes"/>
      <point x="-100" y="-423"/>
      <point x="-89" y="-430"/>
      <point x="-76" y="-429" type="curve" smooth="yes"/>
      <point x="171" y="-420" type="line" smooth="yes"/>
      <point x="188" y="-419"/>
      <point x="200" y="-410"/>
      <point x="200" y="-399" type="curve" smooth="yes"/>
      <point x="200" y="-388"/>
      <point x="192" y="-381"/>
      <point x="170" y="-380" type="curve" smooth="yes"/>
      <point x="116" y="-372" type="line" smooth="yes"/>
      <point x="62" y="-362"/>
      <point x="80" y="-321"/>
      <point x="91" y="-282" type="curve" smooth="yes"/>
    </contour>
    <contour>
      <point x="209" y="637" type="curve" smooth="yes"/>
      <point x="322" y="753"/>
      <point x="422" y="803"/>
      <point x="540" y="791" type="curve" smooth="yes"/>
      <point x="672" y="777"/>
      <point x="755" y="653"/>
      <point x="715" y="422" type="curve" smooth="yes"/>
      <point x="667" y="149"/>
      <point x="513" y="17"/>
      <point x="362" y="34" type="curve" smooth="yes"/>
      <point x="279" y="42"/>
      <point x="228" y="83"/>
      <point x="202" y="157" type="curve"/>
      <point x="166" y="142" type="line"/>
      <point x="196" y="39"/>
      <point x="257" y="-5"/>
      <point x="350" y="-13" type="curve" smooth="yes"/>
      <point x="542" y="-31"/>
      <point x="734" y="132"/>
      <point x="780" y="410" type="curve" smooth="yes"/>
      <point x="826" y="681"/>
      <point x="733" y="825"/>
      <point x="554" y="839" type="curve" smooth="yes"/>
      <point x="420" y="849"/>
      <point x="304" y="802"/>
      <point x="169" y="660" type="curve" smooth="yes"/>
      <point x="154" y="646"/>
      <point x="151" y="626"/>
      <point x="168" y="619" type="curve" smooth="yes"/>
      <point x="181" y="614"/>
      <point x="195" y="622"/>
    </contour>
  </outline>
</glyph>
